<svg xmlns="http://www.w3.org/2000/svg" xml:space="preserve" viewBox="0 0 24 24"><path d="M12 19.9c-1.3 1.4-2.8 2.7-4.7 3-.1 0-.2.1-.3.1-2.7.4-5-1.9-5-4.7C2 16 5 11 8.1 4.5 8.8 2.8 9.6 1 12 1s3.2 1.6 4.2 3.8c5.9 11.7 5.9 12.4 5.9 13.5 0 1.4-.5 2.7-1.6 3.6-2 1.6-5.1 1.7-8.5-2m8.7-1.6c0-1.8-2.7-6.7-5.8-12.9-.8-1.6-1.3-3-2.9-3-1.5 0-1.9.9-2.8 2.7-3 6.3-5.9 11.3-5.9 13.3 0 1.8 1.4 3.5 3.8 3.2 1.6-.2 2.9-1.6 3.9-2.7-10.2-13.1 12-13.1 1.8 0 4.2 4.6 7.9 2.3 7.9-.6m-11-5.5c0 1.3.8 2.9 2.3 4.9 1.5-2 2.3-3.7 2.3-4.9 0-3.3-4.6-3.3-4.6 0"/></svg>