<svg xmlns="http://www.w3.org/2000/svg" width="24" height="24" fill="none"><path fill="#000" d="M3.204 4.205c.211-.211.498-.33.796-.33h16A1.125 1.125 0 0 1 21.125 5v10A1.125 1.125 0 0 1 20 16.125h-1a.875.875 0 0 0 0 1.75h1A2.875 2.875 0 0 0 22.875 15V5A2.875 2.875 0 0 0 20 2.125H4A2.875 2.875 0 0 0 1.125 5v10A2.875 2.875 0 0 0 4 17.875h1a.875.875 0 0 0 0-1.75H4A1.125 1.125 0 0 1 2.875 15V5c0-.298.119-.585.33-.795Z"/><path fill="#000" fill-rule="evenodd" d="M12.672 14.44a.875.875 0 0 0-1.344 0l-5 6A.875.875 0 0 0 7 21.875h10a.875.875 0 0 0 .672-1.435zM12 16.367l3.132 3.758H8.868z" clip-rule="evenodd"/></svg>