<svg xmlns="http://www.w3.org/2000/svg" width="24" height="24" fill="none"><path fill="#000" d="M12 8.125c.484 0 .876.392.876.875v4a.875.875 0 1 1-1.75 0V9c0-.483.392-.875.875-.875Zm0 8a.875.875 0 0 0 0 1.75h.01a.875.875 0 1 0 0-1.75z"/><path fill="#000" fill-rule="evenodd" d="M10.59 2.392a2.875 2.875 0 0 1 3.869 1.014l.002.004 8.478 14.152a2.875 2.875 0 0 1-2.459 4.313H3.521a2.876 2.876 0 0 1-2.458-4.313l.007-.012L9.54 3.41l.75.45-.747-.454a2.9 2.9 0 0 1 1.047-1.014m.45 1.92-.001.002-8.463 14.129a1.125 1.125 0 0 0 .96 1.682h16.93a1.125 1.125 0 0 0 .96-1.682l-8.463-14.13-.002-.001a1.125 1.125 0 0 0-1.921 0" clip-rule="evenodd"/></svg>