<svg xmlns="http://www.w3.org/2000/svg" width="24" height="24" fill="none"><path fill="#000" d="M12 7.125c.483 0 .875.392.875.875v4a.875.875 0 0 1-1.75 0V8c0-.483.392-.875.875-.875m0 8a.875.875 0 0 0 0 1.75h.01a.875.875 0 0 0 0-1.75z"/><path fill="#000" fill-rule="evenodd" d="M7.241 1.381a.88.88 0 0 1 .619-.256h8.28c.232 0 .455.092.619.256l5.86 5.86a.88.88 0 0 1 .256.619v8.28a.88.88 0 0 1-.256.619l-5.86 5.86a.88.88 0 0 1-.619.256H7.86a.88.88 0 0 1-.619-.256l-5.86-5.86a.88.88 0 0 1-.256-.619V7.86c0-.232.092-.455.256-.619zm.981 1.494L2.875 8.222v7.556l5.347 5.347h7.556l5.347-5.347V8.222l-5.347-5.347z" clip-rule="evenodd"/></svg>