<svg xmlns="http://www.w3.org/2000/svg" xml:space="preserve" viewBox="0 0 24 24"><path d="M22 7.7c-1.5-3.6-4.9-6.1-8.8-6.5S5.6 2.4 3.3 5.5l-.1.1c-1.3 1.8-2.1 4-2.1 6.4 0 1.5.3 2.9.9 4.3 1.5 3.6 4.8 6.1 8.7 6.5h.1c3.8.4 7.6-1.2 9.9-4.3 0-.1.1-.1.1-.1 1.3-1.8 2.1-4 2.1-6.4 0-1.5-.3-3-.9-4.3M13.6 3c2.5.5 4.8 1.9 6.1 4.1h-8.5zm2 9-1.8 3.1h-3.6L8.4 12l1.8-3.1h3.6zm-4-9.1-4.3 7.4L5 6.1C6.7 4.2 9.1 3 11.6 2.9M2.9 12c0-1.5.3-2.9 1-4.2l2.7 4.6v.1l1.5 2.7H3.4c-.3-1-.5-2.1-.5-3.2m7.5 9c-2.5-.5-4.8-1.9-6.1-4.1h8.5zm2 .1 2.7-4.7 1.5-2.7 2.4 4.1c-1.7 2-4.1 3.2-6.6 3.3m7.7-4.9-2.7-4.7-1.5-2.7h4.8c.3 1 .5 2 .5 3.1-.1 1.6-.4 3-1.1 4.3" style="fill-rule:evenodd;clip-rule:evenodd"/></svg>