<svg xmlns="http://www.w3.org/2000/svg" width="24" height="24" fill="none"><path fill="#000" d="m12.619 7.381 4 4a.875.875 0 1 1-1.238 1.238l-2.506-2.507V16a.875.875 0 0 1-1.75 0v-5.888L8.619 12.62a.875.875 0 0 1-1.239-1.24l4-4a.87.87 0 0 1 .616-.256h.006a.87.87 0 0 1 .616.256Z"/><path fill="#000" fill-rule="evenodd" d="M1.125 12C1.125 5.994 5.994 1.125 12 1.125S22.875 5.994 22.875 12 18.006 22.875 12 22.875 1.125 18.006 1.125 12M12 2.875a9.125 9.125 0 1 0 0 18.25 9.125 9.125 0 0 0 0-18.25" clip-rule="evenodd"/></svg>