<svg xmlns="http://www.w3.org/2000/svg" xml:space="preserve" id="Layer_1" x="0" y="0" version="1.1" viewBox="0 0 24 24"><style>.st0{fill:#181d25}</style><path d="M19.1 10.2c-.6-.9-1-1.8-1.1-2.9-.3-2.3-1.5-4.4-2.3-5.3 0 0 0-.1-.1-.1A4.6 4.6 0 0 0 12 .2c-1.4 0-2.7.6-3.6 1.6C7.1 3.5 6.3 5.3 6 7.4c-.1 1-.5 2-1.1 2.7-1.1 1.5-1.7 3.2-1.7 5 0 2.3.9 4.4 2.5 6 1.7 1.7 3.9 2.6 6.2 2.6h.1c4.8 0 8.7-3.9 8.7-8.6.1-1.8-.5-3.5-1.6-4.9m-7 12c-2 0-3.8-.7-5.2-2.1-1.3-1.3-2.1-3.1-2.1-5 0-1.5.5-2.9 1.4-4.2.7-1 1.2-2.2 1.4-3.4.2-1.7.9-3.3 2.1-4.7.6-.7 1.5-1.1 2.4-1.1q1.5 0 2.4 1.2l.1.1c.2.3 1.6 2 1.9 4.5.2 1.3.7 2.5 1.4 3.6.9 1.2 1.3 2.6 1.3 4.1 0 3.8-3.2 7-7.1 7" class="st0"/><path d="M12 10.1c-2.4 0-4.2 3.1-4.2 5.3 0 2.3 1.9 4.1 4.2 4.1s4.2-1.9 4.2-4.1c0-2.1-1.8-5.3-4.2-5.3m0 7.9c-1.5 0-2.7-1.2-2.7-2.6 0-1.6 1.3-3.8 2.7-3.8s2.7 2.2 2.7 3.8c0 1.5-1.2 2.6-2.7 2.6" class="st0"/></svg>