<svg xmlns="http://www.w3.org/2000/svg" xml:space="preserve" viewBox="0 0 24 24"><path d="M21.8 4.5h-1.5V2.2c0-.2-.1-.4-.2-.5s-.3-.2-.5-.2h-3c-.2 0-.4.1-.5.2s-.2.3-.2.5v2.2H8.2V2.2c0-.2-.1-.4-.2-.5s-.3-.2-.5-.2h-3c-.2 0-.4.1-.5.2-.2.2-.2.4-.2.5v2.2H2.2c-.6 0-1.2.2-1.6.7S0 6.2 0 6.8v1.5c0 .3.2.7.4 1 .3.3.7.4 1.1.4v10.5c0 .6.2 1.2.7 1.6.4.4 1 .7 1.6.7h16.5c.6 0 1.2-.2 1.6-.7.4-.4.7-1 .7-1.6V9.8c.4 0 .8-.2 1.1-.4.1-.4.3-.8.3-1.2V6.8c0-.6-.2-1.2-.7-1.6-.4-.5-1-.7-1.5-.7M17.2 3h1.5v1.5h-1.5zm-12 0h1.5v1.5H5.2zM21 20.2c0 .2-.1.4-.2.5s-.3.2-.5.2H3.8c-.2 0-.4-.1-.5-.2-.2-.1-.3-.3-.3-.5V9.8h18zm1.5-12h-21V6.8c0-.2.1-.4.2-.5.2-.2.4-.3.5-.3h19.5c.2 0 .4.1.5.2s.2.3.2.5v1.5zm-6.7 6h.8v.8c0 .2.1.4.2.5s.3.2.5.2.4-.1.5-.2.2-.3.2-.5v-.8h.8c.2 0 .4-.1.5-.2s.2-.3.2-.5-.1-.4-.2-.5-.3-.2-.5-.2H18V12c0-.2-.1-.4-.2-.5s-.3-.2-.5-.2-.4.1-.5.2-.2.3-.2.5v.8h-.8c-.2 0-.4.1-.5.2s-.2.3-.2.5.1.4.2.5c.1.2.3.2.5.2m-7-.2c-.1.1-.3.2-.5.2h-3c-.2 0-.4-.1-.5-.2s-.2-.3-.2-.5.1-.4.2-.5.3-.2.5-.2h3c.2 0 .4.1.5.2s.2.3.2.5-.1.4-.2.5" style="fill-rule:evenodd;clip-rule:evenodd"/></svg>