<svg xmlns="http://www.w3.org/2000/svg" width="24" height="24" fill="none"><path fill="#000" d="M11.728 6.485a.875.875 0 1 0-1.456-.97l-4 6A.875.875 0 0 0 7 12.875h4.365l-3.093 4.64a.875.875 0 0 0 1.456.97l4-6a.875.875 0 0 0-.728-1.36H8.635z"/><path fill="#000" d="M3 6.875A1.125 1.125 0 0 0 1.875 8v8A1.125 1.125 0 0 0 3 17.125h2a.875.875 0 0 1 0 1.75H3A2.875 2.875 0 0 1 .125 16V8A2.875 2.875 0 0 1 3 5.125h3.19a.875.875 0 1 1 0 1.75zM14.125 6c0-.483.392-.875.875-.875h2A2.875 2.875 0 0 1 19.875 8v8A2.875 2.875 0 0 1 17 18.875h-3.19a.875.875 0 0 1 0-1.75H17A1.125 1.125 0 0 0 18.125 16V8A1.125 1.125 0 0 0 17 6.875h-2A.875.875 0 0 1 14.125 6M23 10.125c.483 0 .875.392.875.875v2a.875.875 0 0 1-1.75 0v-2c0-.483.392-.875.875-.875"/></svg>