<svg xmlns="http://www.w3.org/2000/svg" xml:space="preserve" viewBox="0 0 24 24"><path d="M12.4 14.9c0-1.8-.9-3.2-2.7-3.7 1.3-.6 2-1.6 2-3.1 0-2.9-2.2-3.6-4.7-3.6H0v14.7h7.2c2.6 0 5.2-1.3 5.2-4.3M3.2 7h3c1.2 0 2.2.3 2.2 1.7 0 1.2-.8 1.8-2 1.8H3.2zm0 9.7v-4.1h3.5c1.4 0 2.3.6 2.3 2.1s-1.1 2-2.4 2zm15.6 2.8c2.6 0 4.2-1.1 5-3.6h-2.6c-.3.9-1.4 1.4-2.3 1.4-1.7 0-2.6-1-2.6-2.7H24c.2-3.4-1.7-6.3-5.2-6.3-3.3 0-5.5 2.4-5.5 5.6 0 3.3 2.1 5.6 5.5 5.6m-.1-9c1.5 0 2.2.9 2.3 2.3h-4.8c.2-1.5 1.1-2.3 2.5-2.3m-3-5.2h6v1.4h-6z"/></svg>