<svg xmlns="http://www.w3.org/2000/svg" xml:space="preserve" viewBox="0 0 24 24"><path d="M23.5 22.2 1.5.2C1.2-.1.6-.1.3.2s-.3.9 0 1.2l5 5c-.1.5-.2 1-.2 1.4 0 6.4-2.6 8.3-2.6 8.3-.4.2-.5.7-.4 1s.4.6.8.6h13.7l5.7 5.7q.3.3.6.3t.6-.3c.3-.3.3-.9 0-1.2M4.8 15.9c1-1.4 2-3.9 2-8l8 8z" style="fill-rule:evenodd;clip-rule:evenodd"/><path d="M19.4 12.5c-.8-1.9-.7-3.2-.6-4.6v-.3c.1-.7.1-1.5-.1-2.4s-.7-1.7-1.5-2.5c-1.5-1.5-3.3-2-4.9-1.9-1.7.2-3.2.8-4.2 1.3-.4.3-.6.8-.4 1.2s.8.6 1.2.4c1-.5 2.2-1 3.4-1 1.2-.1 2.4.2 3.6 1.4.7.7.9 1.2 1.1 1.7.1.5.1 1.1.1 1.8v.3c-.1 1.4-.3 3.1.7 5.4.2.4.7.6 1.2.4.4-.2.6-.7.4-1.2m-4.8 7.8c-.3-.3-.9-.3-1.2 0-.6.6-1.1.7-1.6.6q-.75-.15-1.2-.6c-.3-.3-.9-.3-1.2 0s-.3.9 0 1.2c.6.6 1.3 1 2.1 1.1 1 .2 2.1-.1 3.1-1.1.3-.3.3-.9 0-1.2"/></svg>