<svg xmlns="http://www.w3.org/2000/svg" width="24" height="24" fill="none"><path fill="#000" fill-rule="evenodd" d="M2.85 18h18.299c.406 0 .711-.304.813-.607.102-.405 0-.81-.305-1.012 0 0-2.643-2.024-2.643-8.399 0-1.922-.712-3.643-2.033-4.958C15.659 1.708 13.93 1 11.999 1s-3.66.708-4.981 2.024C5.696 4.339 4.985 6.06 5.086 7.982c0 6.476-2.643 8.399-2.643 8.399-.406.202-.508.708-.406 1.012.101.303.406.607.813.607m16.367-1.821H4.781c.915-1.417 2.034-4.048 2.034-8.197 0-1.315.508-2.63 1.525-3.643.914-1.012 2.236-1.518 3.66-1.518 1.32 0 2.642.506 3.659 1.518 1.017.911 1.525 2.226 1.525 3.643 0 4.149 1.118 6.78 2.033 8.197" clip-rule="evenodd"/><path fill="#000" d="M10.619 20.381A.875.875 0 0 0 9.38 21.62a4.03 4.03 0 0 0 2.128 1.095c.991.16 2.108-.094 3.11-1.095a.875.875 0 1 0-1.238-1.238c-.598.599-1.148.677-1.59.605a2.3 2.3 0 0 1-1.172-.605Z"/></svg>