<svg xmlns="http://www.w3.org/2000/svg" xml:space="preserve" viewBox="0 0 24 24"><path d="M7 21.9c.7.1 8.9.2 9.6 0q2.1-.3 3.6-1.8c.8-.8 1.2-1.7 1.6-2.8.3-.8.2-6.4.1-6.8-.1-.3-.3-.7-.6-.9-.1-.1-.6-.1-1-.1-1 0-1-.1-1.2-.3-.4-.2-.6-.4-.6-1.2 0-1.5-.6-2.9-1.8-4.1-.9-1-1.8-1.5-3-1.8-.3-.1-.9-.2-2.9-.2-3 0-3.7 0-4.9.4-1.8.7-3.2 2.4-3.7 4.5-.1.3-.2 1-.2 4.6 0 4.5 0 5.1.3 6.1.7 2.4 2.7 4 4.7 4.4m9.4-7c.5.5.4 1.4-.3 1.7l-.7.1c-1.9 0-7 .2-7.5-.1-.3-.2-.6-.5-.7-.9s.1-.8.4-1c.3-.3.5-.3 4.4-.3 4 .1 4 .1 4.4.5M7.6 7.7c.4-.4.4-.4 2.7-.4 2 0 2 0 2.3.2.4.3.6.5.6 1 0 .4-.2.8-.6 1-.3 0-.3 0-2.3.1-1.3 0-2.1-.1-2.3-.1-.8-.3-1-1.2-.4-1.8"/></svg>