<svg xmlns="http://www.w3.org/2000/svg" xml:space="preserve" viewBox="0 0 24 24"><path d="M21.6 6.7c0-.1-.1-.3-.2-.4-.2-.3-.5-.6-.9-.8l-7-4c-.9-.5-2-.5-2.9 0l-7 4c-.4.2-.7.5-.9.8-.2.1-.2.3-.3.4-.2.4-.3.8-.3 1.3v8c0 1 .5 2 1.4 2.5l7 4c.3.2.7.3 1 .4q.45.15.9 0c.4-.1.7-.2 1-.4l7-4c.9-.5 1.4-1.5 1.4-2.5V8c.1-.5 0-.9-.2-1.3M11.1 20.8 4.4 17c-.3-.2-.6-.6-.6-1V8.3l7.2 4.2v8.3zM12 11 4.8 6.8 11.4 3c.3-.2.8-.2 1.1 0l6.7 3.8zm8.1 5c0 .4-.2.8-.6 1l-6.7 3.8v-8.3L20 8.3V16z" style="fill-rule:evenodd;clip-rule:evenodd"/></svg>