<svg xmlns="http://www.w3.org/2000/svg" xml:space="preserve" viewBox="0 0 24 24"><path d="M19.4 4.1C19 1.8 17.1 0 14.8 0c-1.1 0-2 .3-2.8 1-.8-.6-1.7-1-2.8-1C6.9 0 5 1.8 4.6 4.1c-1.8.6-3.1 2.4-3.1 4.5 0 2.5 1.8 4.5 4.2 4.8 1.7 1.9 4.2 5.1 4.2 9.9 0 .4.3.7.7.7h2.9c.4 0 .7-.3.7-.7 0-4.8 2.5-8 4.2-9.9 2.3-.2 4.2-2.3 4.2-4.8-.1-2.1-1.4-3.9-3.2-4.5m-6.7 18.4h-1.5c-.2-4.3-2.2-7.4-3.8-9.3.2-.1.5-.2.7-.3l1.8 3.2c.2.3.5.4.8.4.3-.1.5-.4.5-.7v-2.5c.2 0 .5.1.7.1s.5 0 .7-.1v2.5c0 .3.2.6.5.7s.7-.1.8-.4l1.8-3.2c.2.1.5.2.7.3-1.4 2-3.5 5-3.7 9.3m5.2-10.6c-1 0-1.8-.4-2.4-1.1-.1-.1-.3-.2-.6-.2-.2 0-.4.1-.6.2-.6.7-1.4 1.1-2.4 1.1s-1.8-.4-2.4-1.1c-.1-.1-.3-.2-.6-.2-.2 0-.4.1-.6.2-.6.7-1.4 1.1-2.4 1.1-1.7 0-3.2-1.5-3.2-3.3C2.9 7 4 5.7 5.5 5.4c.3-.1.5-.4.5-.7.1-1.8 1.5-3.2 3.2-3.2.9 0 1.7.4 2.2 1 .1.2.3.2.5.2s.4-.1.5-.2c.6-.6 1.4-1 2.2-1 1.7 0 3.1 1.4 3.2 3.2 0 .4.2.6.6.7 1.6.3 2.7 1.6 2.7 3.2 0 1.9-1.5 3.3-3.2 3.3" style="fill-rule:evenodd;clip-rule:evenodd;fill:#181d25"/></svg>