<svg xmlns="http://www.w3.org/2000/svg" xml:space="preserve" viewBox="0 0 24 24"><path d="M19 3.1h-2.1V2c0-.5-.4-.9-.9-.9s-.9.4-.9.9v1.1H8.9V2c0-.5-.4-.9-.9-.9s-.9.4-.9.9v1.1H5C3.4 3.1 2.1 4.4 2.1 6v14c0 1.6 1.3 2.9 2.9 2.9h14c1.6 0 2.9-1.3 2.9-2.9V6c0-1.6-1.3-2.9-2.9-2.9M20.1 20c0 .6-.5 1.1-1.1 1.1H5c-.6 0-1.1-.5-1.1-1.1v-9.1h16.2zm0-10.9H3.9V6c0-.6.5-1.1 1.1-1.1h2.1V6c0 .5.4.9.9.9s.9-.4.9-.9V4.9h6.2V6c0 .5.4.9.9.9s.9-.4.9-.9V4.9H19c.6 0 1.1.5 1.1 1.1z" style="fill-rule:evenodd;clip-rule:evenodd"/></svg>