<svg xmlns="http://www.w3.org/2000/svg" width="24" height="24" fill="none"><path fill="#000" fill-rule="evenodd" d="M12 8.125a4.875 4.875 0 1 0 0 9.75 4.875 4.875 0 0 0 0-9.75M8.875 13a3.125 3.125 0 1 1 6.25 0 3.125 3.125 0 0 1-6.25 0" clip-rule="evenodd"/><path fill="#000" fill-rule="evenodd" d="M9 2.125a.88.88 0 0 0-.728.39l-1.74 2.61H3A2.875 2.875 0 0 0 .125 8v11A2.875 2.875 0 0 0 3 21.875h18A2.875 2.875 0 0 0 23.875 19V8A2.875 2.875 0 0 0 21 5.125h-3.532l-1.74-2.61a.88.88 0 0 0-.728-.39zm-1.272 4.36 1.74-2.61h5.064l1.74 2.61c.162.244.435.39.728.39h4A1.125 1.125 0 0 1 22.125 8v11A1.125 1.125 0 0 1 21 20.125H3A1.125 1.125 0 0 1 1.875 19V8A1.125 1.125 0 0 1 3 6.875h4a.88.88 0 0 0 .728-.39" clip-rule="evenodd"/></svg>