<svg xmlns="http://www.w3.org/2000/svg" xml:space="preserve" viewBox="0 0 24 24"><path d="M23.5 22.4 10.3 9.2 1.6.4C1.3 0 .7 0 .4.4s-.4.9 0 1.2l3.5 3.5H3C1.4 5.1.1 6.4.1 8v11c0 1.6 1.3 2.9 2.9 2.9h17.6l1.7 1.7c.3.3.9.3 1.2 0s.3-.9 0-1.2M9.7 10.9l4.4 4.4c-.3.3-.7.5-1 .7-1.6.6-3.4-.3-4-1.9-.4-1.1-.2-2.3.6-3.2M3 20.1c-.6 0-1.1-.5-1.1-1.1V8c0-.6.5-1.1 1.1-1.1h2.6l2.8 2.8c-1.7 1.8-1.7 4.8 0 6.6 1.8 1.9 4.9 2 6.9.2l3.6 3.6z" style="fill-rule:evenodd;clip-rule:evenodd"/><path d="M9 2.1c-.5 0-.9.4-.9.9s.4.9.9.9h5.5l1.7 2.6c.2.2.4.4.7.4h4c.6 0 1.1.5 1.1 1.1v9.3c0 .5.4.9.9.9s.9-.4.9-.9V8c0-1.6-1.3-2.9-2.9-2.9h-3.5l-1.7-2.6c-.2-.2-.4-.4-.7-.4z"/></svg>