<svg xmlns="http://www.w3.org/2000/svg" xml:space="preserve" viewBox="0 0 24 24"><path d="M21.1 4.8h-3.4l-.4-1.2c-.2-.6-.6-1.1-1.1-1.4-.5-.4-1.1-.6-1.7-.6h-5c-.6 0-1.2.2-1.7.6-.5.3-.8.8-1 1.4l-.4 1.2H2.9q-1.2 0-2.1.9c-.5.5-.8 1.2-.8 2v11.8q0 1.2.9 2.1c.5.5 1.3.9 2.1.9h18.2q1.2 0 2.1-.9c.5-.5.9-1.3.9-2.1V7.7q0-1.2-.9-2.1c-.7-.5-1.4-.8-2.2-.8m1.3 14.7c0 .4-.1.7-.4.9-.2.2-.6.4-.9.4H2.9c-.4 0-.7-.1-.9-.4-.2-.2-.4-.6-.4-.9V7.7c0-.3.1-.7.4-.9s.6-.4.9-.4h4c.2 0 .3-.1.5-.2.1 0 .2-.2.3-.3l.6-1.7c.1-.3.3-.5.5-.7s.5-.3.7-.3h4.9c.3 0 .5.1.8.2.2.2.4.4.5.7l.6 1.7c.1.2.2.3.3.4s.3.2.5.2h4c.4 0 .7.1.9.4.2.2.4.6.4.9z"/><path d="M12 7.2c-1.2 0-2.3.4-3.3 1-1 .7-1.8 1.6-2.2 2.7-.5 1.1-.6 2.3-.4 3.5s.8 2.2 1.6 3.1c.8.8 1.9 1.4 3.1 1.6s2.4.1 3.5-.3c1.1-.5 2-1.2 2.7-2.2s1-2.1 1-3.3c0-1.6-.6-3.1-1.8-4.2S13.6 7.2 12 7.2m0 10.4c-.9 0-1.7-.3-2.4-.7-.7-.5-1.3-1.2-1.6-2s-.4-1.7-.3-2.5c.2-.9.6-1.6 1.2-2.3.6-.6 1.4-1 2.3-1.2s1.7-.1 2.5.3c.8.3 1.5.9 2 1.6s.7 1.6.7 2.4c0 1.2-.5 2.3-1.3 3.1s-1.9 1.3-3.1 1.3m8-8c.4 0 .8-.4.8-.8S20.4 8 20 8s-.8.4-.8.8.4.8.8.8"/></svg>