<svg xmlns="http://www.w3.org/2000/svg" width="24" height="24" fill="none"><path fill="#000" d="M3.205 5.205c.21-.211.497-.33.795-.33h16A1.125 1.125 0 0 1 21.125 6v12A1.125 1.125 0 0 1 20 19.125h-6a.875.875 0 1 0 0 1.75h6A2.875 2.875 0 0 0 22.875 18V6A2.875 2.875 0 0 0 20 3.125H4A2.875 2.875 0 0 0 1.125 6v2a.875.875 0 1 0 1.75 0V6c0-.298.119-.585.33-.795"/><path fill="#000" d="M2.097 11.18a.875.875 0 1 0-.194 1.74 8.125 8.125 0 0 1 7.178 7.177.875.875 0 1 0 1.739-.194 9.875 9.875 0 0 0-8.723-8.723"/><path fill="#000" d="M2.175 15.243a.875.875 0 0 0-.35 1.714 4.13 4.13 0 0 1 3.218 3.218.875.875 0 0 0 1.715-.35 5.88 5.88 0 0 0-4.583-4.582M2 19.125a.875.875 0 0 0 0 1.75h.01a.875.875 0 0 0 0-1.75z"/></svg>