<svg xmlns="http://www.w3.org/2000/svg" xml:space="preserve" viewBox="0 0 24 24"><path d="m23.5 18.6-1.4-4c.7-1.4 1-2.8 1-4.3 0-2.6-1-5-2.8-6.9S16 .5 13.4.5c-2.7 0-5.2 1-7.1 2.9-1.8 1.8-2.8 4.3-2.9 6.8C1.6 11.6.5 13.7.5 15.9c0 1.1.2 2.1.7 3.1l-1 2.7c-.2.5 0 1 .3 1.4.3.3.6.4.9.4.1 0 .3 0 .4-.1l2.7-1c1 .5 2 .7 3.1.7 2.3 0 4.5-1.1 5.8-2.9 1.5 0 2.8-.4 4.1-1l4 1.4c.2.1.3.1.5.1.4 0 .8-.2 1.1-.5.5-.4.6-1 .4-1.6M7.8 21.8c-1 0-1.8-.2-2.7-.7q-.3-.15-.6 0l-2.8 1 1-2.8c.1-.2 0-.4 0-.6C2.3 17.8 2 17 2 16c0-1.6.6-2.9 1.6-4 .3 2 1.3 3.9 2.8 5.4s3.4 2.4 5.4 2.7c-1 1-2.4 1.7-4 1.7m14.4-2.6s-.1.1 0 0l-4.4-1.4h-.2c-.1 0-.2 0-.3.1-1.2.7-2.5 1-4 1-4.6 0-8.3-3.7-8.4-8.3 0-2.3.9-4.5 2.4-6.1C9 2.8 11.1 1.9 13.5 2c4.6.1 8.3 3.9 8.3 8.4 0 1.4-.4 2.7-1 4q-.15.3 0 .6zc.1 0 0 0 0 0"/><path d="M17.5 6.7H9.3c-.4 0-.7.3-.7.6-.1.4.3.8.7.8h8.2c.4 0 .7-.3.7-.7s-.3-.7-.7-.7m0 2.9H9.3c-.4 0-.7.3-.7.7s.3.7.7.7h8.2c.4 0 .7-.3.7-.7s-.3-.7-.7-.7m-3.2 2.8h-5c-.4 0-.7.3-.7.7s.3.7.7.7h5c.4 0 .7-.3.7-.7s-.3-.7-.7-.7"/></svg>