<svg xmlns="http://www.w3.org/2000/svg" width="24" height="24" fill="none"><path fill="#000" d="M4.205 4.205c.21-.211.497-.33.795-.33h11a.875.875 0 0 0 0-1.75H5A2.875 2.875 0 0 0 2.125 5v14A2.875 2.875 0 0 0 5 21.875h14A2.875 2.875 0 0 0 21.875 19v-7a.875.875 0 0 0-1.75 0v7A1.125 1.125 0 0 1 19 20.125H5A1.125 1.125 0 0 1 3.875 19V5c0-.298.119-.585.33-.795"/><path fill="#000" d="M22.619 4.619A.875.875 0 0 0 21.38 3.38L12 12.763 9.619 10.38a.875.875 0 0 0-1.239 1.24l3 3a.875.875 0 0 0 1.238 0l10-10Z"/></svg>