<svg xmlns="http://www.w3.org/2000/svg" xml:space="preserve" viewBox="0 0 24 24"><path d="M18 3.1h-1.1V3c0-1-.8-1.9-1.9-1.9H9C8 1.1 7.1 2 7.1 3v.1H6C4.4 3.1 3.1 4.4 3.1 6v14c0 1.6 1.3 2.9 2.9 2.9h12c1.6 0 2.9-1.3 2.9-2.9V6c0-1.6-1.3-2.9-2.9-2.9M8.9 3c0-.1 0-.1.1-.1h6c.1 0 .1 0 .1.1v2c0 .1 0 .1-.1.1H9c-.1 0-.1 0-.1-.1zm10.2 17c0 .6-.5 1.1-1.1 1.1H6c-.6 0-1.1-.5-1.1-1.1V6c0-.6.5-1.1 1.1-1.1h1.1V5C7.1 6 8 6.9 9 6.9h6c1 0 1.9-.8 1.9-1.9v-.1H18c.6 0 1.1.5 1.1 1.1z" style="fill-rule:evenodd;clip-rule:evenodd"/></svg>