<svg xmlns="http://www.w3.org/2000/svg" xml:space="preserve" id="Layer_1" x="0" y="0" version="1.1" viewBox="0 0 24 24"><style>.st0{fill-rule:evenodd;clip-rule:evenodd}</style><path d="m22.6 7.2-5.9-5.9q-.3-.3-.6-.3H7.9c-.2 0-.5.1-.6.3L1.4 7.2c-.2.2-.3.4-.3.7v8.3c0 .2.1.5.3.6l5.9 5.9q.3.3.6.3h8.3c.2 0 .5-.1.6-.3l5.9-5.9q.3-.3.3-.6V7.9c-.1-.3-.2-.5-.4-.7m-1.5 8.6-5.3 5.3H8.2l-5.3-5.3V8.2l5.3-5.3h7.6l5.3 5.3z" class="st0"/><path d="M15.6 14.4c.3.3.3.9 0 1.2s-.9.3-1.2 0L12 13.2l-2.4 2.4c-.3.3-.9.3-1.2 0s-.3-.9 0-1.2l2.4-2.4-2.4-2.4c-.4-.3-.4-.9 0-1.2.3-.4.9-.4 1.2 0l2.4 2.4 2.4-2.4c.3-.3.9-.3 1.2 0s.3.9 0 1.2L13.2 12z" class="st0"/></svg>