<svg xmlns="http://www.w3.org/2000/svg" xml:space="preserve" id="Layer_1" x="0" y="0" version="1.1" viewBox="0 0 24 24"><style>.st0{fill-rule:evenodd;clip-rule:evenodd}</style><path d="M12 1.1C6 1.1 1.1 6 1.1 12S6 22.9 12 22.9 22.9 18 22.9 12 18 1.1 12 1.1m0 20c-5 0-9.1-4.1-9.1-9.1S7 2.9 12 2.9 21.1 7 21.1 12 17 21.1 12 21.1" class="st0"/><path d="M15.6 14.4c.3.3.3.9 0 1.2s-.9.3-1.2 0L12 13.2l-2.4 2.4c-.3.3-.9.3-1.2 0s-.3-.9 0-1.2l2.4-2.4-2.4-2.4c-.4-.3-.4-.9 0-1.2.3-.4.9-.4 1.2 0l2.4 2.4 2.4-2.4c.3-.3.9-.3 1.2 0s.3.9 0 1.2L13.2 12z" class="st0"/></svg>