<svg xmlns="http://www.w3.org/2000/svg" xml:space="preserve" id="Layer_1" x="0" y="0" version="1.1" viewBox="0 0 24 24"><style>.st0{fill-rule:evenodd;clip-rule:evenodd}</style><path d="M19 2.1H5C3.4 2.1 2.1 3.4 2.1 5v14c0 1.6 1.3 2.9 2.9 2.9h14c1.6 0 2.9-1.3 2.9-2.9V5c0-1.6-1.3-2.9-2.9-2.9M20.1 19c0 .6-.5 1.1-1.1 1.1H5c-.6 0-1.1-.5-1.1-1.1V5c0-.6.5-1.1 1.1-1.1h14c.6 0 1.1.5 1.1 1.1z" class="st0"/><path d="M15.6 14.4c.3.3.3.9 0 1.2s-.9.3-1.2 0L12 13.2l-2.4 2.4c-.3.3-.9.3-1.2 0s-.3-.9 0-1.2l2.4-2.4-2.4-2.4c-.4-.3-.4-.9 0-1.2.3-.4.9-.4 1.2 0l2.4 2.4 2.4-2.4c.3-.3.9-.3 1.2 0s.3.9 0 1.2L13.2 12z" class="st0"/></svg>