<svg xmlns="http://www.w3.org/2000/svg" xml:space="preserve" viewBox="0 0 24 24"><path d="M12.2.7c-4.6-1.8-9.7.5-11.5 5-1.4 3.6-.3 7.7 2.7 10.2.4.3.9.2 1.2-.1s.2-.9-.1-1.2c-3-2.5-3.5-7-1.1-10s6.9-3.6 10-1.1c1.2 1 2.1 2.3 2.5 3.8.1.4.4.7.8.7H18c2.3 0 4.1 1.9 4.1 4.1 0 1.6-1 3.1-2.5 3.8-.4.2-.6.7-.5 1.2.2.4.7.6 1.2.5 3-1.3 4.3-4.8 3-7.7-.9-2.1-3-3.5-5.4-3.5h-.6c-.8-2.7-2.6-4.7-5.1-5.7"/><path d="M8.9 13c0-.5-.4-.9-.9-.9s-.9.4-.9.9v8c0 .5.4.9.9.9s.9-.4.9-.9zm8 0c0-.5-.4-.9-.9-.9s-.9.4-.9.9v8c0 .5.4.9.9.9s.9-.4.9-.9zM12 14.1c.5 0 .9.4.9.9v8c0 .5-.4.9-.9.9s-.9-.4-.9-.9v-8c0-.5.4-.9.9-.9"/></svg>