<svg xmlns="http://www.w3.org/2000/svg" width="24" height="24" fill="none"><path fill="#000" fill-rule="evenodd" d="M5.83 3.645a9.1 9.1 0 0 1 4.866-.334c1.668.333 3.11 1.113 4.317 2.21 1.082.984 1.8 2.278 2.251 3.573h.66a5.95 5.95 0 0 1 4.203 1.74c1.195 1.085 1.772 2.626 1.772 4.135 0 1.548-.703 3.057-1.74 4.102-1.085 1.195-2.626 1.773-4.135 1.773h-9a8.75 8.75 0 0 1-4.658-1.33c-1.46-.899-2.557-2.228-3.312-3.63C.253 14.396.044 12.719.15 11.11c.113-1.698.79-3.257 1.773-4.566a8.4 8.4 0 0 1 3.906-2.9Zm4.522 1.382a7.33 7.33 0 0 0-3.934.266 6.65 6.65 0 0 0-3.094 2.3c-.818 1.091-1.34 2.333-1.427 3.634-.093 1.392.098 2.714.698 3.827.645 1.198 1.548 2.268 2.688 2.97a7 7 0 0 0 3.741 1.07h9c1.084 0 2.136-.417 2.85-1.21l.031-.034c.754-.754 1.244-1.838 1.244-2.881 0-1.084-.417-2.136-1.21-2.85a4.2 4.2 0 0 0-3.015-1.275h-1.3a.875.875 0 0 1-.841-.635c-.372-1.303-1.007-2.537-1.947-3.393-.994-.903-2.152-1.523-3.484-1.79Z" clip-rule="evenodd"/></svg>