<svg xmlns="http://www.w3.org/2000/svg" width="24" height="24" fill="none"><path fill="#000" d="M11.955 1.529a8.76 8.76 0 0 0-3.952-.302c-1.368.21-2.593.835-3.67 1.618l-.031.024c-1.008.807-1.93 1.925-2.453 3.178-.495 1.189-.808 2.514-.704 3.96v.005c.101 1.316.506 2.644 1.23 3.782.727 1.142 1.752 2.055 2.946 2.752a.875.875 0 1 0 .882-1.512c-.998-.582-1.8-1.313-2.351-2.18-.555-.87-.88-1.915-.962-2.974-.079-1.11.157-2.158.574-3.16.389-.932 1.104-1.818 1.916-2.472.927-.672 1.889-1.138 2.89-1.292a7 7 0 0 1 3.17.246 5.7 5.7 0 0 1 2.653 1.7 5.67 5.67 0 0 1 1.501 2.683.875.875 0 0 0 .853.678h1.187c.961 0 1.853.37 2.524.966a3.64 3.64 0 0 1 1.177 2.402c.141.916-.133 1.788-.674 2.561a3.36 3.36 0 0 1-2.166 1.374.875.875 0 0 0 .287 1.726 5.1 5.1 0 0 0 3.313-2.096c.733-1.047 1.188-2.355.975-3.801a5.4 5.4 0 0 0-1.75-3.474 5.56 5.56 0 0 0-3.686-1.408h-.528a7.5 7.5 0 0 0-1.76-2.832 7.46 7.46 0 0 0-3.39-2.152Z"/><path fill="#000" d="M13.887 11.527a.875.875 0 1 0-1.456-.971l-3.653 5.48a.875.875 0 0 0 .728 1.36h3.845l-2.747 4.119a.875.875 0 0 0 1.457.97l3.653-5.48a.875.875 0 0 0-.728-1.36H11.14z"/></svg>