<svg xmlns="http://www.w3.org/2000/svg" xml:space="preserve" viewBox="0 0 24 24"><path d="M24.1 14.5c-.1-1-.5-1.9-.9-2.7l-.1-.1c-.5-.7-1.2-1.5-2.1-1.9-.9-.6-1.9-.8-2.9-.8h-.5c-.5-1.5-1.5-2.8-2.7-3.8-1.3-1.2-3.1-2-5-2.2-.5 0-1 .4-1.1.9 0 .5.4 1 .9 1.1 1.5.1 2.7.7 3.8 1.6 1.2 1 1.9 2.2 2.3 3.6.1.5.5.8 1 .8h1.3c.7 0 1.3.2 1.8.5.1 0 .1.1.2.1.5.2.9.6 1.4 1.2.3.6.6 1.2.6 1.9.1.6-.1 1.2-.3 1.9-.2.5.1 1.1.6 1.3s1.1-.1 1.3-.6c.3-.8.5-1.8.4-2.8m-.3 7.8L20.5 19 5.8 4.3l-4-4C1.4-.1.8-.1.4.3s-.4 1 0 1.4l3.1 3.1C2.3 5.8 1.3 7 .7 8.5c-.8 1.8-.9 3.9-.5 5.8.5 1.9 1.7 3.6 3.2 4.9C5.1 20.5 7.1 21 9.1 21h9c.5 0 1 0 1.4-.2l2.9 2.9c.4.4 1 .4 1.4 0s.4-1 0-1.4M9.1 19c-1.6 0-3.2-.5-4.4-1.4-1.2-1-2.1-2.3-2.5-3.8-.3-1.5-.2-3.2.4-4.5.4-1.2 1.3-2.2 2.4-3L17.7 19z" style="fill-rule:evenodd;clip-rule:evenodd"/></svg>