<svg xmlns="http://www.w3.org/2000/svg" width="24" height="24" fill="none"><path fill="#000" d="M8.095 1.17a8.875 8.875 0 0 1 9.295 5.955h.611a5.875 5.875 0 0 1 2.35 11.256.875.875 0 0 1-.702-1.602 4.125 4.125 0 0 0-1.65-7.904H16.74a.875.875 0 0 1-.847-.656 7.125 7.125 0 1 0-11.347 7.347.875.875 0 1 1-1.092 1.367A8.875 8.875 0 0 1 8.095 1.171Z"/><path fill="#000" d="M7.125 16c0-.483.392-.875.875-.875h.01a.875.875 0 0 1 0 1.75H8A.875.875 0 0 1 7.125 16M8 19.125a.875.875 0 0 0 0 1.75h.01a.875.875 0 0 0 0-1.75zM11.125 18c0-.483.392-.875.875-.875h.01a.875.875 0 0 1 0 1.75H12a.875.875 0 0 1-.875-.875M12 21.125a.875.875 0 0 0 0 1.75h.01a.875.875 0 0 0 0-1.75zM15.125 16c0-.483.392-.875.875-.875h.01a.875.875 0 0 1 0 1.75H16a.875.875 0 0 1-.875-.875M16 19.125a.875.875 0 0 0 0 1.75h.01a.875.875 0 0 0 0-1.75z"/></svg>