<svg xmlns="http://www.w3.org/2000/svg" xml:space="preserve" viewBox="0 0 24 24"><path d="M6.9 1c0-.5-.4-.9-.9-.9s-.9.4-.9.9v3c0 .5.4.9.9.9s.9-.4.9-.9z"/><path d="M19 7.1H2c-.5 0-.9.4-.9.9v9c0 2.7 2.2 4.9 4.9 4.9h8c2.7 0 4.9-2.2 4.9-4.9v-.1h.1c2.7 0 4.9-2.2 4.9-4.9S21.7 7.1 19 7.1M17.1 17c0 1.7-1.4 3.1-3.1 3.1H6c-1.7 0-3.1-1.4-3.1-3.1V8.9h14.2zm1.9-1.9h-.1V8.9h.1c1.7 0 3.1 1.4 3.1 3.1s-1.4 3.1-3.1 3.1" style="fill-rule:evenodd;clip-rule:evenodd"/><path d="M10 .1c-.5 0-.9.4-.9.9v3c0 .5.4.9.9.9s.9-.4.9-.9V1c0-.5-.4-.9-.9-.9m4 0c-.5 0-.9.4-.9.9v3c0 .5.4.9.9.9s.9-.4.9-.9V1c0-.5-.4-.9-.9-.9"/></svg>