<svg xmlns="http://www.w3.org/2000/svg" width="24" height="24" fill="none"><path fill="#000" fill-rule="evenodd" d="M3.26 3.26A3.875 3.875 0 0 1 9.875 6v2.125h4.25V6A3.875 3.875 0 1 1 18 9.875h-2.125v4.25H18A3.875 3.875 0 1 1 14.125 18v-2.125h-4.25V18A3.875 3.875 0 1 1 6 14.125h2.125v-4.25H6A3.875 3.875 0 0 1 3.26 3.26m4.865 4.865V6A2.125 2.125 0 1 0 6 8.125zm1.75 1.75v4.25h4.25v-4.25zm-1.75 6H6A2.125 2.125 0 1 0 8.125 18zm7.75 0V18A2.125 2.125 0 1 0 18 15.875zm0-7.75H18A2.125 2.125 0 1 0 15.875 6z" clip-rule="evenodd"/></svg>