<svg xmlns="http://www.w3.org/2000/svg" xml:space="preserve" viewBox="0 0 24 24"><path d="M23.2 16.1h-1.1V5.6c0-.6-.2-1.2-.7-1.6-.4-.4-1-.7-1.6-.7H4.1c-.6.1-1.1.3-1.6.7-.4.5-.6 1-.6 1.6v10.5H.8c-.2 0-.4.1-.5.2q-.3.3-.3.6v.8c0 .8.3 1.6.9 2.1q.9.9 2.1.9h18c.8 0 1.6-.3 2.1-.9q.9-.9.9-2.1v-.8c0-.2-.1-.4-.2-.5q-.3-.3-.6-.3M3.4 5.6c0-.2.1-.4.2-.5s.3-.2.5-.2h15.8c.2 0 .4.1.5.2s.2.3.2.5v10.5h-4.9c-.2 0-.4.1-.5.2s-.2.3-.2.5H9c0-.2-.1-.4-.2-.5s-.3-.2-.5-.2H3.4zM21 19.1H3c-.4 0-.8-.2-1.1-.4s-.4-.7-.4-1.1h6c0 .2.1.4.2.5s.3.2.5.2h7.5c.2 0 .4-.1.5-.2s.2-.3.2-.5h6c0 .4-.2.8-.4 1.1s-.6.4-1 .4"/></svg>