<svg xmlns="http://www.w3.org/2000/svg" width="24" height="24" fill="none"><path fill="#000" fill-rule="evenodd" d="M17.07 8.037a.875.875 0 0 0-1.107-1.107l-6.36 2.12a.88.88 0 0 0-.553.553l-2.12 6.36a.875.875 0 0 0 1.107 1.107l6.36-2.12a.88.88 0 0 0 .553-.553zm-7.926 6.82 1.428-4.285 4.285-1.428-1.429 4.284z" clip-rule="evenodd"/><path fill="#000" fill-rule="evenodd" d="M12 1.125C5.994 1.125 1.125 5.994 1.125 12S5.994 22.875 12 22.875 22.875 18.006 22.875 12 18.006 1.125 12 1.125M2.875 12a9.125 9.125 0 1 1 18.25 0 9.125 9.125 0 0 1-18.25 0" clip-rule="evenodd"/></svg>