<svg xmlns="http://www.w3.org/2000/svg" width="24" height="24" fill="none"><path fill="#000" d="M3.204 3.204A1.13 1.13 0 0 1 4 2.875h9A1.125 1.125 0 0 1 14.125 4v1a.875.875 0 0 0 1.75 0V4A2.875 2.875 0 0 0 13 1.125H4A2.875 2.875 0 0 0 1.125 4v9A2.875 2.875 0 0 0 4 15.875h1a.875.875 0 0 0 0-1.75H4A1.125 1.125 0 0 1 2.875 13V4c0-.298.119-.585.33-.796Z"/><path fill="#000" fill-rule="evenodd" d="M11 8.125A2.875 2.875 0 0 0 8.125 11v9A2.875 2.875 0 0 0 11 22.875h9A2.875 2.875 0 0 0 22.875 20v-9A2.875 2.875 0 0 0 20 8.125zM9.875 11c0-.621.504-1.125 1.125-1.125h9c.621 0 1.125.504 1.125 1.125v9c0 .621-.504 1.125-1.125 1.125h-9A1.125 1.125 0 0 1 9.875 20z" clip-rule="evenodd"/></svg>