<svg xmlns="http://www.w3.org/2000/svg" xml:space="preserve" id="Layer_1" x="0" y="0" version="1.1" viewBox="0 0 24 24"><style>.st0{fill-rule:evenodd;clip-rule:evenodd}</style><path d="M21 3H3C1.3 3 0 4.3 0 6v12c0 1.7 1.3 3 3 3h18c1.7 0 3-1.3 3-3V6c0-1.7-1.3-3-3-3m1.2 15c0 .7-.6 1.2-1.2 1.2H3c-.7 0-1.2-.6-1.2-1.2V6c0-.7.6-1.2 1.2-1.2h18c.7 0 1.2.6 1.2 1.2z" class="st0"/><path d="M7 16.1H4c-.5 0-.9.4-.9.9s.4.9.9.9h3c.5 0 .9-.4.9-.9s-.4-.9-.9-.9m13-9H4c-.5 0-.9.4-.9.9s.4.9.9.9h16c.5 0 .9-.4.9-.9s-.4-.9-.9-.9" class="st0"/></svg>