<svg xmlns="http://www.w3.org/2000/svg" xml:space="preserve" viewBox="0 0 24 24"><path d="M20.8 3.1c-.6-.4-1.3-.8-2.2-1.1-1.7-.6-4.1-.9-6.6-.9s-4.9.4-6.6.9c-.9.3-1.7.7-2.2 1.1s-1 1.1-1 1.9v14c0 .8.5 1.4 1 1.8.6.5 1.3.8 2.2 1.1 1.7.6 4.1.9 6.7.9s4.9-.3 6.7-.9c.9-.3 1.6-.7 2.2-1.1s1-1 1-1.8V5c-.1-.8-.6-1.4-1.2-1.9M4.2 4.5c.4-.3 1-.5 1.7-.8 1.5-.5 3.7-.8 6.1-.8s4.6.3 6.1.8c.8.2 1.3.5 1.7.8.3.3.3.5.3.5s0 .2-.4.5c-.3.3-.9.6-1.7.8-1.5.5-3.7.8-6.1.8s-4.5-.3-6-.8c-.7-.3-1.3-.5-1.7-.8-.3-.3-.3-.5-.3-.5s0-.2.3-.5M20.1 19s0 .2-.4.5c-.3.3-.9.6-1.7.8-1.5.5-3.7.8-6.1.8s-4.6-.3-6.1-.8c-.8-.2-1.3-.5-1.7-.8-.2-.3-.2-.5-.2-.5v-4.7q.75.45 1.5.6c1.7.6 4.1.9 6.7.9s4.9-.3 6.7-.9l1.5-.6V19zm-.3-6.5c-.3.3-.9.6-1.7.8-1.5.5-3.7.8-6.1.8s-4.6-.3-6.1-.8c-.8-.2-1.3-.5-1.7-.8-.3-.3-.3-.5-.3-.5V7.3c.5.2 1 .5 1.5.6 1.7.6 4.1 1 6.6 1s4.9-.3 6.6-.9l1.5-.6v4.7c0-.1 0 .1-.3.4" style="fill-rule:evenodd;clip-rule:evenodd"/></svg>