<svg xmlns="http://www.w3.org/2000/svg" xml:space="preserve" viewBox="0 0 24 24"><path d="M1 4c0-.4.3-.8.8-.8h11.7c.4 0 .8.4.8.8v.3h4.5c.3 0 .5.1.7.4l3.2 5.4c.1.1.1.3.1.4V17c0 .4-.3.8-.8.8h-1.4c-.3 1.2-1.4 2.2-2.9 2.2-1.4 0-2.5-.9-2.9-2.2H10C9.6 19.1 8.5 20 7.2 20s-2.5-.9-2.9-2.2H2.9c-.5 0-.9-.4-.9-.8v-4.3c0-.4.3-.8.8-.8.4 0 .8.4.8.8v3.5h.6c.4-1.2 1.5-2.2 3-2.2 1.3 0 2.5.9 2.9 2.2h2.8V4.9h-11Q1 4.9 1 4m13.4 2v3.7h6.4L18.5 6zm7 5.4h-7v4.8h.6c.3-1.2 1.4-2.2 2.9-2.2 1.4 0 2.5.9 2.9 2.2h.6zM2 8.4c0-.4.3-.9.9-.9h4.3c.4 0 .8.5.8.9s-.3.8-.8.8H2.9c-.5 0-.9-.3-.9-.8m5.2 7.3c-.7 0-1.3.6-1.3 1.3s.6 1.3 1.3 1.3 1.3-.6 1.3-1.3-.6-1.3-1.3-1.3m10.7 0c-.7 0-1.3.6-1.3 1.3s.6 1.3 1.3 1.3 1.3-.6 1.3-1.3-.6-1.3-1.3-1.3" style="fill-rule:evenodd;clip-rule:evenodd;fill:#181d25"/></svg>