<svg xmlns="http://www.w3.org/2000/svg" xml:space="preserve" viewBox="0 0 24 24"><path d="m22.9 10.4-3.4-5.8c-.2-.3-.4-.4-.7-.4H14v-.3c0-.5-.4-.9-.9-.9H3c-.5 0-1 .2-1.4.6S1 4.5 1 5v12.8c0 .5.4.9.8.9h1.5C3.7 20 4.9 21 6.4 21c1.4 0 2.6-1 3-2.3h5.3c.4 1.3 1.6 2.3 3 2.3s2.6-1 3-2.3h1.5c.5 0 .8-.4.8-.9v-7c0-.1 0-.3-.1-.4M6.4 19.3c-.8 0-1.4-.7-1.4-1.5s.6-1.5 1.4-1.5 1.4.7 1.4 1.5-.7 1.5-1.4 1.5m5.9-2.4h-3c-.4-1.3-1.6-2.3-3-2.3s-2.6 1-3 2.3h-.6V5c0-.1 0-.2.1-.2 0 0 .1-.1.2-.1h9.3zm1.7-11h4.3l2.4 4.1H14zm3.6 13.4c-.8 0-1.4-.7-1.4-1.5s.6-1.5 1.4-1.5 1.4.7 1.4 1.5-.6 1.5-1.4 1.5m3.7-2.4h-.7c-.4-1.3-1.6-2.3-3-2.3s-2.6 1-3 2.3H14v-5.2h7.3z" style="fill-rule:evenodd;clip-rule:evenodd"/></svg>