<svg xmlns="http://www.w3.org/2000/svg" xml:space="preserve" viewBox="0 0 24 24"><path d="M5.3 17c5.2 2 9.7 2.4 14.7-.7 0 .1-1 1.5-3.7 2.3.6.8 1.3 1.6 1.3 1.6 1.7 0 3.3-.5 4.7-1.4 1.1-.7 1.7-2 1.6-3.3-.2-2.3-.8-4.5-1.6-6.6-1.1-2.8-3.6-4.7-6.5-5h-.6l-.2.2c3.4 1 5.1 2.5 5.1 2.5C15 4 8.8 4 3.6 6.5c0 0 1.7-1.6 5.3-2.5l-.2-.2c-.4 0-.8 0-1.1.1-2.7.5-5 2.3-6 4.9C.8 11 .2 13.3 0 15.6c-.1 1.3.5 2.5 1.5 3.2 1.4.9 3 1.4 4.6 1.4 0 0 .7-.9 1.3-1.6C5 17.9 4 16.4 4 16.3l.5.2c.2.2.5.3.8.5m2.9-1.7c-1.2 0-2.1-1.1-2.1-2.3 0-1.1 1-2.1 2.1-2.1 1.2 0 2.1 1.1 2.1 2.3-.1 1.2-1 2.1-2.1 2.1m7.6 0c-1.2 0-2.1-1.1-2.1-2.3 0-1.1 1-2.1 2.1-2.1 1.2 0 2.1 1.1 2.1 2.3s-1 2.1-2.1 2.1"/></svg>