<svg xmlns="http://www.w3.org/2000/svg" width="24" height="24" fill="none"><path fill="#000" fill-rule="evenodd" d="M9.125 6a2.875 2.875 0 1 1 5.75 0 2.875 2.875 0 0 1-5.75 0M12 4.875a1.125 1.125 0 1 0 0 2.25 1.125 1.125 0 0 0 0-2.25" clip-rule="evenodd"/><path fill="#000" d="M4.125 12c0-.483.392-.875.875-.875h14a.875.875 0 0 1 0 1.75H5A.875.875 0 0 1 4.125 12"/><path fill="#000" fill-rule="evenodd" d="M12 15.125a2.875 2.875 0 1 0 0 5.75 2.875 2.875 0 0 0 0-5.75M10.875 18a1.125 1.125 0 1 1 2.25 0 1.125 1.125 0 0 1-2.25 0" clip-rule="evenodd"/></svg>