<svg xmlns="http://www.w3.org/2000/svg" width="24" height="24" fill="none"><path fill="#000" d="M12.875 3a.875.875 0 0 0-1.75 0v9.888L7.619 9.38a.875.875 0 0 0-1.239 1.24l5 5a.87.87 0 0 0 .614.256h.01a.87.87 0 0 0 .614-.256l5-5a.875.875 0 0 0-1.238-1.24l-3.506 3.507z"/><path fill="#000" d="M3 14.125c.483 0 .875.392.875.875v4A1.125 1.125 0 0 0 5 20.125h14A1.125 1.125 0 0 0 20.125 19v-4a.875.875 0 0 1 1.75 0v4A2.875 2.875 0 0 1 19 21.875H5A2.875 2.875 0 0 1 2.125 19v-4c0-.483.392-.875.875-.875"/></svg>