<svg xmlns="http://www.w3.org/2000/svg" width="24" height="24" fill="none"><path fill="#000" d="M12.576 2.87a8.875 8.875 0 0 0-10.232 14 .875.875 0 1 0 1.31-1.16 7.125 7.125 0 1 1 12.238-6.493.875.875 0 0 0 .847.658H18a4.125 4.125 0 0 1 2.377 7.5.875.875 0 0 0 1.006 1.43 5.875 5.875 0 0 0-3.384-10.68h-.607a8.87 8.87 0 0 0-4.815-5.255Z"/><path fill="#000" d="M12 11.125c.482 0 .874.392.874.875v6.888l2.506-2.507a.875.875 0 0 1 1.238 1.238l-4 4a.87.87 0 0 1-1.238 0l-4-4a.875.875 0 1 1 1.238-1.238l2.506 2.507V12c0-.483.392-.875.875-.875Z"/></svg>