<svg xmlns="http://www.w3.org/2000/svg" xml:space="preserve" viewBox="0 0 24 24"><path d="M12 23c6.1 0 11-4.9 11-11S18.1 1 12 1 1 5.9 1 12s4.9 11 11 11m0-20.6c5.3 0 9.6 4.3 9.6 9.6s-4.3 9.6-9.6 9.6-9.6-4.3-9.6-9.6S6.7 2.4 12 2.4"/><path d="M17.3 5.6C15.8 4.4 14 3.7 12 3.7c-.6 0-1.1.1-1.7.2 1 1.4 1.9 2.9 2.7 4.4 1.5-.7 3-1.6 4.3-2.7m-2.7 6.3c1.8-.4 3.7-.4 5.6-.1 0-1.9-.8-3.7-2-5.1-1.4 1.2-3 2.2-4.6 3 .4.6.7 1.4 1 2.2m-2.9-3c-.8-1.6-1.7-3.1-2.8-4.6-2.5 1-4.4 3.2-5 5.8 2.7.2 5.4-.3 7.8-1.2m1.6 3.3-.9-2.1c-2.4.9-4.9 1.4-7.5 1.4H3.8v.5c0 2 .7 3.9 1.9 5.3 2-2.4 4.6-4.2 7.6-5.1m1.8 1c.7 1.8 1.2 3.7 1.5 5.6 1.9-1.3 3.2-3.4 3.5-5.6-1.6-.4-3.3-.3-5 0m-8.4 5.1c2.4 2.1 5.8 2.5 8.7 1.2-.4-2-.9-4.1-1.6-6-2.8.8-5.3 2.5-7.1 4.8"/></svg>