<svg xmlns="http://www.w3.org/2000/svg" width="24" height="24" fill="none"><path fill="#000" fill-rule="evenodd" d="M1.967 3.967c.54-.54 1.27-.842 2.033-.842h7a.875.875 0 0 1 0 1.75H4A1.125 1.125 0 0 0 2.875 6v14A1.125 1.125 0 0 0 4 21.125h14A1.125 1.125 0 0 0 19.125 20v-7a.875.875 0 1 1 1.75 0v7A2.875 2.875 0 0 1 18 22.875H4A2.875 2.875 0 0 1 1.125 20V6c0-.763.303-1.494.842-2.033" clip-rule="evenodd"/><path fill="#000" fill-rule="evenodd" d="M20 2.754c-.33 0-.648.131-.881.365L9.79 12.447l-.587 2.35 2.35-.587 9.327-9.33A1.246 1.246 0 0 0 20 2.754m-2.119-.873A2.996 2.996 0 1 1 22.12 6.12l-9.5 9.5a.9.9 0 0 1-.407.23l-4 1a.875.875 0 0 1-1.06-1.061l1-4a.9.9 0 0 1 .23-.407l9.5-9.5Z" clip-rule="evenodd"/></svg>