<svg xmlns="http://www.w3.org/2000/svg" xml:space="preserve" viewBox="0 0 24 24"><path d="M3.2 6.8c.3-.3.4-.3 1.8-.3 2.8 0 3.5.3 3.5-1.3 0-4.2 0-4.1.2-4.6-.1 0-.3.3-5.5 6.2q-.15 0 0 0"/><path d="M3 12.3c.5 2.3 1.5 3 1.5 3 1.9 2 5 2.4 6.1 1.9 1.2-.7 1.8-3.6 1.8-3.6.1 1.9 2.1 2.5 2.8 2.6.1 0 .3 0 .5.1 2.5.6 2.4 3 2.4 2.9 0 2.1-2.3 3.2-3.6 1.9-.4-.4-.4-1.1 0-1.6.2-.2.6-.1.9-.3.4-.3.4-.8.4-.7 0-1.8-3.7-.7-3.7 2.1 0 4.3 8.2 5 9.2-2.6.1 0 .7-6.4-.4-12.9-.5-2.7-3-2.9-4.1-3-1.1-.2-3.3-.5-3.3-.5S13.3.4 12.1.1c-.7-.2-.8-.2-1.6-.2-.9 0-1.6.6-1.6 1.4.2 4.2.4 4.8-.2 5.6-.7.6-1.8.3-5.1.4-.6.1-1.3.7-1.3 1.8.1 1 .5 2.4.7 3.2M16.4 11c.4-1.1 2.3-.8 2.4.3 0 .1 0 .3-.1.3-.3 0-2.3-.1-2.4-.4.1 0 .1-.1.1-.2"/></svg>