<svg xmlns="http://www.w3.org/2000/svg" xml:space="preserve" id="Layer_1" x="0" y="0" version="1.1" viewBox="0 0 24 24"><style>.st0{fill-rule:evenodd;clip-rule:evenodd}</style><path d="M18 12.1c-.5 0-.9.4-.9.9v6c0 .6-.5 1.1-1.1 1.1H5c-.6 0-1.1-.5-1.1-1.1V8c0-.6.5-1.1 1.1-1.1h6c.5 0 .9-.4.9-.9s-.4-.9-.9-.9H5C3.4 5.1 2.1 6.4 2.1 8v11c0 1.6 1.3 2.9 2.9 2.9h11c1.6 0 2.9-1.3 2.9-2.9v-6c0-.5-.4-.9-.9-.9" class="st0"/><path d="M21.9 3v6c0 .5-.4.9-.9.9s-.9-.4-.9-.9V5.1l-9.5 9.5c-.3.3-.9.3-1.2 0s-.3-.9 0-1.2l9.5-9.5H15c-.5 0-.9-.4-.9-.9s.4-.9.9-.9h6c.2 0 .5.1.6.3s.3.4.3.6" class="st0"/></svg>