<svg xmlns="http://www.w3.org/2000/svg" viewBox="0 0 24 24"><path d="M23.8 11.6c-.1-.1-.1-.3-.2-.4-.8-1.4-1.7-2.7-2.8-3.8-1.9-2.1-4.9-4.3-8.8-4.3-.8 0-1.5.1-2.3.3-.5.1-.8.6-.7 1.1s.6.8 1.1.6c.6-.1 1.3-.2 1.9-.2 3.2 0 5.7 1.8 7.5 3.7 1 1 1.8 2.2 2.5 3.4-.5.9-1.1 1.8-1.8 2.6-.3.4-.3.9.1 1.2s.9.3 1.2-.1c.9-1 1.6-2.2 2.3-3.3.1-.2.1-.5 0-.8m-.2 10.8L10.5 9.3 6.8 5.5l-.2-.1-5-5C1.3 0 .7 0 .4.4c-.4.3-.4.9 0 1.2L4.8 6C3 7.6 1.4 9.5.3 11.6c-.1.2-.1.5 0 .8.1.1.1.2.2.4.8 1.4 1.7 2.7 2.8 3.8 1.9 2.1 4.9 4.3 8.8 4.3 2.1 0 4.1-.7 5.8-1.8l4.5 4.5c.3.3.9.3 1.2 0 .4-.3.4-.9 0-1.2M10 11.2l2.8 2.8c-.8.3-1.7.1-2.3-.5-.7-.6-.8-1.5-.5-2.3m2 7.9c-3.1 0-5.7-1.8-7.5-3.7-1-1-1.8-2.2-2.5-3.4 1-1.8 2.4-3.4 4-4.8l2.7 2.7-.3.6c-.7 1.5-.3 3.3.9 4.4 1.3 1.2 3.3 1.4 4.8.4l2.5 2.5c-1.4.8-3 1.3-4.6 1.3"/></svg>