<svg xmlns="http://www.w3.org/2000/svg" viewBox="0 0 24 24"><path d="M23.8 11.6c-.1-.1-.1-.3-.2-.4-.8-1.4-1.7-2.7-2.8-3.8-1.9-2.1-4.9-4.3-8.8-4.3S5.2 5.3 3.2 7.4c-1.1 1.2-2 2.4-2.8 3.8-.1.1-.1.2-.2.4s-.1.5 0 .8v.1c.2.4.5.8.7 1.2.7 1 1.4 2 2.2 2.9 1.9 2.1 4.9 4.3 8.8 4.3s6.8-2.2 8.8-4.3c1.1-1.2 2-2.4 2.8-3.8.1-.1.1-.2.2-.4.2-.3.2-.6.1-.8m-4.3 3.8c-1.8 1.9-4.3 3.7-7.5 3.7s-5.7-1.8-7.5-3.7c-1-1-1.8-2.2-2.5-3.4.7-1.2 1.5-2.4 2.5-3.4C6.3 6.7 8.8 4.9 12 4.9s5.7 1.8 7.5 3.7c1 1 1.8 2.2 2.5 3.4-.7 1.2-1.5 2.4-2.5 3.4"/><path d="M12 8.1c-2.2 0-3.9 1.8-3.9 3.9s1.7 3.9 3.9 3.9 3.9-1.7 3.9-3.9-1.7-3.9-3.9-3.9m0 6c-1.1 0-2.1-1-2.1-2.1s.9-2.1 2.1-2.1 2.1 1 2.1 2.1-1 2.1-2.1 2.1"/></svg>