<svg xmlns="http://www.w3.org/2000/svg" xml:space="preserve" id="Layer_1" x="0" y="0" version="1.1" viewBox="0 0 24 24"><style>.st0{fill-rule:evenodd;clip-rule:evenodd}</style><path d="m20.6 7.4-6-6q-.3-.3-.6-.3H6c-.8 0-1.5.3-2 .9-.6.5-.9 1.2-.9 2v16c0 1.6 1.3 2.9 2.9 2.9h12c1.6 0 2.9-1.3 2.9-2.9V8c0-.2-.1-.5-.3-.6m-5.7-3.3 3 3h-3zM19.1 20c0 .6-.5 1.1-1.1 1.1H6c-.6 0-1.1-.5-1.1-1.1V4c0-.6.5-1.1 1.1-1.1h7.1V8c0 .5.4.9.9.9h5.1z" class="st0"/><path d="M15.9 15c0 .5-.4.9-.9.9h-2.1V18c0 .5-.4.9-.9.9s-.9-.4-.9-.9v-2.1H9c-.5 0-.9-.4-.9-.9s.4-.9.9-.9h2.1V12c0-.5.4-.9.9-.9s.9.4.9.9v2.1H15c.5 0 .9.4.9.9" class="st0"/></svg>