<svg xmlns="http://www.w3.org/2000/svg" xml:space="preserve" viewBox="0 0 24 24"><path d="M19.8 1.1H4.2c-1.7 0-3.1 1.4-3.1 3.1v15.6c0 1.7 1.4 3.1 3.1 3.1h15.6c1.7 0 3.1-1.4 3.1-3.1V4.2c0-1.7-1.4-3.1-3.1-3.1m-13.7 20H4.2c-.7 0-1.3-.6-1.3-1.3v-1.9h3.2zm0-5H2.9v-3.2h3.2zm0-5H2.9V7.9h3.2zm0-5H2.9V4.2c0-.7.6-1.3 1.3-1.3h1.9zm10 15H7.9v-8.2h8.2zm0-10H7.9V2.9h8.2zm5 8.7c0 .7-.6 1.3-1.3 1.3h-1.9v-3.2h3.2zm0-3.7h-3.2v-3.2h3.2zm0-5h-3.2V7.9h3.2zm0-5h-3.2V2.9h1.9c.7 0 1.3.6 1.3 1.3z" style="fill-rule:evenodd;clip-rule:evenodd"/></svg>