<svg xmlns="http://www.w3.org/2000/svg" xml:space="preserve" viewBox="0 0 24 24"><path d="M20 2.1c-.2 0-.4.1-.6.2l-.1.1c-.2.1-.3.2-.5.3-.5.2-1.4.4-2.8.4-1.3 0-2.4-.4-3.7-.9-1.2-.5-2.6-1-4.3-1-1.6 0-2.7.3-3.5.6-.3 0-.6.2-.8.3l-.3.3c-.2.1-.3.4-.3.6v19c0 .5.4.9.9.9s.9-.4.9-.9v-6.5c.1 0 .2-.1.3-.2.5-.2 1.4-.4 2.8-.4 1.3 0 2.4.4 3.7.9 1.2.5 2.6 1 4.3 1 1.6 0 2.7-.3 3.5-.6.4-.1.6-.3.8-.4.1-.1.2-.2.3-.2q.3-.3.3-.6V3c0-.5-.4-.9-.9-.9m-.9 12.4c-.1.1-.2.1-.3.2-.5.2-1.4.4-2.8.4-1.3 0-2.4-.4-3.7-.9-1.2-.5-2.6-1-4.3-1-1.4 0-2.4.2-3.1.5V3.5c.1-.1.2-.1.3-.2.5-.2 1.4-.4 2.8-.4 1.3 0 2.4.4 3.7.9 1.2.5 2.6 1 4.3 1 1.4 0 2.4-.2 3.1-.5z" style="fill-rule:evenodd;clip-rule:evenodd"/></svg>