<svg xmlns="http://www.w3.org/2000/svg" xml:space="preserve" id="Layer_1" x="0" y="0" version="1.1" viewBox="0 0 24 24"><style>.st0{fill-rule:evenodd;clip-rule:evenodd}</style><path d="M20 5.1h-8.5L9.7 2.5c-.1-.2-.4-.4-.7-.4H4c-.8 0-1.5.3-2 .9-.6.5-.9 1.2-.9 2v14c0 1.6 1.3 2.9 2.9 2.9h16c1.6 0 2.9-1.3 2.9-2.9V8c0-1.6-1.3-2.9-2.9-2.9M21.1 19c0 .6-.5 1.1-1.1 1.1H4c-.6 0-1.1-.5-1.1-1.1V5c0-.6.5-1.1 1.1-1.1h4.5l1.7 2.6c.2.2.4.4.7.4h9c.6 0 1.1.5 1.1 1.1v11z" class="st0"/><path d="M15.9 14c0 .5-.4.9-.9.9H9c-.5 0-.9-.4-.9-.9s.4-.9.9-.9h6c.5 0 .9.4.9.9" class="st0"/></svg>