<svg xmlns="http://www.w3.org/2000/svg" xml:space="preserve" viewBox="0 0 24 24"><path d="M23.1 16h-.2c-.3-5.1-3.7-9.3-8.2-10.5v-.4c0-1.5-1.1-2.8-2.6-2.8S9.4 3.6 9.4 5.1v.5C4.8 6.8 1.5 11 1.1 16H.9c-.4 0-.8.4-.8.8 0 2.6 2 4.7 4.5 4.7h14.7c2.5 0 4.6-2.1 4.6-4.7 0-.4-.4-.8-.8-.8M11 5.1c0-.7.5-1.1 1-1.1s1 .5 1 1.1v.2c-.3 0-.7-.1-1-.1s-.7 0-1 .1zM10.2 7h.1c.5-.1 1.1-.1 1.6-.1s1.1 0 1.6.1h.1c4 .8 7.2 4.5 7.5 9H2.7c.3-4.5 3.5-8.2 7.5-9m9.1 13H4.6c-1.3 0-2.5-1-2.8-2.3h20.4c-.4 1.3-1.6 2.3-2.9 2.3" style="fill-rule:evenodd;clip-rule:evenodd"/></svg>