<svg xmlns="http://www.w3.org/2000/svg" xml:space="preserve" viewBox="0 0 24 24"><path d="m23.9 17.6-1-5.4c-.3-2.5-2.4-4.3-4.9-4.3H6c-2.5 0-4.6 1.8-4.9 4.3l-1 5.4c-.5 2.7 1.5 5.2 4.2 5.3 2.6.1 4.6-2 4.6-4.5H15c0 2.5 2.1 4.6 4.6 4.5 2.8-.2 4.8-2.6 4.3-5.3m-2.6 3.3c-1.2.8-2.8.7-3.8-.3-.6-.6-1-1.4-1-2.3 0-.8-.6-1.4-1.4-1.4H8.9c-.8 0-1.4.6-1.4 1.4 0 1.7-1.4 3.2-3.2 3.1-1.6-.1-2.9-1.4-2.9-3 0-.4 0-.2 1-6 .3-1.8 1.8-3.1 3.6-3.1h12c1.8 0 3.3 1.3 3.5 3.1 0 0-.1-.4 1 5.4.3 1.3-.3 2.4-1.2 3.1"/><path d="M8.6 12.8H7.4v-1.2c0-.4-.3-.7-.7-.7s-.7.3-.7.7v1.2H4.9c-.4 0-.7.3-.7.7s.3.7.7.7H6v1.2c0 .4.3.7.7.7s.7-.3.7-.7v-1.2h1.2c.4 0 .7-.3.7-.7s-.3-.7-.7-.7m9.4-1.3c-.1-.4-.5-.7-.9-.5-.4.1-.6.5-.5.9s.5.6.9.5c.3-.2.5-.6.5-.9m1.1 1.3c-.4 0-.7.3-.7.7s.3.7.7.7.7-.3.7-.7c.1-.4-.3-.7-.7-.7m-3.7 0c-.4 0-.7.3-.7.7s.3.7.7.7.7-.3.7-.7-.3-.7-.7-.7m2.6 2.4c-.1-.4-.5-.7-.9-.5-.4.1-.6.5-.5.9s.5.6.9.5c.3-.2.5-.5.5-.9M10.2 4.9c-.3.3-.3.7 0 1s.7.3 1 0c.5-.5 1.2-.5 1.7 0 .3.3.7.3 1 0s.3-.7 0-1c-1.1-1-2.7-1-3.7 0"/><path d="M9 3.8c1.6-1.6 4.3-1.6 5.9 0 .3.3.7.3 1 0s.3-.7 0-1C13.7.6 10.2.6 8 2.8c-.3.3-.3.7 0 1s.8.3 1 0"/></svg>