<svg xmlns="http://www.w3.org/2000/svg" xml:space="preserve" viewBox="0 0 24 24"><path d="M22 6.1h-2.5c.3-.5.4-1 .4-1.6 0-1.9-1.5-3.4-3.4-3.4-2.3 0-3.7 1.7-4.5 3.3-.8-1.6-2.2-3.3-4.5-3.3-1.9 0-3.4 1.5-3.4 3.4 0 .6.2 1.1.4 1.6H2c-.5 0-.9.4-.9.9v5c0 .5.4.9.9.9h1.1V22c0 .5.4.9.9.9h16c.5 0 .9-.4.9-.9v-9.1H22c.5 0 .9-.4.9-.9V7c0-.5-.4-.9-.9-.9M7.5 2.9c1.9 0 2.9 2 3.3 3.2H7.5c-.9 0-1.6-.7-1.6-1.6s.7-1.6 1.6-1.6m3.6 18.2H4.9v-8.2h6.2zm0-10H2.9V7.9h8.2zm5.4-8.2c.9 0 1.6.7 1.6 1.6s-.7 1.6-1.6 1.6h-3.3c.4-1.3 1.4-3.2 3.3-3.2m2.6 18.2h-6.2v-8.2h6.2zm2-10h-8.2V7.9h8.2z"/></svg>