<svg xmlns="http://www.w3.org/2000/svg" xml:space="preserve" viewBox="0 0 24 24"><path d="M12 1.3C5.8 1.3.8 6.2.8 12.3c0 4.9 3.2 9 7.7 10.4.6.1.8-.2.8-.5v-1.9c-3.1.7-3.8-1.5-3.8-1.5-.5-1.3-1.2-1.6-1.2-1.6-1-.7.1-.7.1-.7 1 .1 1.6 1.2 1.6 1.2 1 1.7 2.6 1.2 3.3.9.1-.7.4-1.2.7-1.5-2.5-.3-5.1-1.2-5.1-5.4q0-1.8 1.2-3c-.2-.2-.6-1.4 0-2.9 0 0 .9-.3 3.1 1.1.9-.2 1.8-.3 2.8-.3s1.9.1 2.8.4c2.1-1.4 3.1-1.1 3.1-1.1.6 1.5.2 2.6.1 2.9.7.8 1.1 1.8 1.1 3 0 4.2-2.6 5.2-5.1 5.4.4.3.8 1 .8 2v3c0 .3.2.6.8.5 4.5-1.4 7.7-5.6 7.7-10.4-.1-6.1-5.1-11-11.3-11"/></svg>