<svg xmlns="http://www.w3.org/2000/svg" xml:space="preserve" viewBox="0 0 24 24"><path d="M12 1.1C6 1.1 1.1 6 1.1 12S6 22.9 12 22.9 22.9 18 22.9 12 18 1.1 12 1.1m9.1 10h-4.2c-.2-2.9-1.2-5.7-2.9-8 3.8.8 6.7 4.1 7.1 8m-6 0H8.9c.2-2.8 1.3-5.5 3.1-7.8 1.8 2.3 2.8 5 3.1 7.8m-5.1-8c-1.6 2.4-2.6 5.1-2.8 8H2.9c.4-3.9 3.3-7.1 7.1-8m-7.1 9.8h4.2c.2 2.9 1.2 5.7 2.9 8-3.8-.8-6.7-4.1-7.1-8m6 0h6.2c-.2 2.8-1.3 5.5-3.1 7.8-1.8-2.3-2.8-5-3.1-7.8m5.1 8c1.6-2.4 2.6-5.1 2.8-8H21c-.3 3.9-3.2 7.1-7 8" style="fill-rule:evenodd;clip-rule:evenodd"/></svg>