<svg xmlns="http://www.w3.org/2000/svg" xml:space="preserve" id="Layer_1" x="0" y="0" version="1.1" viewBox="0 0 24 24"><style>.st0{fill-rule:evenodd;clip-rule:evenodd;fill:#181d25}</style><path d="M12 .2C5.5.2.2 5.5.2 12S5.5 23.8 12 23.8 23.8 18.5 23.8 12 18.5.2 12 .2m0 22c-2.6 0-4.9-.9-6.7-2.5L7 18c.3-.3.3-.8 0-1.1s-.8-.3-1.1 0l-1.7 1.7c-1.5-1.8-2.5-4.1-2.5-6.7C1.8 6.3 6.3 1.8 12 1.8c2.6 0 4.9.9 6.7 2.5L17 6c-.3.3-.3.8 0 1.1s.8.3 1.1 0l1.7-1.7c1.5 1.8 2.5 4.1 2.5 6.7-.1 5.6-4.6 10.1-10.3 10.1" class="st0"/><path d="M17.1 9.7v-.8c0-.4-.3-.8-.8-.8h-.9c-.4 0-.8.1-1.3.3 0-.8-.1-1.5-.4-2-.3-.6-.6-1.2-.9-1.5-.1-.2-.3-.3-.3-.4l-.1-.1c-.1-.1-.3-.2-.5-.2s-.4.1-.5.2l-.1.1c-.1.1-.2.2-.3.4q-.45.6-.9 1.5c-.3.6-.5 1.3-.4 2.1-.5-.2-.9-.3-1.3-.3h-.8c-.4 0-.8.3-.8.8v.7c.1.5.2 1.1.4 1.7.1.1.1.3.2.4-.4 0-.7.4-.7.7v.8c.3.5.4 1.1.6 1.7.3.6.7 1.3 1.3 1.8s1.5.9 2.5.9h.1v1.5c0 .4.3.8.8.8s.8-.3.8-.8v-1.5h.1c1.1 0 1.9-.3 2.5-.9.6-.5 1-1.2 1.3-1.8.2-.6.4-1.2.4-1.7v-.8c0-.4-.3-.7-.7-.7.1-.1.1-.3.2-.4.3-.7.4-1.3.5-1.7m-5.9 6.5c-.8 0-1.3-.2-1.7-.5q-.6-.45-.9-1.2c-.1-.4-.2-.8-.3-1.1.3 0 .6.1.9.2.2.1.3.2.5.2.4.2.7.4.9.7.4.4.6.9.6 1.7m0-3.7c-.4 0-.7 0-.9-.1-.1 0-.2-.1-.3-.1s-.1 0-.2-.1-.2-.1-.3-.2q-.6-.45-.9-1.2c0-.4-.1-.8-.2-1.1.4.1.8.2 1.1.3.4.2.8.4 1.1.7 0 .1.1.1.1.2.3.3.5.8.5 1.6m1.1-2.8-.2.2-.1.1v.1-.1s0-.1-.1-.1c0-.1-.1-.1-.2-.2-.3-.4-.5-.8-.5-1.2 0-.5.1-1 .3-1.4s.4-.7.5-1c.2.3.4.6.5 1 .2.5.3 1 .3 1.4s-.2.8-.5 1.2m3 4.8q-.3.75-.9 1.2c-.4.3-.9.5-1.6.5h-.1v-.1c0-.7.2-1.2.5-1.6.2-.3.6-.5.9-.7.2-.1.3-.1.5-.2.3-.1.6-.2.9-.2 0 .3-.1.7-.2 1.1m0-3.7q-.3.75-.9 1.2c-.1.1-.2.1-.3.2-.1 0-.1 0-.2.1-.1 0-.2.1-.3.1-.2.1-.5.1-.8.1h-.1v-.1c0-.7.2-1.2.5-1.6 0 0 .1-.1.1-.2.3-.3.7-.5 1.1-.7s.8-.2 1.1-.3c0 .4-.1.8-.2 1.2" class="st0"/></svg>