<svg xmlns="http://www.w3.org/2000/svg" width="24" height="24" fill="none"><path fill="#000" fill-rule="evenodd" d="M2.125 3c0-.483.392-.875.875-.875h7c.483 0 .875.392.875.875v7a.875.875 0 0 1-.875.875H3A.875.875 0 0 1 2.125 10zm1.75.875v5.25h5.25v-5.25zM13.125 3c0-.483.392-.875.875-.875h7c.483 0 .875.392.875.875v7a.875.875 0 0 1-.875.875h-7a.875.875 0 0 1-.875-.875zm1.75.875v5.25h5.25v-5.25zM13.125 14c0-.483.392-.875.875-.875h7c.483 0 .875.392.875.875v7a.875.875 0 0 1-.875.875h-7a.875.875 0 0 1-.875-.875zm1.75.875v5.25h5.25v-5.25zM2.125 14c0-.483.392-.875.875-.875h7c.483 0 .875.392.875.875v7a.875.875 0 0 1-.875.875H3A.875.875 0 0 1 2.125 21zm1.75.875v5.25h5.25v-5.25z" clip-rule="evenodd"/></svg>