<svg xmlns="http://www.w3.org/2000/svg" width="24" height="24" fill="none"><path fill="#000" fill-rule="evenodd" d="M11.254 2.569c.744-.109 1.647-.138 2.474.285.703.36 1.318.856 1.806 1.605.477.73.735 1.5.735 2.397a.87.87 0 0 1-.861.879.87.87 0 0 1-.86-.88c0-.51-.136-.946-.446-1.42a2.83 2.83 0 0 0-1.144-1.008c-.353-.18-.828-.21-1.46-.117-.424.061-.841.312-1.25.722-.366.472-.617.905-.677 1.256-.089.64-.06 1.122.116 1.48.277.567.565.947.893 1.114a1 1 0 0 1 .093.055c.465.317.891.456 1.391.456a.87.87 0 0 1 .86.879v1.826l9.21 5.953c.432.243.635.668.716.838l.015.032q.089.182.091.383l.004.026.002.014c.005.033.018.109.024.163a1.5 1.5 0 0 1-.043.604 1.42 1.42 0 0 1-.758 1.095l-.033.018c-.167.086-.532.276-.941.276H2.79c-.187 0-.563.002-.945-.193a.9.9 0 0 1-.224-.165 2 2 0 0 1-.286-.4c-.062-.108-.12-.228-.166-.322l-.004-.009a1.55 1.55 0 0 1 .015-1.422c.081-.17.283-.594.714-.837l9.31-6.052v-1.04a4.2 4.2 0 0 1-1.443-.631c-.822-.442-1.307-1.248-1.614-1.874-.413-.845-.385-1.767-.279-2.527l.003-.02c.138-.844.66-1.599 1.063-2.113a1 1 0 0 1 .063-.073c.563-.575 1.315-1.115 2.257-1.253m.812 11.055-9.276 6.03-.01.007-.03.056.012.024h18.422l.075-.03.011-.042v-.003l-.016-.099-.004-.007-.008-.005z" clip-rule="evenodd"/></svg>