<svg xmlns="http://www.w3.org/2000/svg" xml:space="preserve" id="Layer_1" x="0" y="0" version="1.1" viewBox="0 0 24 24"><style>.st0{fill-rule:evenodd;clip-rule:evenodd}</style><path d="M17.6.2H6.4c-2.5 0-4.5 2-4.5 4.5v14.6c0 2.5 2 4.5 4.5 4.5h11.2c2.5 0 4.5-2 4.5-4.5V4.7c0-2.5-2-4.5-4.5-4.5m3 19.1c0 1.7-1.3 3-3 3H6.4c-1.7 0-3-1.3-3-3V4.7c0-1.7 1.3-3 3-3h11.2c1.7 0 3 1.3 3 3z" class="st0"/><path d="M12 3.8c-3.5 0-6.4 2.8-6.4 6.4 0 1.5.5 2.9 1.4 4l-1.1 1.1c-.3.3-.3.8 0 1.1s.8.3 1.1 0l1.2-1.2c1.1.9 2.5 1.4 3.9 1.4 3.5 0 6.4-2.8 6.4-6.4-.1-3.6-3-6.4-6.5-6.4M12 15c-1.1 0-2.1-.3-2.9-.9l3.4-3.4c.3-.3.3-.8 0-1.1s-.8-.3-1.1 0L8.1 13c-.6-.8-1-1.8-1-2.9 0-2.7 2.2-4.9 4.9-4.9s4.9 2.2 4.9 4.9S14.7 15 12 15" class="st0"/></svg>