<svg xmlns="http://www.w3.org/2000/svg" xml:space="preserve" id="Layer_1" x="0" y="0" version="1.1" viewBox="0 0 24 24"><style>.st0{fill-rule:evenodd;clip-rule:evenodd}</style><path d="M22.8 11.8c0-.1 0-.1-.1-.2l-.1-.1-3.4-6.8c-.5-1-1.5-1.6-2.6-1.6H7.2c-1.1 0-2.1.6-2.6 1.6l-3.4 6.8-.1.1c0 .1-.1.1-.1.2V18c0 1.6 1.3 2.9 2.9 2.9h16c1.6 0 2.9-1.3 2.9-2.9v-6c.1-.1.1-.1 0-.2M6.2 5.5c.2-.4.6-.6 1-.6h9.5c.4 0 .8.2 1 .6l2.8 5.6H3.4zM21.1 18c0 .6-.5 1.1-1.1 1.1H4c-.6 0-1.1-.5-1.1-1.1v-5.1h18.2z" class="st0"/><path d="M6 15.1c-.5 0-.9.4-.9.9s.4.9.9.9.9-.4.9-.9-.4-.9-.9-.9m4 0c-.5 0-.9.4-.9.9s.4.9.9.9.9-.4.9-.9-.4-.9-.9-.9" class="st0"/></svg>