<svg xmlns="http://www.w3.org/2000/svg" width="24" height="24" fill="none"><path fill="#000" fill-rule="evenodd" d="M3.125 9c0-.483.392-.875.875-.875h16a.875.875 0 0 1 0 1.75H4A.875.875 0 0 1 3.125 9m0 6c0-.483.392-.875.875-.875h16a.875.875 0 1 1 0 1.75H4A.875.875 0 0 1 3.125 15" clip-rule="evenodd"/><path fill="#000" fill-rule="evenodd" d="M10.097 2.13c.48.054.826.486.773.967l-2 18a.875.875 0 1 1-1.74-.194l2-18a.875.875 0 0 1 .967-.773m6 0c.48.054.826.486.773.967l-2 18a.875.875 0 1 1-1.74-.194l2-18a.875.875 0 0 1 .967-.773" clip-rule="evenodd"/></svg>