<svg xmlns="http://www.w3.org/2000/svg" xml:space="preserve" viewBox="0 0 24 24"><path d="M12 2.1c-5.5 0-9.9 4.4-9.9 9.9v7c0 1.6 1.3 2.9 2.9 2.9h1c1.6 0 2.9-1.3 2.9-2.9v-3c0-1.6-1.3-2.9-2.9-2.9H3.9V12c0-4.5 3.6-8.1 8.1-8.1s8.1 3.6 8.1 8.1v1.1H18c-.8 0-1.5.3-2 .8s-.8 1.3-.8 2v3c0 1.6 1.3 2.9 2.9 2.9h1c1.6 0 2.9-1.3 2.9-2.9v-7c-.1-5.4-4.5-9.8-10-9.8M6 14.9c.6 0 1.1.5 1.1 1.1v3c0 .6-.5 1.1-1.1 1.1H5c-.6 0-1.1-.5-1.1-1.1v-4.1zM20.1 19c0 .6-.5 1.1-1.1 1.1h-1c-.6 0-1.1-.5-1.1-1.1v-3c0-.6.5-1.1 1.1-1.1h2.1z" style="fill-rule:evenodd;clip-rule:evenodd"/></svg>