<svg xmlns="http://www.w3.org/2000/svg" xml:space="preserve" viewBox="0 0 24 24"><path d="M21.3 13.5v-2.9c0-2.5-1-4.9-2.7-6.6-1.8-1.8-4.1-2.7-6.6-2.7S7.1 2.3 5.4 4c-1.8 1.8-2.7 4.1-2.7 6.6v2.9c-.6.1-1.1.4-1.5.8-.4.5-.6 1-.6 1.6v4.3c0 .7.3 1.3.7 1.8.5.5 1.1.7 1.8.7h2.4c.4 0 .8-.2 1.1-.5.2-.2.4-.6.4-1V15c0-.4-.2-.8-.5-1.1s-.7-.5-1.1-.5H4.1v-2.9c0-2.1.8-4.1 2.3-5.6S9.9 2.7 12 2.7s4.1.8 5.6 2.3 2.3 3.5 2.3 5.6v2.9h-1.3c-.4 0-.8.2-1.1.5-.3.2-.5.6-.5 1v6.2c0 .4.2.8.5 1.1s.7.5 1.1.5H21c.7 0 1.3-.3 1.8-.7.5-.5.7-1.1.7-1.8V16c0-.6-.2-1.2-.6-1.6-.4-.6-1-.8-1.6-.9M5.5 15v6.3H3c-.3 0-.6-.1-.8-.3s-.3-.5-.3-.8v-4.3c0-.3.1-.6.3-.8.2-.1.5-.2.8-.2h2.6c-.1 0-.1.1-.1.1m16.6 5.3c0 .3-.1.6-.3.8s-.5.3-.8.3h-2.6v-6.5H21c.3 0 .6.1.8.3s.3.5.3.8z"/></svg>