<svg xmlns="http://www.w3.org/2000/svg" width="24" height="24" fill="none"><path fill="#000" fill-rule="evenodd" d="M12 2.875a9.125 9.125 0 1 0 0 18.25 9.125 9.125 0 0 0 0-18.25M1.125 12C1.125 5.994 5.994 1.125 12 1.125S22.875 5.994 22.875 12 18.006 22.875 12 22.875 1.125 18.006 1.125 12" clip-rule="evenodd"/><path fill="#000" fill-rule="evenodd" d="M12.28 7.901a2.125 2.125 0 0 0-2.365 1.39.875.875 0 0 1-1.65-.581 3.875 3.875 0 0 1 7.53 1.29c0 1.465-1.087 2.443-1.89 2.978a8 8 0 0 1-1.658.835l-.034.011-.01.004-.004.001h-.001s-.001.001-.278-.829l.277.83a.875.875 0 0 1-.555-1.66l.019-.006.076-.029a6.2 6.2 0 0 0 1.197-.613c.698-.465 1.111-.986 1.111-1.522v-.001A2.125 2.125 0 0 0 12.279 7.9ZM11.125 17c0-.483.392-.875.875-.875h.01a.875.875 0 0 1 0 1.75H12a.875.875 0 0 1-.875-.875" clip-rule="evenodd"/></svg>