<svg xmlns="http://www.w3.org/2000/svg" xml:space="preserve" viewBox="0 0 24 24"><path d="m20.8 7.6-7.3-5.1c-.4-.3-.9-.5-1.5-.5-.5 0-1.1.2-1.6.5L3.2 7.6C2.4 8.1 2 8.9 2 9.8v9.5C2 20.8 3.2 22 4.7 22h14.5c1.5 0 2.7-1.2 2.7-2.7V9.8c.1-.9-.3-1.7-1.1-2.2m-7 12.6h-3.6v-3.6c0-.5.4-.9.9-.9h1.8c.5 0 .9.4.9.9zm6.4-.9c0 .5-.4.9-.9.9h-3.6v-3.6c0-1.5-1.2-2.7-2.7-2.7h-1.8c-1.5 0-2.7 1.2-2.7 2.7v3.6H4.7c-.5 0-.9-.4-.9-.9V9.8c0-.3.1-.6.4-.8l7.3-5c.3-.2.7-.2 1 0l7.3 5.1c.2.2.4.5.4.8z" style="fill-rule:evenodd;clip-rule:evenodd"/></svg>