<svg xmlns="http://www.w3.org/2000/svg" xml:space="preserve" viewBox="0 0 24 24"><path d="M21.2 21H2.8C1.2 21 0 19.8 0 18.2V5.8C0 4.2 1.2 3 2.8 3h18.5C22.8 3 24 4.2 24 5.8v12.5c0 1.5-1.2 2.7-2.8 2.7M2.8 4.5c-.7 0-1.3.6-1.3 1.3v12.5c0 .7.6 1.3 1.3 1.3h18.5c.7 0 1.3-.6 1.3-1.3V5.8c0-.7-.6-1.3-1.3-1.3z"/><path d="M7.5 12C6.1 12 5 10.9 5 9.5S6.1 7 7.5 7 10 8.1 10 9.5 8.9 12 7.5 12m0-3.5c-.6 0-1 .4-1 1s.4 1 1 1 1-.4 1-1-.4-1-1-1m3.7 8.5c-.4 0-.8-.3-.8-.8v-.5c0-.7-.6-1.3-1.3-1.3H5.8c-.7 0-1.3.6-1.3 1.3v.5c0 .4-.3.8-.8.8s-.7-.3-.7-.7v-.5C3 14.2 4.2 13 5.8 13h3.5c1.5 0 2.8 1.2 2.8 2.8v.5c-.1.4-.4.7-.9.7m9-8h-5.5c-.4 0-.7-.3-.7-.8 0-.4.3-.8.8-.8h5.5c.4 0 .8.3.8.8-.1.5-.4.8-.9.8m0 4h-5.5c-.4 0-.8-.3-.8-.8 0-.4.3-.8.8-.8h5.5c.4 0 .8.3.8.8s-.3.8-.8.8m0 4h-5.5c-.4 0-.8-.3-.8-.8 0-.4.3-.7.8-.7h5.5c.4 0 .8.3.8.7 0 .5-.3.8-.8.8"/></svg>