<svg xmlns="http://www.w3.org/2000/svg" xml:space="preserve" id="Layer_1" x="0" y="0" version="1.1" viewBox="0 0 24 24"><style>.st0{fill-rule:evenodd;clip-rule:evenodd}</style><path d="M8.5 6.1c-1.3 0-2.4 1.1-2.4 2.4s1.1 2.4 2.4 2.4 2.4-1.1 2.4-2.4-1.1-2.4-2.4-2.4m0 3c-.3 0-.6-.3-.6-.6s.3-.6.6-.6.6.3.6.6-.3.6-.6.6" class="st0"/><path d="M19 2.1H5C3.4 2.1 2.1 3.4 2.1 5v14c0 1.6 1.3 2.9 2.9 2.9h14c1.6 0 2.9-1.3 2.9-2.9V5c0-1.6-1.3-2.9-2.9-2.9M20.1 19c0 .6-.5 1.1-1.1 1.1H7.1l8.9-8.9 4.1 4.1zm0-6.1-3.5-3.5c-.3-.3-.9-.3-1.2 0L4.7 20.1c-.5-.1-.8-.6-.8-1.1V5c0-.6.5-1.1 1.1-1.1h14c.6 0 1.1.5 1.1 1.1z" class="st0"/></svg>