<svg xmlns="http://www.w3.org/2000/svg" xml:space="preserve" viewBox="0 0 24 24"><path d="M22.8 11.8c0-.1 0-.1-.1-.2l-.1-.1-3.4-6.8c-.5-1-1.5-1.6-2.6-1.6H7.2c-1.1 0-2.1.6-2.6 1.6l-3.4 6.8-.1.1c0 .1-.1.1-.1.2V18c0 1.6 1.3 2.9 2.9 2.9h16c1.6 0 2.9-1.3 2.9-2.9v-6c.1-.1.1-.1 0-.2M6.2 5.5c.2-.4.6-.6 1-.6h9.5c.4 0 .8.2 1 .6l2.8 5.6H16c-.3 0-.6.2-.7.4l-1.7 2.6h-3.1l-1.7-2.6c-.2-.2-.4-.4-.7-.4H3.4zM21.1 18c0 .6-.5 1.1-1.1 1.1H4c-.6 0-1.1-.5-1.1-1.1v-5.1h4.7l1.7 2.6c.2.2.4.4.7.4h4c.3 0 .6-.2.7-.4l1.7-2.6h4.7z" style="fill-rule:evenodd;clip-rule:evenodd"/></svg>