<svg xmlns="http://www.w3.org/2000/svg" xml:space="preserve" viewBox="0 0 24 24"><path d="M12 6.4c-3.1 0-5.6 2.5-5.6 5.6s2.5 5.6 5.6 5.6 5.6-2.5 5.6-5.6-2.5-5.6-5.6-5.6m0 9.3c-2 0-3.7-1.6-3.7-3.7 0-2 1.6-3.7 3.7-3.7 2 0 3.7 1.6 3.7 3.7 0 2-1.7 3.7-3.7 3.7"/><path d="M16.5 1.1c-2-.1-7-.1-9.1 0-1.7.1-3.3.5-4.5 1.7C.7 5 1 7.8 1 12c0 4.3-.2 7.1 1.8 9.1C5 23.3 7.9 23 12 23c4.2 0 5.7 0 7.2-.6 2-.8 3.6-2.6 3.7-5.9.1-2 .1-7 0-9.1-.2-3.8-2.2-6.1-6.4-6.3m3.2 18.6C18.4 21.1 16.4 21 12 21c-4.6 0-6.4.1-7.8-1.3-1.5-1.5-1.3-4-1.3-7.7 0-5.1-.5-8.7 4.6-9H12c4.9 0 8.7-.5 8.9 4.6.1 1.1.1 1.5.1 4.4 0 4.5.1 6.4-1.3 7.7"/><path d="M17.9 7.4c.7 0 1.3-.6 1.3-1.3s-.6-1.3-1.3-1.3-1.3.6-1.3 1.3.5 1.3 1.3 1.3"/></svg>