<svg xmlns="http://www.w3.org/2000/svg" width="24" height="24" fill="none"><path fill="#000" fill-rule="evenodd" d="M11.609 1.217a.88.88 0 0 1 .783 0l10 5a.875.875 0 0 1 0 1.566l-10 5a.88.88 0 0 1-.783 0l-10-5a.875.875 0 0 1 0-1.566zM3.957 7 12 11.022 20.044 7 12 2.978zm-2.739 9.609a.875.875 0 0 1 1.174-.392L12 21.022l9.609-4.805a.875.875 0 0 1 .782 1.566l-10 5a.88.88 0 0 1-.782 0l-10-5a.875.875 0 0 1-.391-1.174" clip-rule="evenodd"/><path fill="#000" fill-rule="evenodd" d="M1.218 11.609a.875.875 0 0 1 1.174-.392L12 16.022l9.609-4.805a.875.875 0 0 1 .782 1.566l-10 5a.88.88 0 0 1-.782 0l-10-5a.875.875 0 0 1-.391-1.174" clip-rule="evenodd"/></svg>