<svg xmlns="http://www.w3.org/2000/svg" xml:space="preserve" viewBox="0 0 24 24"><path d="M20.6 2.5h-4.3c-4.9 0-8.4 1-10.6 3-1.1 1-1.9 2.2-2.4 3.4-.5 1.3-.7 2.7-.7 4.1 0 1 0 3.1 1.8 5.2q-.45 1.5-.6 3.3c-.1.5.2.9.6.9s.8-.3.9-.7c.1-.8.2-1.7.4-2.5h3c3.5 0 6.5-.9 8.8-3.1 2.2-2.3 3.6-5.7 3.9-10.5V3.4c0-.5-.3-.9-.8-.9m-.7 3c-.3 4.6-1.6 7.6-3.4 9.4-1.9 1.9-4.4 2.7-7.7 2.7H6.2c.3-.7.6-1.3 1-1.9 1.2-1.7 2.7-3 5-4.1.4-.2.6-.6.4-1s-.6-.6-1-.4c-2.5 1.2-4.4 2.7-5.8 4.6-.3.5-.6 1-.9 1.7-.8-1.4-.8-2.6-.8-3.5 0-2.5.7-4.7 2.5-6.3s4.8-2.6 9.5-2.6h3.6v1.4z" style="fill-rule:evenodd;clip-rule:evenodd;fill:#181d25"/></svg>