<svg xmlns="http://www.w3.org/2000/svg" xml:space="preserve" viewBox="0 0 24 24"><path d="M19.7 4.3c-2-2-4.7-3.2-7.7-3.2S6.3 2.3 4.3 4.3 1.1 9 1.1 12s1.2 5.7 3.2 7.7S9 22.9 12 22.9s5.7-1.2 7.7-3.2 3.2-4.7 3.2-7.7-1.2-5.7-3.2-7.7M12 2.9c2.2 0 4.2.8 5.8 2.1l-.1.1-3 3c-.7-.7-1.7-1-2.7-1s-2 .3-2.8.9l-3-3C7.8 3.7 9.8 2.9 12 2.9m3.1 9.1c0 .9-.3 1.6-.9 2.2s-1.4.9-2.2.9-1.6-.3-2.2-.9-.9-1.4-.9-2.2.3-1.6.9-2.2 1.4-.9 2.2-.9 1.6.3 2.2.9.9 1.3.9 2.2M2.9 12c0-2.2.8-4.2 2.1-5.8l3 3c-.6.8-.9 1.8-.9 2.8s.3 2 .9 2.8l-3 3c-1.3-1.6-2.1-3.6-2.1-5.8m9.1 9.1c-2.2 0-4.2-.8-5.8-2.1l3-3c.8.5 1.8.9 2.8.9s2-.3 2.8-.9l3 3c-1.6 1.3-3.6 2.1-5.8 2.1m7-3.3-3-3c.5-.8.9-1.8.9-2.8s-.3-2-.9-2.8l3-3 .1-.1c1.3 1.6 2.1 3.6 2.1 5.8s-.9 4.3-2.2 5.9M17.8 5" style="fill-rule:evenodd;clip-rule:evenodd"/></svg>