<svg xmlns="http://www.w3.org/2000/svg" width="24" height="24" fill="none"><path fill="#000" fill-rule="evenodd" d="M6 7.875a4.125 4.125 0 0 0 0 8.25h3a.875.875 0 0 1 0 1.75H6a5.876 5.876 0 0 1 0-11.75h3a.875.875 0 1 1 0 1.75zM14.125 7c0-.483.392-.875.875-.875h3a5.875 5.875 0 0 1 0 11.75h-3a.875.875 0 0 1 0-1.75h3a4.125 4.125 0 0 0 0-8.25h-3A.875.875 0 0 1 14.125 7" clip-rule="evenodd"/><path fill="#000" fill-rule="evenodd" d="M7.125 12c0-.483.392-.875.875-.875h8a.875.875 0 0 1 0 1.75H8A.875.875 0 0 1 7.125 12" clip-rule="evenodd"/></svg>