<svg xmlns="http://www.w3.org/2000/svg" width="24" height="24" fill="none"><path fill="#000" fill-rule="evenodd" d="M12.862 2.84a5.875 5.875 0 0 1 8.308 8.308l-.011.01-3 3a5.876 5.876 0 0 1-8.86-.634.875.875 0 1 1 1.402-1.048 4.125 4.125 0 0 0 6.22.445l2.995-2.994a4.125 4.125 0 0 0-5.834-5.832L12.367 5.8a.875.875 0 1 1-1.234-1.24l1.73-1.72Z" clip-rule="evenodd"/><path fill="#000" fill-rule="evenodd" d="M7.943 8.49a5.875 5.875 0 0 1 6.758 1.986.875.875 0 1 1-1.402 1.048 4.124 4.124 0 0 0-6.22-.445l-2.994 2.994a4.125 4.125 0 0 0 5.832 5.833l1.704-1.705a.875.875 0 1 1 1.238 1.238l-1.71 1.71-.01.01a5.875 5.875 0 0 1-8.308-8.307l.01-.01 3-3A5.9 5.9 0 0 1 7.943 8.49" clip-rule="evenodd"/></svg>