<svg xmlns="http://www.w3.org/2000/svg" width="24" height="24" fill="none"><path fill="#000" fill-rule="evenodd" d="M7.125 6c0-.483.392-.875.875-.875h13a.875.875 0 0 1 0 1.75H8A.875.875 0 0 1 7.125 6m0 6c0-.483.392-.875.875-.875h13a.875.875 0 0 1 0 1.75H8A.875.875 0 0 1 7.125 12m0 6c0-.483.392-.875.875-.875h13a.875.875 0 0 1 0 1.75H8A.875.875 0 0 1 7.125 18m-5-12c0-.483.392-.875.875-.875h.01a.875.875 0 1 1 0 1.75H3A.875.875 0 0 1 2.125 6m0 6c0-.483.392-.875.875-.875h.01a.875.875 0 0 1 0 1.75H3A.875.875 0 0 1 2.125 12m0 6c0-.483.392-.875.875-.875h.01a.875.875 0 0 1 0 1.75H3A.875.875 0 0 1 2.125 18" clip-rule="evenodd"/></svg>