<svg xmlns="http://www.w3.org/2000/svg" width="24" height="24" fill="none"><path fill="#000" fill-rule="evenodd" d="M12 1.125c.483 0 .875.392.875.875v4a.875.875 0 0 1-1.75 0V2c0-.483.392-.875.875-.875m0 16c.483 0 .875.392.875.875v4a.875.875 0 0 1-1.75 0v-4c0-.483.392-.875.875-.875M4.311 4.311a.875.875 0 0 1 1.238 0l2.83 2.83A.875.875 0 1 1 7.14 8.38L4.31 5.55a.875.875 0 0 1 0-1.238Zm11.31 11.31a.875.875 0 0 1 1.238 0l2.83 2.83a.875.875 0 1 1-1.238 1.238l-2.83-2.83a.875.875 0 0 1 0-1.238M1.125 12c0-.483.392-.875.875-.875h4a.875.875 0 0 1 0 1.75H2A.875.875 0 0 1 1.125 12m16 0c0-.483.392-.875.875-.875h4a.875.875 0 0 1 0 1.75h-4a.875.875 0 0 1-.875-.875m-8.746 3.621a.875.875 0 0 1 0 1.238l-2.83 2.83A.875.875 0 0 1 4.31 18.45l2.83-2.83a.875.875 0 0 1 1.238 0Zm11.31-11.31a.875.875 0 0 1 0 1.238l-2.83 2.83A.875.875 0 1 1 15.62 7.14l2.83-2.83a.875.875 0 0 1 1.238 0Z" clip-rule="evenodd"/></svg>