<svg xmlns="http://www.w3.org/2000/svg" xml:space="preserve" id="Layer_1" x="0" y="0" version="1.1" viewBox="0 0 24 24"><style>.st0{fill-rule:evenodd;clip-rule:evenodd}</style><path d="M9 20.1H5c-.6 0-1.1-.5-1.1-1.1V5c0-.6.5-1.1 1.1-1.1h4c.5 0 .9-.4.9-.9s-.4-.9-.9-.9H5C3.4 2.1 2.1 3.4 2.1 5v14c0 1.6 1.3 2.9 2.9 2.9h4c.5 0 .9-.4.9-.9s-.4-.9-.9-.9" class="st0"/><path d="M21.9 12c0 .2-.1.5-.3.6l-5 5c-.3.3-.9.3-1.2 0s-.3-.9 0-1.2l3.5-3.5H9c-.5 0-.9-.4-.9-.9s.4-.9.9-.9h9.9l-3.5-3.5c-.3-.3-.3-.9 0-1.2s.9-.3 1.2 0l5 5c.2.1.3.4.3.6" class="st0"/></svg>