<svg xmlns="http://www.w3.org/2000/svg" xml:space="preserve" id="Layer_1" x="0" y="0" version="1.1" viewBox="0 0 24 24"><style>.st0{fill-rule:evenodd;clip-rule:evenodd}</style><path d="M12 .1C6.5.1 2.1 4.5 2.1 10c0 3.8 2.5 7.3 4.7 9.7 1 1 2.1 2 3.2 2.9.5.4.9.7 1.4 1.1.3.2.7.2 1 0L12 23l.5.7c.1-.1.2-.2.4-.3 1.5-1.1 2.9-2.3 4.2-3.7 2.3-2.4 4.7-5.9 4.7-9.7.1-5.5-4.3-9.9-9.8-9.9m3.9 18.4c-1.2 1.2-2.5 2.4-3.9 3.4-1.4-1-2.7-2.2-3.9-3.4-2.2-2.3-4.3-5.4-4.3-8.5 0-4.5 3.6-8.1 8.1-8.1S20 5.5 20 10c.1 3.2-1.9 6.2-4.1 8.5" class="st0"/><path d="M12 6.1c-2.1 0-3.9 1.7-3.9 3.9s1.7 3.9 3.9 3.9 3.9-1.7 3.9-3.9-1.8-3.9-3.9-3.9m0 6c-1.2 0-2.1-1-2.1-2.1s1-2.1 2.1-2.1 2.1 1 2.1 2.1-.9 2.1-2.1 2.1" class="st0"/></svg>