<svg xmlns="http://www.w3.org/2000/svg" xml:space="preserve" viewBox="0 0 24 24"><path d="M8 1.1c.1 0 .3 0 .4.1-.1 0-.3-.1-.4-.1" style="fill:none"/><path d="M23.8 1.6c-.3-.4-.8-.6-1.2-.4L16 5 8.5 1.3s-.1 0-.1-.1c-.1 0-.3-.1-.4-.1h-.2c-.1 0-.1 0-.2.1h-.1l-6.9 4c-.3.2-.5.5-.5.8v16c0 .2 0 .3.1.4.3.4.8.6 1.2.4L8 19l7.5 3.7s.1 0 .1.1c.1.1.2.1.4.1h.2c.1 0 .1 0 .2-.1h.1l6.9-4c.3-.2.5-.5.5-.8V2c0-.2-.1-.3-.1-.4M7.1 17.5l-5.2 3v-14l5.2-3zm8 3.1-6.2-3.1v-14l6.2 3.1zm7-3.1-5.2 3v-14l5.2-3z" style="fill-rule:evenodd;clip-rule:evenodd"/></svg>