<svg xmlns="http://www.w3.org/2000/svg" width="24" height="24" fill="none"><path fill="#000" fill-rule="evenodd" d="M2.967 2.967c.54-.54 1.27-.842 2.033-.842h3a.875.875 0 1 1 0 1.75H5A1.125 1.125 0 0 0 3.875 5v3a.875.875 0 1 1-1.75 0V5c0-.763.303-1.494.842-2.033M15.125 3c0-.483.392-.875.875-.875h3A2.875 2.875 0 0 1 21.875 5v3a.875.875 0 0 1-1.75 0V5A1.125 1.125 0 0 0 19 3.875h-3A.875.875 0 0 1 15.125 3M3 15.125c.483 0 .875.392.875.875v3A1.125 1.125 0 0 0 5 20.125h3a.875.875 0 0 1 0 1.75H5A2.875 2.875 0 0 1 2.125 19v-3c0-.483.392-.875.875-.875m18 0c.483 0 .875.392.875.875v3A2.875 2.875 0 0 1 19 21.875h-3a.875.875 0 0 1 0-1.75h3A1.125 1.125 0 0 0 20.125 19v-3c0-.483.392-.875.875-.875" clip-rule="evenodd"/></svg>