<svg xmlns="http://www.w3.org/2000/svg" width="24" height="24" fill="none"><path fill="#000" fill-rule="evenodd" d="M12.5 3.875a7.61 7.61 0 0 0-6.455 3.584l-.009.014c-.803 1.25-1.161 2.583-1.161 4.027 0 1.165.269 2.331.808 3.409a.88.88 0 0 1 .047.668l-1.346 4.04 4.04-1.347a.88.88 0 0 1 .667.047 7.6 7.6 0 0 0 3.409.808c1.425 0 2.868-.448 4.041-1.17a7.61 7.61 0 0 0 3.584-6.455v-.479c-.094-1.857-.89-3.548-2.244-4.902l-.02-.022c-1.234-1.321-3.007-2.128-4.882-2.222zm-4.191-.758a9.4 9.4 0 0 1 4.191-.992h.5l.042.001c2.312.11 4.525 1.098 6.087 2.766 1.635 1.64 2.634 3.737 2.745 6.066l.001.042v.5a9.37 9.37 0 0 1-4.416 7.945c-1.427.878-3.184 1.43-4.959 1.43a9.4 9.4 0 0 1-3.857-.834l-5.366 1.79a.875.875 0 0 1-1.107-1.108l1.789-5.365a9.4 9.4 0 0 1-.834-3.858c0-1.753.44-3.417 1.434-4.966a9.36 9.36 0 0 1 3.75-3.417" clip-rule="evenodd"/></svg>