<svg xmlns="http://www.w3.org/2000/svg" xml:space="preserve" viewBox="0 0 24 24"><path d="M9.7.9c.8-.6 1.8-.9 2.7-.8.8.1 1.8.5 2.4 1.3.7.7 1 1.7 1 2.6v5.3c0 .5-.4.9-.9.9s-.9-.4-.9-.9V4c0-.5-.2-1.1-.5-1.4l-.1-.1c-.3-.4-.8-.6-1.4-.7-.5-.1-1 .1-1.4.4l-.1.1c-.2.3-.5.8-.7 1.3-.1.5-.6.8-1 .7-.5-.1-.8-.6-.7-1.1v-.1c.3-.7.8-1.6 1.6-2.2"/><path d="m23.6 22.4-5.8-5.8c-.1-.2-.3-.4-.5-.5L1.6.4C1.3 0 .7 0 .4.4c-.4.3-.4.9 0 1.2l7.7 7.7V12c0 .8.3 1.5.6 2.2.4.7 1 1.2 1.7 1.5.6.2 1.5.4 2.2.2.5-.1 1-.3 1.4-.6l1.6 1.6c-.7.6-1.6.9-2.5 1.1-.3.1-.6.1-1 .1h-.5c-.7 0-1.5-.2-2.2-.5-1.1-.4-2.1-1.2-2.8-2.3s-1-2.2-1-3.4v-2c0-.5-.4-.9-.9-.9-.3.1-.7.5-.7 1v2c0 1.6.4 3 1.3 4.4.9 1.3 2.1 2.4 3.6 2.9.7.3 1.4.5 2.1.5v2.3H8c-.5 0-.9.4-.9.9s.4.9.9.9h8c.5 0 .9-.4.9-.9s-.4-.9-.9-.9h-3.1v-2.2c.2 0 .5-.1.7-.1 1.2-.3 2.4-.8 3.3-1.6l5.5 5.5c.3.3.9.3 1.2 0 .4-.4.4-1 0-1.3m-11.3-8.3c-.3.1-.8 0-1.2-.2-.4-.1-.7-.4-.9-.7s-.3-.8-.3-1.2v-.9l2.9 2.9c-.2.1-.3.1-.5.1" style="fill-rule:evenodd;clip-rule:evenodd"/><path d="M19.9 10c0-.5-.4-.9-.9-.9s-.9.4-.9.9v2c0 .4 0 .7-.1 1-.1.5.2.9.6 1.1.5.1.9-.2 1.1-.6.1-.5.1-1 .1-1.4V10z"/></svg>