<svg xmlns="http://www.w3.org/2000/svg" width="24" height="24" fill="none"><path fill="#000" fill-rule="evenodd" d="M12 .125A3.875 3.875 0 0 0 8.125 4v8a3.875 3.875 0 0 0 7.75 0V4A3.875 3.875 0 0 0 12 .125m-1.503 2.372A2.125 2.125 0 0 1 14.125 4v8a2.125 2.125 0 0 1-4.25 0V4c0-.564.224-1.104.622-1.503" clip-rule="evenodd"/><path fill="#000" d="M5.875 10a.875.875 0 1 0-1.75 0v2a7.875 7.875 0 0 0 7 7.826v2.299H8a.875.875 0 0 0 0 1.75h8a.875.875 0 0 0 0-1.75h-3.125v-2.299a7.876 7.876 0 0 0 7-7.826v-2a.875.875 0 0 0-1.75 0v2a6.125 6.125 0 1 1-12.25 0z"/></svg>