<svg xmlns="http://www.w3.org/2000/svg" width="24" height="24" fill="none"><path fill="#000" fill-rule="evenodd" d="M8 2.125c.483 0 .875.392.875.875v3A2.875 2.875 0 0 1 6 8.875H3a.875.875 0 1 1 0-1.75h3A1.125 1.125 0 0 0 7.125 6V3c0-.483.392-.875.875-.875m8 0c.483 0 .875.392.875.875v3A1.125 1.125 0 0 0 18 7.125h3a.875.875 0 0 1 0 1.75h-3A2.875 2.875 0 0 1 15.125 6V3c0-.483.392-.875.875-.875M2.125 16c0-.483.392-.875.875-.875h3A2.875 2.875 0 0 1 8.875 18v3a.875.875 0 0 1-1.75 0v-3A1.125 1.125 0 0 0 6 16.875H3A.875.875 0 0 1 2.125 16M18 16.875A1.125 1.125 0 0 0 16.875 18v3a.875.875 0 0 1-1.75 0v-3A2.875 2.875 0 0 1 18 15.125h3a.875.875 0 0 1 0 1.75z" clip-rule="evenodd"/></svg>