<svg xmlns="http://www.w3.org/2000/svg" width="24" height="24" fill="none"><path fill="#000" fill-rule="evenodd" d="M5 3.875c-.621 0-1.125.504-1.125 1.125v14c0 .621.504 1.125 1.125 1.125h14c.621 0 1.125-.504 1.125-1.125V5c0-.621-.504-1.125-1.125-1.125zM2.125 5A2.875 2.875 0 0 1 5 2.125h14A2.875 2.875 0 0 1 21.875 5v14A2.875 2.875 0 0 1 19 21.875H5A2.875 2.875 0 0 1 2.125 19z" clip-rule="evenodd"/><path fill="#000" fill-rule="evenodd" d="M7.125 12c0-.483.392-.875.875-.875h8a.875.875 0 0 1 0 1.75H8A.875.875 0 0 1 7.125 12" clip-rule="evenodd"/></svg>