<svg xmlns="http://www.w3.org/2000/svg" xml:space="preserve" viewBox="0 0 24 24"><path d="M22.9 12c0 .2-.1.5-.3.6l-3 3c-.3.3-.9.3-1.2 0s-.3-.9 0-1.2l1.5-1.5h-7v7l1.5-1.5c.3-.3.9-.3 1.2 0s.3.9 0 1.2l-3 3q-.3.3-.6.3-.45 0-.6-.3l-3-3c-.3-.3-.3-.9 0-1.2s.9-.3 1.2 0l1.5 1.5v-7h-7l1.5 1.5c.3.3.3.9 0 1.2s-.9.3-1.2 0l-3-3q-.3-.3-.3-.6 0-.45.3-.6l3-3c.3-.4.9-.4 1.2 0 .4.3.4.9 0 1.2l-1.5 1.5h7v-7L9.6 5.6c-.3.4-.9.4-1.2 0-.4-.3-.4-.9 0-1.2l3-3q.3-.3.6-.3.45 0 .6.3l3 3c.3.3.3.9 0 1.2s-.9.3-1.2 0l-1.5-1.5v7h7l-1.5-1.5c-.3-.3-.3-.9 0-1.2s.9-.3 1.2 0l3 3c.2.1.3.4.3.6" style="fill-rule:evenodd;clip-rule:evenodd"/></svg>