<svg xmlns="http://www.w3.org/2000/svg" xml:space="preserve" viewBox="0 0 24 24"><path d="M21.6 2.3c-.2-.2-.5-.2-.7-.2l-12 2c-.5.1-.8.5-.8.9v9.8q-.9-.6-2.1-.6c-2.1 0-3.9 1.7-3.9 3.9S3.8 22 6 22s3.9-1.7 3.9-3.9V5.7L20.1 4v8.7q-.9-.6-2.1-.6c-2.1 0-3.9 1.7-3.9 3.9s1.7 3.9 3.9 3.9 3.9-1.7 3.9-3.9V3c0-.3-.1-.5-.3-.7M6 20.1c-1.2 0-2.1-1-2.1-2.1s1-2.1 2.1-2.1 2.1 1 2.1 2.1-.9 2.1-2.1 2.1m12-2c-1.2 0-2.1-1-2.1-2.1s1-2.1 2.1-2.1 2.1 1 2.1 2.1-.9 2.1-2.1 2.1" style="fill-rule:evenodd;clip-rule:evenodd"/></svg>