<svg xmlns="http://www.w3.org/2000/svg" xml:space="preserve" viewBox="0 0 24 24"><path d="M15 18.8c0 .4.3.8.8.8h7.5c.4 0 .8-.3.8-.8V18c0-2.5-2-4.5-4.5-4.5s-4.5 2-4.5 4.5v.8zm4.5-6.8c2.1 0 3.8-1.7 3.8-3.8s-1.7-3.8-3.8-3.8-3.8 1.7-3.8 3.8 1.7 3.8 3.8 3.8M6.8 18.8c0 .4.3.8.8.8h6c.4 0 .8-.3.8-.8v-1.5c0-2.1-1.7-3.7-3.8-3.8-2.1 0-3.7 1.7-3.8 3.8zm-6 .7h4.5c.4 0 .8-.3.8-.8v-2.2c0-1.7-1.3-3-3-3s-3 1.3-3 3v2.2c-.1.5.2.8.7.8m9.7-7.1c1.9 0 3.4-1.5 3.4-3.4s-1.5-3.4-3.4-3.4S7.1 7.1 7.1 9s1.5 3.4 3.4 3.4m-7.5 0c1.4 0 2.6-1.2 2.6-2.6S4.4 7.1 3 7.1.4 8.3.4 9.8s1.2 2.6 2.6 2.6"/></svg>