<svg xmlns="http://www.w3.org/2000/svg" xml:space="preserve" viewBox="0 0 24 24"><path d="M4.7 12.9c-.6 1.2.1 1.8 1.7 2.8 1.3.8 3.2 1.1 4.4 1.3l-4.7 4.5c-1.4 1.3.8 3.4 2.2 2.1L12 20c1.4 1.4 2.8 2.7 3.7 3.6 1.4 1.3 3.6-.8 2.2-2.1-.1-.1-5-4.8-4.7-4.5 1.2-.1 3-.4 4.4-1.3 1.6-1 2.3-1.6 1.7-2.8-.4-.7-1.3-1.3-2.7-.3 0 0-1.8 1.4-4.6 1.4-2.9 0-4.6-1.4-4.6-1.4-1.3-1-2.3-.4-2.7.3"/><path d="M12 12.1c3.5 0 6.3-2.7 6.3-6.1 0-3.3-2.8-6-6.3-6S5.7 2.7 5.7 6.1c0 3.3 2.8 6 6.3 6m0-9c1.7 0 3.1 1.3 3.1 3 0 1.6-1.4 3-3.1 3s-3.1-1.3-3.1-3 1.4-3 3.1-3"/></svg>