<svg xmlns="http://www.w3.org/2000/svg" xml:space="preserve" id="Layer_1" x="0" y="0" version="1.1" viewBox="0 0 24 24"><style>.st0{fill-rule:evenodd;clip-rule:evenodd}</style><path d="M21.6 6.8c-.1-.2-.2-.4-.3-.5-.2-.3-.5-.6-.8-.8l-7-4c-.9-.5-2-.5-2.9 0L7.3 3.3l-.5.3-3.2 1.9c-.4.2-.7.5-.9.8-.1.2-.2.3-.3.4-.2.4-.3.9-.3 1.3v8c0 1 .5 2 1.4 2.5l7 4c.3.2.7.3 1 .4h.8c.4-.1.7-.2 1-.4l7-4c.9-.5 1.4-1.5 1.4-2.5V8c.2-.4.1-.8-.1-1.2M11.4 3c.2-.1.4-.2.6-.2s.4 0 .6.2l6.7 3.8-2.7 1.6-7.3-4.2zm-.3 17.8L4.4 17c-.3-.2-.6-.6-.6-1V8.3l7.2 4.2v8.3zM12 11 4.8 6.8l2.8-1.6 7.2 4.2zm8.1 5c0 .4-.2.8-.6 1l-6.7 3.8v-8.3L20 8.3V16z" class="st0"/><path d="M2.7 6.3c-.1.2-.2.3-.3.4 0-.1 0-.1.1-.2zm18.9.5c-.1-.2-.2-.4-.3-.5.1 0 .2.1.2.2.1.1.1.2.1.3m-9.2 16c-.1.1-.2.2-.4.2s-.3 0-.4-.1h.4c.1 0 .3 0 .4-.1" class="st0"/></svg>