<svg xmlns="http://www.w3.org/2000/svg" xml:space="preserve" viewBox="0 0 24 24"><path d="M10.5 1.6 11.9 3zm9.7 13.5c-.3-.3-.9-.3-1.2 0 0 0-2.8 2.8-2.8 5.6.1 1.8 1.5 3.2 3.3 3.3 1.9.1 3.4-1.4 3.4-3.3.1-2.8-2.7-5.6-2.7-5.6m-.6 7.3c-.9 0-1.7-.8-1.7-1.7s.4-1.7.8-2.4c.3-.5.6-.9.9-1.3.3.4.6.9.9 1.3.4.7.8 1.6.8 2.4 0 .9-.7 1.7-1.7 1.7m-.4-12.1L9.2.3c-.4-.4-.9-.4-1.2 0-.3.3-.3.8 0 1.2l.8.8-6.6 6.4C.6 10.3.6 13 2.2 14.6L7 19.4c1.6 1.6 4.3 1.6 5.9 0l6.3-6.3c.8-.8.8-2 0-2.8m-7.5 7.9c-1 1-2.6 1-3.6 0l-4.7-4.7q-.45-.45-.6-.9h14.6zm-8.9-7.3c.1-.3.3-.7.6-.9l6.5-6.5.8.8 6.7 6.7H2.8z" style="fill-rule:evenodd;clip-rule:evenodd"/></svg>