<svg xmlns="http://www.w3.org/2000/svg" width="24" height="24" fill="none"><path fill="#000" fill-rule="evenodd" d="M12 2.875a9.125 9.125 0 1 0 0 18.25 9.125 9.125 0 0 0 0-18.25M1.125 12C1.125 5.994 5.994 1.125 12 1.125S22.875 5.994 22.875 12 18.006 22.875 12 22.875 1.125 18.006 1.125 12" clip-rule="evenodd"/><path fill="#000" fill-rule="evenodd" d="M10 8.125c.483 0 .875.392.875.875v6a.875.875 0 0 1-1.75 0V9c0-.483.392-.875.875-.875m4 0c.483 0 .875.392.875.875v6a.875.875 0 0 1-1.75 0V9c0-.483.392-.875.875-.875" clip-rule="evenodd"/></svg>