<svg xmlns="http://www.w3.org/2000/svg" xml:space="preserve" viewBox="0 0 24 24"><path d="m22.6 14.4-3-3c-.3-.3-.7-.3-1.1-.1l-1.2-5.9c0-.4-.3-.7-.6-.7L2.2 1.2h-.4c-.1 0-.2.1-.2.1-.1 0-.1.1-.1.1l-.2.1c-.1.1-.1.2-.1.3v.4l3.5 14.5c0 .3.3.6.6.7l5.9 1.2c-.2.3-.2.8.1 1.1l3 3c.3.3.9.3 1.2 0l7-7c.5-.4.5-1 .1-1.3M6.2 15.8l-2.6-11 4.9 4.8c-.2.4-.3.9-.3 1.3 0 1.6 1.3 2.9 2.9 2.9s2.9-1.3 2.9-2.9-1.4-2.8-3-2.8c-.5 0-.9.1-1.3.3L4.8 3.6l10.9 2.6 1.3 6.5-4.3 4.3zM9.9 11c0-.6.5-1.1 1.1-1.1s1.1.5 1.1 1.1-.5 1.1-1.1 1.1-1.1-.5-1.1-1.1m5.1 9.8L13.2 19l5.8-5.8 1.8 1.8z" style="fill-rule:evenodd;clip-rule:evenodd"/></svg>