<svg xmlns="http://www.w3.org/2000/svg" xml:space="preserve" viewBox="0 0 24 24"><path d="M10.8 6.2c-.3-.8-.5-1.7-.7-2.6C9.9 2.1 8.6 1 7.1 1H3.8c-.8.1-1.5.5-2 1.1S1 3.5 1.1 4.3c.3 3.2 1.5 6.4 3.2 9.1.2.3.5.5.8.5.2 0 .4 0 .5-.2.5-.3.6-.9.3-1.4C4.4 9.8 3.4 7 3.1 4.1c0-.3 0-.5.2-.7s.5-.4.8-.4h3c.5 0 .9.4 1 .8.1 1 .4 2.1.8 3 .1.4 0 .8-.2 1L7.4 9.2c-.4.4-.4 1 0 1.4s1 .4 1.4 0l1.3-1.3c.8-.8 1.1-2 .7-3.1m-.8 6.4s-.1 0 0 0M23.7.3c-.4-.4-1-.4-1.4 0L10 12.6l-.1.1-2.8 2.8-6.9 6.8c-.4.4-.4 1 0 1.4.3.2.5.3.8.3s.5-.1.7-.3l6.2-6.2c.9.8 1.8 1.5 2.8 2.1 2.7 1.8 5.8 2.9 9.1 3.2h.3c.8 0 1.6-.3 2.1-.9s.9-1.3.9-2.1v-3c0-1.5-1.1-2.8-2.6-3-.9-.1-1.8-.3-2.6-.7-1.1-.4-2.3-.1-3.2.7l-.7.7c-.6-.4-1.2-.9-1.8-1.4L23.7 1.7c.4-.4.4-1 0-1.4M13.6 16.8c.4.2.9.2 1.2-.2l1.3-1.3c.3-.3.7-.4 1.1-.2 1 .4 2 .6 3 .8.5.1.9.5.9 1v3c0 .3-.1.5-.3.7s-.4.3-.8.3c-2.9-.3-5.7-1.3-8.2-2.9-.9-.5-1.7-1.2-2.4-1.8l1.4-1.4c.8.7 1.8 1.4 2.8 2"/></svg>