<svg xmlns="http://www.w3.org/2000/svg" width="24" height="24" fill="none"><path fill="#000" fill-rule="evenodd" d="M8.802 2.48a.875.875 0 0 1-.452 1.152 9.125 9.125 0 1 0 12.054 11.917.875.875 0 1 1 1.612.682A10.874 10.874 0 1 1 7.65 2.028a.875.875 0 0 1 1.152.452" clip-rule="evenodd"/><path fill="#000" fill-rule="evenodd" d="M11.382 1.381A.88.88 0 0 1 12 1.125 10.875 10.875 0 0 1 22.875 12a.875.875 0 0 1-.875.875H12a.875.875 0 0 1-.875-.875V2c0-.232.093-.455.257-.619m1.493 1.536v8.208h8.208a9.126 9.126 0 0 0-8.208-8.208" clip-rule="evenodd"/></svg>