<svg xmlns="http://www.w3.org/2000/svg" width="24" height="24" fill="none"><path fill="#000" fill-rule="evenodd" d="M12 2.875a9.125 9.125 0 1 0 0 18.25 9.125 9.125 0 0 0 0-18.25M1.125 12C1.125 5.994 5.994 1.125 12 1.125S22.875 5.994 22.875 12 18.006 22.875 12 22.875 1.125 18.006 1.125 12" clip-rule="evenodd"/><path fill="#000" fill-rule="evenodd" d="M9.587 7.229a.88.88 0 0 1 .898.043l6 4a.875.875 0 0 1 0 1.456l-6 4A.875.875 0 0 1 9.125 16V8c0-.323.178-.62.462-.771m1.288 2.406v4.73L14.423 12z" clip-rule="evenodd"/></svg>