<svg xmlns="http://www.w3.org/2000/svg" xml:space="preserve" id="Layer_1" x="0" y="0" version="1.1" viewBox="0 0 24 24"><style>.st0{fill-rule:evenodd;clip-rule:evenodd}</style><path d="M12 1.1C6 1.1 1.1 6 1.1 12S6 22.9 12 22.9 22.9 18 22.9 12 18 1.1 12 1.1m0 20c-5 0-9.1-4.1-9.1-9.1S7 2.9 12 2.9 21.1 7 21.1 12 17 21.1 12 21.1" class="st0"/><path d="M16.9 12c0 .5-.4.9-.9.9h-3.1V16c0 .5-.4.9-.9.9s-.9-.4-.9-.9v-3.1H8c-.5 0-.9-.4-.9-.9s.4-.9.9-.9h3.1V8c0-.5.4-.9.9-.9s.9.4.9.9v3.1H16c.5 0 .9.4.9.9" class="st0"/></svg>