<svg xmlns="http://www.w3.org/2000/svg" xml:space="preserve" viewBox="0 0 24 24"><path d="M10.2 17.9c-.6 0-1.1.5-1.2 1.2 0 .7.6 1.2 1.2 1.2.7 0 1.2-.6 1.2-1.2 0-.7-.6-1.2-1.2-1.2m3-13.8h-2.4c-.5 0-.9.4-.9.9s.4.9.9.9h2.4c.5 0 .9-.4.9-.9s-.4-.9-.9-.9m5.3 14.1H15c-.5 0-.9.4-.9.9 0 .4.3.8.9.9h3.5c.5 0 .9-.4.9-.9s-.4-.9-.9-.9m0 0H15c-.5 0-.9.4-.9.9 0 .4.3.8.9.9h3.5c.5 0 .9-.4.9-.9s-.4-.9-.9-.9m-8.3-.3c-.6 0-1.1.5-1.2 1.2 0 .7.6 1.2 1.2 1.2.7 0 1.2-.6 1.2-1.2 0-.7-.6-1.2-1.2-1.2m3-13.8h-2.4c-.5 0-.9.4-.9.9s.4.9.9.9h2.4c.5 0 .9-.4.9-.9s-.4-.9-.9-.9m8.4-1.3C21.5 1.5 20.3.5 19 .5H5.5c-1.3 0-2.4 1-2.6 2.3L.5 18.2v.8c0 2.4 2 4.4 4.4 4.4h14c2.4 0 4.4-2 4.4-4.4v-.3c.1-.1.1-.3.1-.4zM4.6 3c.1-.4.4-.8.9-.8H19c.5.1.9.4.9.9l1.5 12.2c-.7-.4-1.5-.7-2.3-.7H4.9c-.8 0-1.5.2-2.1.5zM19 21.6H4.9c-1.4 0-2.6-1.1-2.6-2.6 0-1.4 1.1-2.6 2.6-2.6H19c1.4 0 2.6 1.1 2.6 2.6 0 1.4-1.1 2.6-2.6 2.6m-.5-3.4H15c-.5 0-.9.4-.9.9 0 .4.3.8.9.9h3.5c.5 0 .9-.4.9-.9s-.4-.9-.9-.9M10.8 5.9h2.4c.5 0 .9-.4.9-.9s-.4-.9-.9-.9h-2.4c-.5 0-.9.4-.9.9s.4.9.9.9m-.6 12c-.6 0-1.1.5-1.2 1.2 0 .7.6 1.2 1.2 1.2.7 0 1.2-.6 1.2-1.2 0-.7-.6-1.2-1.2-1.2m3-13.8h-2.4c-.5 0-.9.4-.9.9s.4.9.9.9h2.4c.5 0 .9-.4.9-.9s-.4-.9-.9-.9m-3 13.8c-.6 0-1.1.5-1.2 1.2 0 .7.6 1.2 1.2 1.2.7 0 1.2-.6 1.2-1.2 0-.7-.6-1.2-1.2-1.2m8.3.3H15c-.5 0-.9.4-.9.9 0 .4.3.8.9.9h3.5c.5 0 .9-.4.9-.9s-.4-.9-.9-.9m-8.3-.3c-.6 0-1.1.5-1.2 1.2 0 .7.6 1.2 1.2 1.2.7 0 1.2-.6 1.2-1.2 0-.7-.6-1.2-1.2-1.2m8.3.3H15c-.5 0-.9.4-.9.9 0 .4.3.8.9.9h3.5c.5 0 .9-.4.9-.9s-.4-.9-.9-.9M13.2 4.1h-2.4c-.5 0-.9.4-.9.9s.4.9.9.9h2.4c.5 0 .9-.4.9-.9s-.4-.9-.9-.9" style="fill-rule:evenodd;clip-rule:evenodd"/></svg>