<svg xmlns="http://www.w3.org/2000/svg" xml:space="preserve" viewBox="0 0 24 24"><path d="M3.2 8.6c.4 0 .8.3.8.8 0 .4-.3.7-.7.7s-.7-.3-.7-.7c-.1-.5.2-.8.6-.8m3.6-1.9h10.3V2.4H6.8zm10.6 1.4H1.8c-.1 0-.2 0-.2.1l-.2.2v10.9c0 .1 0 .2.1.2.1.1.1.1.2.1h1.7v-1.5c0-.5.2-.9.5-1.2s.8-.5 1.2-.5h13.6c.5 0 .9.2 1.2.5s.5.8.5 1.2v1.5h1.7c.1 0 .2 0 .2-.1.1-.1.1-.1.1-.2V8.4c0-.1 0-.2-.1-.2-.1-.1-.1-.1-.2-.1zm1.2-5.9v4.5h3.6c.5 0 .9.2 1.3.5.3.3.5.8.5 1.2v10.9c0 .5-.2.9-.5 1.3-.3.3-.8.5-1.3.5h-1.7v.1c0 .5-.2.9-.5 1.2s-.8.5-1.2.5H5.2c-.5 0-.9-.2-1.2-.5s-.5-.8-.5-1.2v-.1H1.8c-.5 0-.9-.2-1.3-.5-.3-.3-.5-.7-.5-1.2v-11c0-.4.2-.9.5-1.2s.8-.5 1.3-.5h3.6V2.2c0-.3.1-.6.4-.9.2-.2.5-.3.8-.3h10.8c.3 0 .6.1.9.4.2.1.3.4.3.8m.2 15.7H5.2c-.1 0-.2 0-.2.1-.1.1-.1.1-.1.2v3c0 .1 0 .2.1.2.1.1.1.1.2.1h13.6c.1 0 .2 0 .2-.1.1-.1.1-.1.1-.2v-3c0-.1 0-.2-.1-.2s-.1-.1-.2-.1M6 8.6c.4 0 .7.3.7.7s-.3.7-.7.7-.7-.3-.7-.7.3-.7.7-.7" style="fill-rule:evenodd;clip-rule:evenodd"/></svg>