<svg xmlns="http://www.w3.org/2000/svg" xml:space="preserve" viewBox="0 0 24 24"><path d="M20 8.1h-1.1V2c0-.5-.4-.9-.9-.9H6c-.5 0-.9.4-.9.9v6.1H4c-1.6 0-2.9 1.3-2.9 2.9v5c0 1.6 1.3 2.9 2.9 2.9h1.1V22c0 .5.4.9.9.9h12c.5 0 .9-.4.9-.9v-3.1H20c1.6 0 2.9-1.3 2.9-2.9v-5c0-1.6-1.3-2.9-2.9-2.9M6.9 2.9h10.2v5.2H6.9zm10.2 18.2H6.9v-6.2h10.2zm4-5.1c0 .6-.5 1.1-1.1 1.1h-1.1V14c0-.5-.4-.9-.9-.9H6c-.5 0-.9.4-.9.9v3.1H4c-.6 0-1.1-.5-1.1-1.1v-5c0-.6.5-1.1 1.1-1.1h16c.6 0 1.1.5 1.1 1.1z" style="fill-rule:evenodd;clip-rule:evenodd"/></svg>