<svg xmlns="http://www.w3.org/2000/svg" width="24" height="24" fill="none"><path fill="#000" fill-rule="evenodd" d="M12 10.875a1.125 1.125 0 1 0 0 2.25 1.125 1.125 0 0 0 0-2.25M9.125 12a2.875 2.875 0 1 1 5.75 0 2.875 2.875 0 0 1-5.75 0M5.548 4.311a.875.875 0 0 1 0 1.238 9.125 9.125 0 0 0 0 12.902.875.875 0 0 1-1.237 1.238 10.875 10.875 0 0 1 0-15.378.875.875 0 0 1 1.237 0m12.903 0a.875.875 0 0 1 1.238 0 10.875 10.875 0 0 1 0 15.378.875.875 0 0 1-1.238-1.238 9.125 9.125 0 0 0 0-12.902.875.875 0 0 1 0-1.238M8.38 7.131a.875.875 0 0 1 0 1.238 5.125 5.125 0 0 0 0 7.252.875.875 0 1 1-1.238 1.238 6.875 6.875 0 0 1 0-9.728.875.875 0 0 1 1.238 0m7.242.01a.875.875 0 0 1 1.237 0 6.876 6.876 0 0 1 0 9.728.875.875 0 0 1-1.237-1.238 5.125 5.125 0 0 0 0-7.252.875.875 0 0 1 0-1.237Z" clip-rule="evenodd"/></svg>