<svg xmlns="http://www.w3.org/2000/svg" xml:space="preserve" viewBox="0 0 24 24"><path d="M20.9 9.4c-.7 0-1.4.3-1.9.7-1.8-1.3-4.1-2-6.7-2.1l1.4-6.2 4.3.9c0 1 .8 1.9 1.9 1.9 1 0 1.9-.9 1.9-2s-.8-2-1.9-2c-.7 0-1.4.4-1.7 1l-4.7-1c-.2.3-.5.6-.5.8l-1.5 6.8c-2.5 0-4.8.9-6.5 2-.5-.5-1.2-.8-1.9-.8-2.7 0-3.7 3.7-1.1 4.9-.1.4-.1.8-.1 1.3 0 4.1 4.6 7.4 10.2 7.4s10.2-3.3 10.2-7.4c0-.4 0-.8-.1-1.3 2.3-1.2 1.4-4.9-1.3-4.9M5.8 14.6c0-1 .8-2 1.9-2s1.9.8 1.9 2c0 1-.8 1.9-1.9 1.9-.9 0-1.9-.8-1.9-1.9m10.5 4.6c-1.8 1.8-6.7 1.8-8.5 0-.2-.2-.2-.5 0-.6q.3-.3.6 0c1.4 1.4 5.8 1.5 7.2 0q.3-.3.6 0c.3.1.3.4.1.6m-.1-2.7c-1 0-1.9-.8-1.9-1.9s.8-2 1.9-2c1 0 1.9.8 1.9 2 .1 1.1-.9 1.9-1.9 1.9"/></svg>