<svg xmlns="http://www.w3.org/2000/svg" xml:space="preserve" viewBox="0 0 24 24"><path d="M23.9 14v6c0 .5-.4.9-.9.9s-.9-.4-.9-.9v-4L19 19c-3.9 3.9-10.1 3.8-14 0-1-1-1.8-2.3-2.3-3.7-.2-.4.1-.9.5-1.1.5-.2 1 .1 1.1.5 1.5 4.2 6.1 6.4 10.4 4.9 1.1-.4 2.2-1.1 3-1.9l3-2.8H17c-.5 0-.9-.4-.9-.9s.4-.9.9-.9h6c.2 0 .5.1.6.3q.3.3.3.6m-3.1-4.2c-.5.2-1-.1-1.1-.5-1.5-4.2-6.1-6.4-10.4-4.9-1.1.4-2.2 1-3.1 1.9l-3 2.8H7c.5 0 .9.4.9.9s-.4.9-.9.9H1c-.2 0-.5-.1-.6-.3-.2-.2-.2-.4-.2-.6V4c0-.5.4-.9.9-.9s.8.4.8.9v4L5 5c1.2-1.2 2.6-2 4.2-2.5 5-1.5 10.3 1.3 12.1 6.2.2.5-.1 1-.5 1.1" style="fill-rule:evenodd;clip-rule:evenodd"/></svg>