<svg xmlns="http://www.w3.org/2000/svg" xml:space="preserve" viewBox="0 0 24 24"><path d="M21.3 15.3c-1.8 5.1-7.5 7.8-12.6 6C7.3 20.8 6.1 20 5 19l-3.2-3v4c0 .5-.4.9-.9.9s-.8-.4-.8-.9v-6c0-.2.1-.4.2-.6q.3-.3.6-.3h6c.5 0 .9.4.9.9s-.3.9-.8.9H3.2l3 2.8c3.2 3.2 8.3 3.2 11.5 0 .9-.9 1.5-1.9 1.9-3 .2-.5.7-.7 1.1-.5.5.1.8.6.6 1.1M23.9 4v6c0 .2-.1.4-.2.6q-.3.3-.6.3h-6c-.5 0-.9-.4-.9-.9s.4-.9.9-.9h3.8l-3-2.8c-1-1-2.2-1.7-3.5-2.1-4.1-1.2-8.5 1-9.9 5.1-.3.5-.8.7-1.3.5-.4-.1-.7-.6-.5-1.1 1.8-5.1 7.5-7.8 12.6-6C16.7 3.2 17.9 4 19 5l3.2 3V4c0-.5.4-.9.9-.9s.8.4.8.9" style="fill-rule:evenodd;clip-rule:evenodd"/></svg>