<svg xmlns="http://www.w3.org/2000/svg" xml:space="preserve" viewBox="0 0 24 24"><path d="M21.9 5c0 .2-.1.5-.3.6l-4 4c-.3.3-.9.3-1.2 0s-.3-.9 0-1.2l2.5-2.5H7C5.3 5.9 3.9 7.3 3.9 9v2c0 .5-.4.9-.9.9s-.9-.4-.9-.9V9c0-2.7 2.2-4.9 4.9-4.9h11.9l-2.5-2.5c-.3-.3-.3-.9 0-1.2s.9-.3 1.2 0l4 4c.2.1.3.4.3.6m0 8v2c0 2.7-2.2 4.9-4.9 4.9H5.1l2.5 2.5c.3.3.3.9 0 1.2s-.9.3-1.2 0l-4-4q-.3-.3-.3-.6 0-.45.3-.6l4-4c.3-.3.9-.3 1.2 0s.3.9 0 1.2l-2.5 2.5H17c1.7 0 3.1-1.4 3.1-3.1v-2c0-.5.4-.9.9-.9s.9.4.9.9" style="fill-rule:evenodd;clip-rule:evenodd"/></svg>