<svg xmlns="http://www.w3.org/2000/svg" xml:space="preserve" viewBox="0 0 24 24"><path d="M23.8 2.3c-.1-1-.8-1.8-1.8-1.9-1.8-.1-5.5 0-8.9 1.8-1.8.9-3.6 2.5-5.1 4.2l-3.4.3c-.6.1-1.2.4-1.5.9L.8 11c-.3.4-.3.9-.1 1.3s.6.8 1.1.8l2.6.4c-.1.6.1 1.2.5 1.7l3.9 3.9c.4.4 1.1.7 1.7.6l.4 2.6c.1.5.4.9.8 1.1.2.1.4.1.6.1.3 0 .5-.1.8-.2l3.5-2.3c.5-.3.8-.9.9-1.5l.2-3.3c1.8-1.5 3.3-3.4 4.2-5.1 1.5-2.9 1.8-5.9 1.8-7.9.1-.3.1-.6.1-.9M4.8 12l-2.3-.4 2-3.1c0-.1.1-.1.2-.1l1.8-.1c-.7 1.2-1.3 2.4-1.7 3.7m5.5 6.1c-.1 0-.2 0-.2-.1l-3.9-3.9c-.1-.1-.1-.1-.1-.2.1-.6.2-1.1.4-1.7l5.5 5.5c-.6.2-1.1.3-1.7.4m5.5 1.4c0 .1 0 .2-.1.2l-3.1 2-.4-2.3c1.3-.4 2.5-1 3.7-1.7zm4.7-9.1c-.8 1.6-2.2 3.3-3.8 4.6-.9.8-1.9 1.4-3 1.9l-6.5-6.5c.5-1 1.2-2 2-3 1.4-1.6 3-3 4.6-3.8C16.9 2 20.2 1.9 21.9 2c.1 0 .2.1.2.2.1 1.8 0 5.1-1.6 8.2"/><path d="M19 5.2c-.7-.7-1.5-1-2.5-1-.9 0-1.8.4-2.5 1-.7.7-1 1.5-1 2.5 0 .9.4 1.8 1 2.5.7.7 1.5 1 2.5 1 .9 0 1.8-.4 2.5-1 .7-.7 1-1.5 1-2.5 0-.9-.4-1.8-1-2.5M17.8 9c-.7.7-1.9.7-2.6 0-.3-.3-.5-.8-.5-1.3s.2-.9.5-1.3c.4-.3.8-.5 1.3-.5s1 .2 1.3.5c.3.4.5.8.5 1.3s-.2 1-.5 1.3M4.6 16.5c0 .2-.1.5-.2.6l-2.2 2.2q-.3.3-.6.3t-.6-.3c-.3-.3-.3-.9 0-1.2l2.2-2.2c.3-.3.9-.3 1.2 0 .1.1.2.3.2.6m2 2c0 .2-.1.4-.2.6l-4.2 4.2c-.2.2-.4.2-.6.2s-.4-.1-.6-.2c-.2-.2-.2-.4-.2-.6s.1-.4.2-.6l4.2-4.2c.3-.3.9-.3 1.2 0 .1.1.2.3.2.6m2 1.9c0 .2-.1.4-.2.6l-2.2 2.2c-.2.2-.4.2-.6.2s-.4-.1-.6-.2c-.3-.3-.3-.9 0-1.2l2.2-2.2c.3-.3.9-.3 1.2 0 .1.2.2.4.2.6"/></svg>