<svg xmlns="http://www.w3.org/2000/svg" xml:space="preserve" id="Layer_1" x="0" y="0" version="1.1" viewBox="0 0 24 24"><style>.st0{fill-rule:evenodd;clip-rule:evenodd}</style><path d="M23.9 4v6c0 .5-.4.9-.9.9h-6c-.5 0-.9-.4-.9-.9s.4-.9.9-.9h3.8l-3-2.8C16.5 5 14.9 4.2 13.2 4 8.7 3.3 4.6 6.4 4 10.9s2.5 8.6 6.9 9.2c3.8.5 7.5-1.7 8.8-5.3.2-.5.6-.7 1.1-.6s.7.6.6 1.1c-1.8 5.1-7.5 7.8-12.6 6S1 13.8 2.8 8.7s7.5-7.8 12.6-6C16.7 3.2 17.9 4 19 5l3.1 3V4c0-.5.4-.9.9-.9s.9.4.9.9m-1.1 6.9h.2zm1.1-.9" class="st0"/><path d="M23.9 10c0 .2-.1.4-.2.5-.2.2-.4.2-.6.3.4 0 .7-.3.8-.8" class="st0"/></svg>