<svg xmlns="http://www.w3.org/2000/svg" width="24" height="24" fill="none"><path fill="#000" fill-rule="evenodd" d="M3.125 11c0-.483.392-.875.875-.875A9.875 9.875 0 0 1 13.875 20a.875.875 0 0 1-1.75 0A8.125 8.125 0 0 0 4 11.875.875.875 0 0 1 3.125 11" clip-rule="evenodd"/><path fill="#000" fill-rule="evenodd" d="M3.125 4c0-.483.392-.875.875-.875A16.875 16.875 0 0 1 20.875 20a.875.875 0 0 1-1.75 0A15.125 15.125 0 0 0 4 4.875.875.875 0 0 1 3.125 4M5 18.875a.125.125 0 1 0 0 .25.125.125 0 0 0 0-.25M3.125 19a1.875 1.875 0 1 1 3.75 0 1.875 1.875 0 0 1-3.75 0" clip-rule="evenodd"/></svg>