<svg xmlns="http://www.w3.org/2000/svg" xml:space="preserve" viewBox="0 0 24 24"><path d="M23 6.7 17.3 1c-.3-.3-.9-.3-1.2 0L1 16.1c-.3.3-.3.9 0 1.2L6.7 23q.3.3.6.3t.6-.3L23 7.9q.3-.3.3-.6c-.1-.2-.2-.5-.3-.6m-3 1.7-2.2-2.2c-.2-.1-.4-.2-.6-.2s-.5.1-.6.3c-.3.3-.3.9 0 1.2l2.2 2.2-1.3 1.3-1.3-1.3c-.3-.3-.9-.3-1.2 0s-.3.9 0 1.2l1.3 1.3-1.3 1.3-2.2-2.2c-.3-.3-.9-.3-1.2 0s-.3.9 0 1.2l2.2 2.2-1.4 1.3-1.3-1.3c-.3-.3-.9-.3-1.2 0q-.3.3-.3.6t.3.6l1.3 1.3-1.3 1.3-2.2-2.2c-.3-.3-.9-.3-1.2 0q-.3.3-.3.6t.3.6l2.2 2.2-1.4 1.4-4.4-4.4L16.7 2.9l4.4 4.4z"/></svg>