<svg xmlns="http://www.w3.org/2000/svg" width="24" height="24" fill="none"><path fill="#000" fill-rule="evenodd" d="M6 4.875A1.125 1.125 0 0 0 4.875 6v1a.875.875 0 1 1-1.75 0V6A2.875 2.875 0 0 1 6 3.125h2a.875.875 0 1 1 0 1.75zm-2 11.25c.483 0 .875.392.875.875v1A1.125 1.125 0 0 0 6 19.125h2a.875.875 0 0 1 0 1.75H6A2.875 2.875 0 0 1 3.125 18v-1c0-.483.392-.875.875-.875m12-13a.875.875 0 0 0 0 1.75h2A1.125 1.125 0 0 1 19.125 6v1a.875.875 0 0 0 1.75 0V6A2.875 2.875 0 0 0 18 3.125zm4 13c.483 0 .875.392.875.875v1A2.875 2.875 0 0 1 18 20.875h-2a.875.875 0 0 1 0-1.75h2A1.125 1.125 0 0 0 19.125 18v-1c0-.483.392-.875.875-.875m-15-5a.875.875 0 0 0 0 1.75h14a.875.875 0 0 0 0-1.75z" clip-rule="evenodd"/></svg>