<svg xmlns="http://www.w3.org/2000/svg" xml:space="preserve" viewBox="0 0 24 24"><path d="M21.1 13V4.1c0-1.5-1.2-2.7-2.7-2.7h-1.2V.8c0-.4-.4-.8-.8-.8s-.8.4-.8.8v.6h-2.3V.8c0-.4-.4-.8-.8-.8s-.8.4-.8.8v.6H9.4V.8C9.4.4 9 0 8.6 0c-.5 0-.8.4-.8.8v.6H5.5V.8c0-.4-.4-.8-.8-.8-.5 0-.8.4-.8.8v.6H2.7C1.2 1.4 0 2.6 0 4.1V18c0 1.2 1 2.2 2.2 2.2h10.3c.8 2.2 3 3.8 5.5 3.8 3.3 0 5.9-2.7 5.9-5.9.1-2.2-1.1-4.1-2.8-5.1M1.6 4.1c0-.6.5-1 1-1h1.2v.6c0 .4.4.8.8.8s.8-.4.8-.8v-.6h2.3v.6c0 .4.4.8.8.8s.8-.4.8-.8v-.6h2.3v.6c0 .4.4.8.8.8s.8-.4.8-.8v-.6h2.3v.6c0 .4.4.8.8.8.5 0 .8-.4.8-.8v-.6h1.2c.6 0 1 .5 1 1v2H1.4v-2zm10.6 14.5h-10c-.3 0-.6-.3-.6-.6V7.7h17.9v4.7c-.4-.1-.9-.2-1.4-.2-3.3 0-5.9 2.7-5.9 5.9zm5.9 3.8c-2.4 0-4.3-1.9-4.3-4.3s1.9-4.3 4.3-4.3 4.3 1.9 4.3 4.3c0 2.3-2 4.3-4.3 4.3"/><path d="M14 10c0 .4-.4.8-.8.8H12c-.4 0-.8-.4-.8-.8 0-.5.4-.8.8-.8h1.2c.5 0 .8.3.8.8m-4.1 0c0 .4-.4.8-.8.8H7.9c-.4 0-.8-.4-.8-.8 0-.5.4-.8.8-.8h1.2c.4 0 .8.3.8.8m8.2 0c0 .4-.4.8-.8.8h-1.2c-.4 0-.8-.4-.8-.8 0-.5.4-.8.8-.8h1.2c.5 0 .8.3.8.8M5.8 13.1c0 .4-.4.8-.8.8H3.8c-.4 0-.8-.4-.8-.8 0-.5.4-.8.8-.8H5c.4 0 .8.4.8.8m4.1 0c0 .4-.4.8-.8.8H7.9c-.4 0-.8-.4-.8-.8 0-.5.4-.8.8-.8h1.2c.4 0 .8.4.8.8m4.1 0c0 .4-.4.8-.8.8H12c-.4 0-.8-.4-.8-.8 0-.5.4-.8.8-.8h1.2c.5 0 .8.4.8.8m-8.2 3.1c0 .4-.4.8-.8.8H3.8c-.4 0-.8-.4-.8-.8s.4-.8.8-.8H5c.4 0 .8.4.8.8m4.1 0c0 .4-.4.8-.8.8H7.9c-.4 0-.8-.4-.8-.8s.4-.8.8-.8h1.2c.4 0 .8.4.8.8m11.3 1.9c0 .4-.4.8-.8.8h-2.3c-.5 0-.8-.4-.8-.8v-2.3c0-.5.4-.8.8-.8s.8.4.8.8v1.5h1.5c.5 0 .8.3.8.8"/></svg>