<svg xmlns="http://www.w3.org/2000/svg" xml:space="preserve" id="Layer_1" x="0" y="0" version="1.1" viewBox="0 0 24 24"><style>.st0{fill-rule:evenodd;clip-rule:evenodd}</style><path d="m20.6 19.4-5.5-5.5c-.3-.3-.9-.3-1.2 0s-.3.9 0 1.2l5.5 5.5c.3.3.9.3 1.2 0s.4-.9 0-1.2" class="st0"/><path d="M20.6 3.4c-.3-.3-.9-.3-1.2 0L12 10.8 9.3 8c.4-.6.6-1.3.6-2 0-2.1-1.7-3.9-3.9-3.9S2.1 3.9 2.1 6 3.9 9.9 6 9.9c.8 0 1.5-.2 2-.6l2.7 2.7L8 14.7c-.6-.4-1.3-.6-2-.6-2.1 0-3.9 1.7-3.9 3.9s1.7 3.9 3.9 3.9 3.9-1.7 3.9-3.9c0-.8-.2-1.5-.6-2L20.6 4.6c.4-.3.4-.9 0-1.2M7.5 7.5q-.6.6-1.5.6c-1.2 0-2.1-1-2.1-2.1s1-2.1 2.1-2.1 2.1 1 2.1 2.1q0 .9-.6 1.5M6 20.1c-1.2 0-2.1-1-2.1-2.1s1-2.1 2.1-2.1q.9 0 1.5.6c.6.6.6.9.6 1.5 0 1.2-.9 2.1-2.1 2.1" class="st0"/></svg>