<svg xmlns="http://www.w3.org/2000/svg" width="24" height="24" fill="none"><path fill="#000" fill-rule="evenodd" d="M4 2.875c-.621 0-1.125.504-1.125 1.125v4c0 .621.504 1.125 1.125 1.125h16c.621 0 1.125-.504 1.125-1.125V4c0-.621-.504-1.125-1.125-1.125zM1.125 4A2.875 2.875 0 0 1 4 1.125h16A2.875 2.875 0 0 1 22.875 4v4A2.875 2.875 0 0 1 20 10.875H4A2.875 2.875 0 0 1 1.125 8zM4 14.875c-.621 0-1.125.504-1.125 1.125v4c0 .621.504 1.125 1.125 1.125h16c.621 0 1.125-.504 1.125-1.125v-4c0-.621-.504-1.125-1.125-1.125zM1.125 16A2.875 2.875 0 0 1 4 13.125h16A2.875 2.875 0 0 1 22.875 16v4A2.875 2.875 0 0 1 20 22.875H4A2.875 2.875 0 0 1 1.125 20z" clip-rule="evenodd"/><path fill="#000" fill-rule="evenodd" d="M5.125 6c0-.483.392-.875.875-.875h.01a.875.875 0 1 1 0 1.75H6A.875.875 0 0 1 5.125 6m0 12c0-.483.392-.875.875-.875h.01a.875.875 0 0 1 0 1.75H6A.875.875 0 0 1 5.125 18" clip-rule="evenodd"/></svg>