<svg xmlns="http://www.w3.org/2000/svg" xml:space="preserve" viewBox="0 0 24 24"><path d="M12 15.6c-2 0-3.6-1.6-3.6-3.6S10 8.4 12 8.4s3.6 1.6 3.6 3.6-1.6 3.6-3.6 3.6m0-5.6c-1.1 0-2 .9-2 2s.9 2 2 2 2-.9 2-2-.9-2-2-2"/><path d="M12.1 23c-1.5 0-2.7-1.2-2.7-2.7 0-.4-.2-.6-.5-.7s-.6-.1-.8.1c-1.1 1.1-2.8 1.1-3.8.1-.5-.5-.8-1.2-.8-1.9s.3-1.4.8-1.9c.3-.3.3-.6.2-.8-.1-.3-.4-.4-.7-.4h-.1c-1.5 0-2.7-1.2-2.7-2.7s1.2-2.7 2.7-2.7c.4 0 .6-.2.7-.5s.1-.6-.1-.8C3.2 7 3.2 5.3 4.2 4.3s2.7-1 3.8 0c.3.3.6.3.8.2.1 0 .1 0 .2-.1.2-.1.3-.4.3-.6v-.1C9.3 2.2 10.5 1 12 1s2.7 1.2 2.7 2.7c0 .4.2.6.4.7.3.1.6.1.8-.1.6-.6 1.2-.8 1.9-.8s1.4.3 1.9.8c1 1 1 2.7 0 3.8-.3.3-.3.6-.2.8 0 .1 0 .1.1.2.1.2.4.3.6.3h.2c1.5 0 2.7 1.2 2.7 2.7s-1.2 2.7-2.7 2.7c-.4 0-.6.2-.7.4-.1.3-.1.6.1.8.6.6.8 1.2.8 1.9a2.73 2.73 0 0 1-2.7 2.7c-.7 0-1.4-.3-1.9-.8-.3-.3-.6-.3-.8-.2-.3.1-.4.4-.4.7v.2c-.1 1.3-1.3 2.5-2.7 2.5m-3.5-5.1c.3 0 .6.1.9.2.9.3 1.5 1.2 1.5 2.1v.1c0 .6.5 1 1 1 .6 0 1-.5 1-1v-.2c0-.9.6-1.8 1.4-2.1.9-.4 1.9-.2 2.6.5.5.5 1.1.5 1.5.1s.4-1.1 0-1.5c-.7-.7-.9-1.8-.5-2.6.4-.9 1.2-1.4 2.1-1.4.7 0 1.1-.5 1.1-1s-.5-1-1-1H20c-.9 0-1.8-.6-2.1-1.4.1-.2.1-.3.1-.4-.3-.8-.1-1.8.5-2.4.5-.5.5-1.1.1-1.5-.2-.2-.5-.3-.7-.3-.3 0-.5.1-.7.3-.7.7-1.8.9-2.6.5-1-.4-1.6-1.2-1.6-2.1 0-.7-.5-1.1-1-1.1s-1 .5-1 1v.2c0 .9-.6 1.8-1.4 2.1h-.3c-.8.3-1.8.1-2.4-.5-.5-.5-1.1-.5-1.5-.1-.5.4-.4 1.1 0 1.5.7.7.9 1.8.5 2.6-.3.9-1.2 1.5-2.1 1.5h-.1c-.6 0-1 .5-1 1 0 .6.5 1 1 1h.2c.9 0 1.8.6 2.1 1.4.4.9.2 1.9-.5 2.6-.3.3-.4.5-.4.8s.1.5.3.7c.4.4 1.1.4 1.5 0 .5-.3 1.1-.6 1.7-.6m10.3-3.1"/></svg>