<svg xmlns="http://www.w3.org/2000/svg" xml:space="preserve" id="Layer_1" x="0" y="0" version="1.1" viewBox="0 0 24 24"><style>.st0{fill-rule:evenodd;clip-rule:evenodd}</style><path d="M20 11.1c-.5 0-.9.4-.9.9v8c0 .6-.5 1.1-1.1 1.1H6c-.6 0-1.1-.5-1.1-1.1v-8c0-.5-.4-.9-.9-.9s-.9.4-.9.9v8c0 1.6 1.3 2.9 2.9 2.9h12c1.6 0 2.9-1.3 2.9-2.9v-8c0-.5-.4-.9-.9-.9" class="st0"/><path d="M16.6 6.6c-.3.3-.9.3-1.2 0l-2.5-2.5V15c0 .5-.4.9-.9.9s-.9-.4-.9-.9V4.1L8.6 6.6c-.3.4-.9.4-1.2 0-.4-.3-.4-.9 0-1.2l4-4q.3-.3.6-.3.45 0 .6.3l4 4c.4.3.4.9 0 1.2" class="st0"/></svg>