<svg xmlns="http://www.w3.org/2000/svg" xml:space="preserve" viewBox="0 0 24 24"><path d="M18 15.1c-1.1 0-2.1.5-2.8 1.2l-5.5-3.2c.1-.4.2-.7.2-1.1s-.1-.8-.2-1.1l5.5-3.2c.7.8 1.7 1.2 2.8 1.2 2.1 0 3.9-1.7 3.9-3.9S20.1 1.1 18 1.1 14.1 2.9 14.1 5c0 .4.1.8.2 1.1L8.8 9.3C8.1 8.6 7.1 8.1 6 8.1c-2.1 0-3.9 1.7-3.9 3.9s1.7 3.9 3.9 3.9c1.1 0 2.1-.5 2.8-1.2l5.5 3.2c-.1.4-.2.8-.2 1.2 0 2.1 1.7 3.9 3.9 3.9s3.9-1.7 3.9-3.9-1.8-4-3.9-4m0-12.2c1.2 0 2.1 1 2.1 2.1s-1 2.1-2.1 2.1c-.8 0-1.5-.4-1.8-1-.2-.3-.3-.7-.3-1.1 0-1.2.9-2.1 2.1-2.1M7.8 13.1c-.4.6-1 1-1.8 1-1.2 0-2.1-1-2.1-2.1s1-2.1 2.1-2.1c.8 0 1.5.4 1.8 1 .2.3.3.7.3 1.1s-.1.8-.3 1.1m10.2 8c-1.2 0-2.1-1-2.1-2.1 0-.4.1-.7.3-1v-.1c0-.1 0 0 0 0 .4-.6 1-1 1.8-1 1.2 0 2.1 1 2.1 2.1s-.9 2.1-2.1 2.1" style="fill-rule:evenodd;clip-rule:evenodd"/></svg>