<svg xmlns="http://www.w3.org/2000/svg" xml:space="preserve" viewBox="0 0 24 24"><path d="M23.6 22.4 18.2 17 5.2 4 1.6.4C1.3 0 .7 0 .4.4c-.4.3-.4.9 0 1.2l2.9 2.9c-.1.2-.2.3-.2.5v7c0 3.4 2.2 6.1 4.3 7.9 1.3 1.1 2.6 2 4.1 2.8.2.1.5.1.8 0 1.9-1 3.7-2.3 5.2-3.9l4.8 4.7c.3.3.9.3 1.2 0 .5-.2.5-.8.1-1.1M12 21c-1.2-.7-2.4-1.5-3.4-2.4-2-1.7-3.7-4-3.7-6.6V6.1l11.5 11.5C15.1 19 13.6 20.1 12 21m8.3-16.8-8-3q-.3-.15-.6 0L8.5 2.4c-.4.1-.7.6-.5 1.1.2.4.7.7 1.2.5L12 2.9l7.1 2.7V12c0 .6-.1 1.2-.3 1.7-.1.4.1.9.6 1 .5.2 1-.1 1.1-.5.2-.7.3-1.5.4-2.2V5c0-.4-.2-.7-.6-.8" style="fill-rule:evenodd;clip-rule:evenodd"/></svg>