<svg xmlns="http://www.w3.org/2000/svg" xml:space="preserve" id="Layer_1" x="0" y="0" version="1.1" viewBox="0 0 24 24"><style>.st0{fill-rule:evenodd;clip-rule:evenodd}</style><path d="M21.9 5.8v-.1s0-.1-.1-.1c0 0 0-.1-.1-.1l-3-4c-.2-.2-.4-.4-.7-.4H6c-.3 0-.5.1-.7.4 0 0-2.6 3.5-3 4 0 0-.1.1-.1.2 0 0 0 .1-.1.1v14.3C2.1 21.7 3.4 23 5 23h14c1.6 0 2.9-1.3 2.9-2.9zM6.4 2.9h11.1l1.7 2.2H4.8zM20.1 20c0 .6-.5 1.1-1.1 1.1H5c-.6 0-1.1-.5-1.1-1.1V6.9h16.2z" class="st0"/><path d="M16 9.1c-.5 0-.9.4-.9.9 0 1.7-1.4 3.1-3.1 3.1S8.9 11.7 8.9 10c0-.5-.4-.9-.9-.9s-.9.4-.9.9c0 2.7 2.2 4.9 4.9 4.9s4.9-2.2 4.9-4.9c0-.5-.4-.9-.9-.9" class="st0"/></svg>