<svg xmlns="http://www.w3.org/2000/svg" width="24" height="24" fill="none"><path fill="#000" fill-rule="evenodd" d="M9 20.875a.125.125 0 1 0 0 .25.125.125 0 0 0 0-.25M7.125 21a1.875 1.875 0 1 1 3.75 0 1.875 1.875 0 0 1-3.75 0M20 20.875a.125.125 0 1 0 0 .25.125.125 0 0 0 0-.25M18.125 21a1.875 1.875 0 1 1 3.75 0 1.875 1.875 0 0 1-3.75 0m-18-20C.125.517.517.125 1 .125h4c.417 0 .776.294.858.703l.86 4.297H23a.875.875 0 0 1 .86 1.039l-1.602 8.396a2.875 2.875 0 0 1-2.866 2.315H9.688a2.875 2.875 0 0 1-2.866-2.314L5.15 6.211l-.016-.077-.852-4.259H1A.875.875 0 0 1 .125 1m6.943 5.875 1.47 7.345a1.125 1.125 0 0 0 1.125.905h9.754a1.125 1.125 0 0 0 1.124-.903v-.002l1.401-7.345z" clip-rule="evenodd"/></svg>