<svg xmlns="http://www.w3.org/2000/svg" xml:space="preserve" viewBox="0 0 24 24"><path d="M21.9 3v5c0 .5-.4.9-.9.9s-.9-.4-.9-.9V5.1L4.6 20.6c-.3.3-.9.3-1.2 0s-.3-.9 0-1.2L18.9 3.9H16c-.5 0-.9-.4-.9-.9s.4-.9.9-.9h5c.2 0 .5.1.6.3s.3.4.3.6M9.6 8.4l-5-5c-.3-.4-.9-.4-1.2 0-.4.3-.4.9 0 1.2l5 5c.3.3.9.3 1.2 0 .4-.3.4-.9 0-1.2M21.9 16v5c0 .2-.1.5-.3.6s-.4.3-.6.3h-5c-.5 0-.9-.4-.9-.9s.4-.9.9-.9h2.9l-4.5-4.5c-.3-.3-.3-.9 0-1.2s.9-.3 1.2 0l4.5 4.5V16c0-.5.4-.9.9-.9s.9.4.9.9" style="fill-rule:evenodd;clip-rule:evenodd"/></svg>