<svg xmlns="http://www.w3.org/2000/svg" xml:space="preserve" viewBox="0 0 24 24"><path d="M9.2 12.6c-1.2 0-2.3 1-2.3 2.3v5.6c0 1.2 1.1 2.2 2.3 2.2s2.2-1 2.2-2.2v-5.6c0-1.3-1-2.3-2.2-2.3m-7.9 2.2C1.3 16 2.4 17 3.6 17s2.2-1 2.2-2.2v-2.3H3.5c-1.2.1-2.2 1.1-2.2 2.3M9.2 1.2C7.9 1.3 6.9 2.3 7 3.6c0 1.2 1 2.2 2.2 2.2h2.3V3.5c-.1-1.2-1.1-2.3-2.3-2.3M3.5 11.4h5.7c1.2 0 2.2-1.1 2.2-2.3s-1-2.2-2.2-2.2H3.5C2.3 6.9 1.3 8 1.3 9.2s1 2.2 2.2 2.2m17-4.5c-1.2 0-2.3 1-2.3 2.3v2.3h2.3c1.2 0 2.2-1.1 2.2-2.3-.1-1.3-1-2.3-2.2-2.3m-7.9-3.4v5.7c0 1.2 1 2.3 2.3 2.3s2.3-1 2.3-2.3V3.5c0-1.2-1-2.3-2.3-2.3-1.3.1-2.3 1.1-2.3 2.3m4.5 17c0-1.2-1-2.3-2.3-2.3h-2.3v2.3c0 1.2 1 2.3 2.3 2.3 1.3-.1 2.3-1.1 2.3-2.3m3.4-7.9h-5.7c-1.2 0-2.2 1.1-2.2 2.3s1 2.2 2.2 2.2h5.7c1.2 0 2.2-1.1 2.2-2.3s-1-2.2-2.2-2.2"/></svg>