<svg xmlns="http://www.w3.org/2000/svg" xml:space="preserve" viewBox="0 0 24 24"><path d="M4 2.1c-.5 0-.9.4-.9.9v7c0 .5.4.9.9.9s.9-.4.9-.9V3c0-.5-.4-.9-.9-.9m8 9c-.5 0-.9.4-.9.9v9c0 .5.4.9.9.9s.9-.4.9-.9v-9c0-.5-.4-.9-.9-.9m8-9c-.5 0-.9.4-.9.9v9c0 .5.4.9.9.9s.9-.4.9-.9V3c0-.5-.4-.9-.9-.9M23.9 16c0 .5-.4.9-.9.9h-2.1V21c0 .5-.4.9-.9.9s-.9-.4-.9-.9v-4.1H17c-.5 0-.9-.4-.9-.9s.4-.9.9-.9h6c.5 0 .9.4.9.9m-8-8c0 .5-.4.9-.9.9H9c-.5 0-.9-.4-.9-.9s.4-.9.9-.9h2.1V3c0-.5.4-.9.9-.9s.9.4.9.9v4.1H15c.5 0 .9.4.9.9m-8 6c0 .5-.4.9-.9.9H4.9V21c0 .5-.4.9-.9.9s-.9-.4-.9-.9v-6.1H1c-.5 0-.9-.4-.9-.9s.4-.9.9-.9h6c.5 0 .9.4.9.9" style="fill-rule:evenodd;clip-rule:evenodd"/></svg>