<svg xmlns="http://www.w3.org/2000/svg" width="24" height="24" fill="none"><path fill="#000" fill-rule="evenodd" d="M7 2.875c-.621 0-1.125.504-1.125 1.125v16c0 .621.504 1.125 1.125 1.125h10c.621 0 1.125-.504 1.125-1.125V4c0-.621-.504-1.125-1.125-1.125zM4.125 4A2.875 2.875 0 0 1 7 1.125h10A2.875 2.875 0 0 1 19.875 4v16A2.875 2.875 0 0 1 17 22.875H7A2.875 2.875 0 0 1 4.125 20z" clip-rule="evenodd"/><path fill="#000" fill-rule="evenodd" d="M11.125 18c0-.483.392-.875.875-.875h.01a.875.875 0 0 1 0 1.75H12a.875.875 0 0 1-.875-.875" clip-rule="evenodd"/></svg>