<svg xmlns="http://www.w3.org/2000/svg" width="24" height="24" fill="none"><path fill="#000" fill-rule="evenodd" d="M12 2.875a9.125 9.125 0 1 0 0 18.25 9.125 9.125 0 0 0 0-18.25M1.125 12C1.125 5.994 5.994 1.125 12 1.125S22.875 5.994 22.875 12 18.006 22.875 12 22.875 1.125 18.006 1.125 12" clip-rule="evenodd"/><path fill="#000" fill-rule="evenodd" d="M8.698 13.472A.875.875 0 0 0 7.3 14.525L8 14l-.7.525v.001l.002.002.002.003.007.009.02.026.068.082a6.8 6.8 0 0 0 1.149 1.06c.784.57 1.96 1.167 3.452 1.167s2.668-.597 3.452-1.167a6.8 6.8 0 0 0 1.149-1.06l.068-.082.02-.026.007-.01.002-.002.001-.002S16.7 14.525 16 14l.7.525a.875.875 0 0 0-1.398-1.053m0 0-.005.007a4 4 0 0 1-.202.228 5 5 0 0 1-.672.585c-.591.43-1.414.833-2.423.833s-1.832-.403-2.423-.833a5 5 0 0 1-.837-.769l-.037-.044-.005-.007m6.602.003.001-.002.001-.001M8.125 9c0-.483.392-.875.875-.875h.01a.875.875 0 1 1 0 1.75H9A.875.875 0 0 1 8.125 9m6 0c0-.483.392-.875.875-.875h.01a.875.875 0 0 1 0 1.75H15A.875.875 0 0 1 14.125 9" clip-rule="evenodd"/></svg>