<svg xmlns="http://www.w3.org/2000/svg" xml:space="preserve" viewBox="0 0 24 24"><path d="M20.2 19.2c.9-.1 2.6-.4 2.9-1.2.2-.4-.1-.7-.4-.8-3-.5-4.3-3.6-4.4-3.7-.8-1.5 1.4-1.2 2.3-2.1s-.5-1.9-1.4-1.4c-.4.2-.9.4-1.2.2.1-1.4.3-3.7-.3-5C15.8.9 10.1.8 7.5 3.2c-2.1 2-1.8 4-1.6 7-.6.3-1.3-.3-1.7-.3-.5 0-1.1.3-1.1.8-.1.6.6 1 1.2 1.3 1 .4 2 .5 1.4 1.6-.7 1.7-2.4 3.4-4.4 3.7-.3.1-.5.4-.4.8.3.6 2.1.9 2.9 1.1.3.5.1 1.4.9 1.4.3 0 .9-.2 1.7-.2 1.1 0 1.5.2 2.4.9s1.9 1.3 3.2 1.2c1.3.1 2.3-.5 3.3-1.2.9-.7 1.6-1.1 3.6-.8 1.4.3.9-.7 1.3-1.3"/></svg>