<svg xmlns="http://www.w3.org/2000/svg" xml:space="preserve" viewBox="0 0 24 24"><path d="m11 17.5-4.2 4.2c-.2.2-.3.3-.5.3h-.2c-.1 0-.2 0-.3-.1-.1 0-.2-.1-.3-.2l-4.2-4.2c-.4-.3-.4-.9 0-1.2.3-.4.9-.4 1.2 0L5.2 19V3.2c0-.5.4-.9.9-.9.5.1.9.5.9.9V19l2.8-2.8c.3-.4.9-.4 1.2 0s.3 1 0 1.3m11.7-9.4c-.3.3-.9.3-1.2 0l-2.8-2.7v15.8c0 .5-.4.9-.9.9s-.9-.4-.9-.9V5.3l-2.8 2.8c-.3.3-.9.3-1.2 0s-.3-.9 0-1.2l4.2-4.2q.3-.3.6-.3c.1 0 .2 0 .3.1 0 0 .1 0 .2.1.1 0 .1.1.1.1l4.2 4.2c.5.3.5.9.2 1.2" style="fill-rule:evenodd;clip-rule:evenodd"/></svg>