<svg xmlns="http://www.w3.org/2000/svg" width="24" height="24" fill="none"><path fill="#000" fill-rule="evenodd" d="M6 2.875c-.621 0-1.125.504-1.125 1.125v16c0 .621.504 1.125 1.125 1.125h12c.621 0 1.125-.504 1.125-1.125V4c0-.621-.504-1.125-1.125-1.125zM3.125 4A2.875 2.875 0 0 1 6 1.125h12A2.875 2.875 0 0 1 20.875 4v16A2.875 2.875 0 0 1 18 22.875H6A2.875 2.875 0 0 1 3.125 20z" clip-rule="evenodd"/><path fill="#000" fill-rule="evenodd" d="M12 10.875a3.125 3.125 0 1 0 0 6.25 3.125 3.125 0 0 0 0-6.25M7.125 14a4.875 4.875 0 1 1 9.75 0 4.875 4.875 0 0 1-9.75 0m4-8c0-.483.392-.875.875-.875h.01a.875.875 0 0 1 0 1.75H12A.875.875 0 0 1 11.125 6" clip-rule="evenodd"/></svg>