<svg xmlns="http://www.w3.org/2000/svg" xml:space="preserve" viewBox="0 0 24 24"><path d="M18.7 0H5C3.6 0 2.4 1.2 2.4 2.6v18.8C2.4 22.8 3.6 24 5 24h13.6c1.4 0 2.6-1.2 2.6-2.6V2.6c0-1.4-1.1-2.6-2.5-2.6m1.1 21.4c0 .6-.5 1.2-1.2 1.2H5c-.6 0-1.2-.5-1.2-1.2V2.6c0-.6.5-1.2 1.2-1.2h13.6c.6 0 1.2.5 1.2 1.2z"/><path d="M11.8 10.9c-3 0-5.4 2.4-5.4 5.4s2.4 5.4 5.4 5.4 5.4-2.4 5.4-5.4-2.4-5.4-5.4-5.4m0 9.3c-2.2 0-4-1.8-4-4s1.8-4 4-4 4 1.8 4 4-1.8 4-4 4m0-10.8c1.9 0 3.5-1.6 3.5-3.5s-1.6-3.5-3.5-3.5S8.3 4 8.3 5.9s1.6 3.5 3.5 3.5m0-5.6c1.2 0 2.1.9 2.1 2.1S13 8 11.8 8c-1.1 0-2.1-1-2.1-2.1s1-2.1 2.1-2.1"/></svg>