<svg xmlns="http://www.w3.org/2000/svg" xml:space="preserve" viewBox="0 0 24 24"><path d="M12 23c6.1 0 11-4.9 11-11S18.1 1 12 1 1 5.9 1 12s4.9 11 11 11m4.5-5.8c-.7 0-3.1-2.6-9.6-1.2-.2 0-.4.1-.5.1-.8 0-1-1.3-.1-1.4 3.6-.8 7.3-.7 10.5 1.2.7.4.3 1.3-.3 1.3m1.2-2.9c-.1 0-.1.1-.5-.2-2.8-1.6-6.9-2.3-10.6-1.3-.2.1-.3.1-.5.1-1 0-1.2-1.5-.2-1.8 4.3-1.2 9-.5 12.2 1.4.4.2.5.5.5.9-.1.5-.5.9-.9.9M5.2 7.4c4.1-1.2 10.4-.8 14.3 1.4 1 .6.6 2-.5 2-.2 0-.4-.1-.6-.2C15.3 8.8 9.7 8.4 6 9.4c-.2 0-.4.1-.6.1-.6 0-1-.5-1-1 0-.6.4-1 .8-1.1"/></svg>