<svg xmlns="http://www.w3.org/2000/svg" width="24" height="24" fill="none"><path fill="#000" fill-rule="evenodd" d="M11.996 1.5c.333 0 .637.19.785.488l2.886 5.848 6.456.943a.875.875 0 0 1 .484 1.493l-4.67 4.549 1.101 6.426a.875.875 0 0 1-1.27.922l-5.772-3.035-5.773 3.035a.875.875 0 0 1-1.27-.922l1.103-6.426-4.67-4.55A.875.875 0 0 1 1.87 8.78l6.455-.943 2.886-5.848a.88.88 0 0 1 .785-.488Zm0 2.852-2.305 4.67a.88.88 0 0 1-.658.479l-5.157.754 3.73 3.633a.88.88 0 0 1 .253.775l-.88 5.132 4.61-2.424a.88.88 0 0 1 .814 0l4.611 2.424-.88-5.132a.88.88 0 0 1 .252-.775l3.73-3.633L14.96 9.5a.88.88 0 0 1-.659-.479z" clip-rule="evenodd"/></svg>