<svg xmlns="http://www.w3.org/2000/svg" xml:space="preserve" viewBox="0 0 24 24"><path d="M17.9 1.8c-3.3 0-6.1 2.7-6.2 6.1L8 13.2c-1-.1-2 .1-2.8.6l-5.2-2v5.7l3.1 1.3c.4 2.1 2.3 3.5 4.5 3.5 2.4 0 4.3-1.8 4.5-4.1l5.8-4.3c3.3 0 6.1-2.7 6.1-6.1 0-3.3-2.7-6-6.1-6M4.6 19.3c.5.2 1.1.4 1.7.6 1.4.5 2.9-.1 3.4-1.5s-.1-2.9-1.5-3.4l-1.5-.6c2.1-.4 4.1 1 4.1 3.2.1 1.9-4.6 4.7-6.2 1.7m13.3-7.4c-2.3 0-4.1-1.8-4.1-4.1 0-2.2 1.9-4.1 4.1-4.1 2.3 0 4.1 1.8 4.1 4.1 0 2.2-1.9 4.1-4.1 4.1"/><path d="M17.9 4.6c-1.8 0-3.2 1.5-3.2 3.2s1.5 3.2 3.2 3.2c1.8 0 3.2-1.5 3.2-3.2s-1.4-3.2-3.2-3.2"/></svg>