<svg xmlns="http://www.w3.org/2000/svg" xml:space="preserve" viewBox="0 0 24 24"><path d="M12 7.9c-2.3 0-4.1 1.8-4.1 4.1s1.8 4.1 4.1 4.1 4.1-1.8 4.1-4.1-1.8-4.1-4.1-4.1M6.1 12c0-3.2 2.6-5.9 5.9-5.9s5.9 2.6 5.9 5.9-2.6 5.9-5.9 5.9-5.9-2.7-5.9-5.9M12 .1c.5 0 .9.4.9.9v2c0 .5-.4.9-.9.9s-.9-.4-.9-.9V1c0-.5.4-.9.9-.9m0 20c.5 0 .9.4.9.9v2c0 .5-.4.9-.9.9s-.9-.4-.9-.9v-2c0-.5.4-.9.9-.9M3.6 3.6c.3-.3.9-.3 1.2 0L6.3 5c.3.3.3.9 0 1.2s-.9.4-1.3.1L3.6 4.8c-.3-.3-.3-.9 0-1.2m14.1 14.1c.3-.3.9-.3 1.2 0l1.4 1.4c.3.3.3.9 0 1.2s-.9.3-1.2 0L17.7 19c-.3-.4-.3-.9 0-1.3M.1 12c0-.5.4-.9.9-.9h2c.5 0 .9.4.9.9s-.4.9-.9.9H1c-.5 0-.9-.4-.9-.9m20 0c0-.5.4-.9.9-.9h2c.5 0 .9.4.9.9s-.4.9-.9.9h-2c-.5 0-.9-.4-.9-.9M6.3 17.7c.3.3.3.9 0 1.2l-1.4 1.4c-.3.3-.9.3-1.2 0s-.3-.9 0-1.2L5 17.7c.4-.3.9-.3 1.3 0M20.4 3.6c.3.3.3.9 0 1.2L19 6.3c-.3.3-.9.3-1.2 0s-.3-.9 0-1.2l1.4-1.4c.3-.4.9-.4 1.2-.1" style="fill-rule:evenodd;clip-rule:evenodd"/></svg>