<svg xmlns="http://www.w3.org/2000/svg" xml:space="preserve" viewBox="0 0 24 24"><path d="M23 21.1H1c-.5 0-.9.4-.9.9s.4.9.9.9h22c.5 0 .9-.4.9-.9s-.4-.9-.9-.9M20.4 9.6c-.3-.3-.9-.3-1.2 0L17.7 11c-.3.3-.3.9 0 1.2s.9.3 1.2 0l1.4-1.4c.4-.3.4-.9.1-1.2m2.6 7.5h-2c-.5 0-.9.4-.9.9s.4.9.9.9h2c.5 0 .9-.4.9-.9s-.4-.9-.9-.9m-20 0H1c-.5 0-.9.4-.9.9s.4.9.9.9h2c.5 0 .9-.4.9-.9s-.4-.9-.9-.9M6.3 11 4.8 9.6c-.3-.3-.9-.3-1.2 0s-.3.9 0 1.2L5 12.3c.3.3.9.3 1.2 0 .4-.4.4-.9.1-1.3m9.9 2.8c-2.3-2.3-6-2.3-8.3 0Q6.1 15.6 6.1 18c0 .5.4.9.9.9s.9-.4.9-.9c0-2.3 1.8-4.1 4.1-4.1s4.1 1.8 4.1 4.1c0 .5.4.9.9.9s.9-.4.9-.9c0-1.6-.6-3-1.7-4.2m.4-8.2-4 4c-.3.3-.9.3-1.2 0l-4-4c-.4-.3-.4-.9 0-1.2.3-.4.9-.4 1.2 0l2.5 2.5V2c0-.5.4-.9.9-.9s.9.4.9.9v4.9l2.5-2.5c.3-.3.9-.3 1.2 0 .4.3.4.9 0 1.2" style="fill-rule:evenodd;clip-rule:evenodd"/></svg>