<svg xmlns="http://www.w3.org/2000/svg" width="24" height="24" fill="none"><path fill="#000" fill-rule="evenodd" d="M2.967 2.967c.54-.54 1.27-.842 2.033-.842h14A2.875 2.875 0 0 1 21.875 5v14A2.875 2.875 0 0 1 19 21.875H5A2.875 2.875 0 0 1 2.125 19V5c0-.763.303-1.494.842-2.033m.908 5.158h4.25v-4.25H5A1.125 1.125 0 0 0 3.875 5zm6-4.25v4.25h10.25V5A1.125 1.125 0 0 0 19 3.875zm10.25 6H9.875v10.25H19A1.125 1.125 0 0 0 20.125 19zm-12 10.25V9.875h-4.25V19A1.125 1.125 0 0 0 5 20.125z" clip-rule="evenodd"/></svg>