<svg xmlns="http://www.w3.org/2000/svg" width="24" height="24" fill="none"><path fill="#000" fill-rule="evenodd" d="M1.125 2c0-.483.392-.875.875-.875h10c.232 0 .455.092.619.256l8.592 8.592a2.875 2.875 0 0 1 0 4.054l-.621-.617.619.619-7.17 7.17a2.88 2.88 0 0 1-3.135.623 2.9 2.9 0 0 1-.932-.623m0 0-8.59-8.58A.88.88 0 0 1 1.125 12V2m18.844 10.793h.001a1.125 1.125 0 0 0 0-1.585v-.001l-8.332-8.332H2.875v8.762l8.333 8.324a1.13 1.13 0 0 0 1.228.245q.206-.087.365-.244z" clip-rule="evenodd"/><path fill="#000" fill-rule="evenodd" d="M6.125 7c0-.483.392-.875.875-.875h.01a.875.875 0 1 1 0 1.75H7A.875.875 0 0 1 6.125 7" clip-rule="evenodd"/></svg>