<svg xmlns="http://www.w3.org/2000/svg" width="24" height="24" fill="none"><path fill="#000" fill-rule="evenodd" d="M12 2.875a9.125 9.125 0 1 0 0 18.25 9.125 9.125 0 0 0 0-18.25M1.125 12C1.125 5.994 5.994 1.125 12 1.125S22.875 5.994 22.875 12 18.006 22.875 12 22.875 1.125 18.006 1.125 12" clip-rule="evenodd"/><path fill="#000" fill-rule="evenodd" d="M12 6.875a5.125 5.125 0 1 0 0 10.25 5.125 5.125 0 0 0 0-10.25M5.125 12a6.875 6.875 0 1 1 13.75 0 6.875 6.875 0 0 1-13.75 0" clip-rule="evenodd"/><path fill="#000" fill-rule="evenodd" d="M12 10.875a1.125 1.125 0 1 0 0 2.25 1.125 1.125 0 0 0 0-2.25M9.125 12a2.875 2.875 0 1 1 5.75 0 2.875 2.875 0 0 1-5.75 0" clip-rule="evenodd"/></svg>