<svg xmlns="http://www.w3.org/2000/svg" xml:space="preserve" viewBox="0 0 24 24"><path d="M19.7 1.1H5.8c-1.4 0-2.6 1-2.9 2.4l-1.4 9v.5c0 1.6 1.3 2.9 2.9 2.8h4.8V19c0 2.1 1.7 3.9 3.9 3.9.3 0 .7-.2.8-.5l3.8-8.5h2.1c1.6 0 3-1.2 3.2-2.8V3.9c-.3-1.6-1.7-2.8-3.3-2.8m-3.6 11.7L12.4 21c-.9-.2-1.6-1.1-1.6-2.1v-4c0-.5-.4-.9-.9-.9H4.3c-.6 0-1.1-.5-1.1-1.1v-.2l1.4-9c.1-.5.6-1 1.1-1h10.4zm5-1.9c-.1.7-.7 1.2-1.4 1.2h-1.8V2.9h1.8c.3 0 .7.1 1 .3s.4.5.5.8v6.9z" style="fill-rule:evenodd;clip-rule:evenodd"/></svg>