<svg xmlns="http://www.w3.org/2000/svg" width="24" height="24" fill="none"><path fill="#000" fill-rule="evenodd" d="M16.823 2.939a5.124 5.124 0 0 0-5.497 7.17c.15.332.08.722-.178.98l-6.91 6.91a1.246 1.246 0 1 0 1.763 1.762l6.91-6.91a.875.875 0 0 1 .98-.178 5.125 5.125 0 0 0 7.17-5.497l-2.75 2.749a1.875 1.875 0 0 1-2.624 0l-.006-.006-1.606-1.606a1.875 1.875 0 0 1 0-2.626l.006-.006zm-2.06-1.706a6.9 6.9 0 0 1 4.067.5.875.875 0 0 1 .258 1.416l-3.765 3.765a.125.125 0 0 0 0 .172l1.59 1.59a.125.125 0 0 0 .172 0l3.766-3.765a.875.875 0 0 1 1.416.258 6.875 6.875 0 0 1-8.526 9.327l-6.503 6.503a2.996 2.996 0 0 1-4.237-4.238l6.503-6.503a6.875 6.875 0 0 1 5.26-9.025Z" clip-rule="evenodd"/></svg>