<svg xmlns="http://www.w3.org/2000/svg" xml:space="preserve" id="Layer_1" x="0" y="0" version="1.1" viewBox="0 0 24 24"><style>.st0{fill-rule:evenodd;clip-rule:evenodd}</style><path d="M21 5.1h-4.1V4c0-1.6-1.3-2.9-2.9-2.9h-4C8.4 1.1 7.1 2.4 7.1 4v1.1H3c-.5 0-.9.4-.9.9s.4.9.9.9h1.1V20c0 1.6 1.3 2.9 2.9 2.9h10c1.6 0 2.9-1.3 2.9-2.9V6.9H21c.5 0 .9-.4.9-.9s-.4-.9-.9-.9M8.9 4c0-.6.5-1.1 1.1-1.1h4c.6 0 1.1.5 1.1 1.1v1.1H8.9zm9.2 16c0 .6-.5 1.1-1.1 1.1H7c-.6 0-1.1-.5-1.1-1.1V6.9h12.2z" class="st0"/><path d="M10 10.1c.5 0 .9.4.9.9v6c0 .5-.4.9-.9.9s-.9-.4-.9-.9v-6c0-.5.4-.9.9-.9m4 0c.5 0 .9.4.9.9v6c0 .5-.4.9-.9.9s-.9-.4-.9-.9v-6c0-.5.4-.9.9-.9" class="st0"/></svg>