<svg xmlns="http://www.w3.org/2000/svg" xml:space="preserve" viewBox="0 0 24 24"><path d="m23.6 10.4-3-3q-.3-.3-.6-.3h-3.1V3c0-.5-.4-.9-.9-.9H1c-.5 0-.9.4-.9.9v13c0 .5.4.9.9.9h1.5c-.3.5-.4 1-.4 1.6 0 1.9 1.5 3.4 3.4 3.4s3.4-1.5 3.4-3.4c0-.6-.2-1.1-.4-1.6h7.1c-.3.5-.4 1-.4 1.6 0 1.9 1.5 3.4 3.4 3.4s3.4-1.5 3.4-3.4c0-.6-.2-1.1-.4-1.6H23c.5 0 .9-.4.9-.9v-5c0-.2-.1-.5-.3-.6M5.5 20.1c-.9 0-1.6-.7-1.6-1.6s.7-1.6 1.6-1.6 1.6.7 1.6 1.6-.7 1.6-1.6 1.6m9.6-5H1.9V3.9h13.2zm3.4 5c-.9 0-1.6-.7-1.6-1.6s.7-1.6 1.6-1.6 1.6.7 1.6 1.6-.7 1.6-1.6 1.6m3.6-5h-5.2V8.9h2.8l2.5 2.5v3.7z" style="fill-rule:evenodd;clip-rule:evenodd"/></svg>