<svg xmlns="http://www.w3.org/2000/svg" xml:space="preserve" viewBox="0 0 24 24"><path d="M18.9 10H7.8V6.9c0-1 .4-2 1.1-2.8s1.6-1.2 2.6-1.3 2.1.2 2.9.8S15.8 5 15.9 6c.1.5.5.8 1 .7s.8-.5.7-1c-.2-1.4-1.1-2.7-2.3-3.6-1.2-.8-2.7-1.2-4.1-1-1.3 0-2.7.7-3.7 1.9C6.6 4.1 6 5.5 6 6.9V10H4.9C3.3 10 2 11.3 2 12.9v7c0 1.6 1.3 2.9 2.9 2.9h14c1.6 0 2.9-1.3 2.9-2.9v-7c0-1.6-1.3-2.9-2.9-2.9m1.1 9.9c0 .6-.5 1.1-1.1 1.1h-14c-.6 0-1.1-.5-1.1-1.1v-7c0-.6.5-1.1 1.1-1.1h14c.6 0 1.1.5 1.1 1.1z" style="fill-rule:evenodd;clip-rule:evenodd"/></svg>