<svg xmlns="http://www.w3.org/2000/svg" xml:space="preserve" id="Layer_1" x="0" y="0" version="1.1" viewBox="0 0 24 24"><style>.st0{fill-rule:evenodd;clip-rule:evenodd}</style><path d="M8.7 2.1c3.9-.1 7.5 2.3 8.7 6h.6c3.2 0 5.9 2.6 5.9 5.9 0 .8-.2 1.6-.5 2.3-.5 1.2-1.4 2.2-2.6 2.8-.4.2-1 0-1.2-.4s-.1-.9.3-1.2c2-1.1 2.7-3.6 1.7-5.6-.7-1.3-2.1-2.2-3.6-2.2h-1.3c-.4 0-.7-.3-.8-.7-1-3.8-4.9-6.1-8.7-5.1S1.1 9 2.1 12.8c.3 1.1.8 2.1 1.6 2.9.3.4.2.9-.2 1.3-.4.3-.9.3-1.2-.1-3.2-3.7-2.9-9.3.8-12.5C4.7 3 6.6 2.2 8.7 2.1" class="st0"/><path d="M16.6 16.6c-.3.3-.9.3-1.2 0l-2.5-2.5V21c0 .5-.4.9-.9.9s-.9-.4-.9-.9v-6.9l-2.5 2.5c-.3.3-.9.3-1.2 0s-.3-.9 0-1.2l4-4c.3-.3.9-.3 1.2 0l4 4c.4.3.4.9 0 1.2" class="st0"/></svg>