<svg xmlns="http://www.w3.org/2000/svg" xml:space="preserve" id="Layer_1" x="0" y="0" version="1.1" viewBox="0 0 24 24"><style>.st0{fill-rule:evenodd;clip-rule:evenodd}</style><path d="M21 14.1c-.5 0-.9.4-.9.9v4c0 .6-.5 1.1-1.1 1.1H5c-.6 0-1.1-.5-1.1-1.1v-4c0-.5-.4-.9-.9-.9s-.9.4-.9.9v4c0 1.6 1.3 2.9 2.9 2.9h14c1.6 0 2.9-1.3 2.9-2.9v-4c0-.5-.4-.9-.9-.9" class="st0"/><path d="M17.6 8.6c-.3.3-.9.3-1.2 0l-3.5-3.5V15c0 .5-.4.9-.9.9s-.9-.4-.9-.9V5.1L7.6 8.6c-.3.4-.9.4-1.2 0-.4-.3-.4-.9 0-1.2l5-5q.3-.3.6-.3.45 0 .6.3l5 5c.4.3.4.9 0 1.2" class="st0"/></svg>