<svg xmlns="http://www.w3.org/2000/svg" width="24" height="24" fill="none"><path fill="#000" d="M18.517 13.057a11.1 11.1 0 0 0-3.015-1.537 5.84 5.84 0 0 0 2.342-4.676A5.85 5.85 0 0 0 12 1a5.85 5.85 0 0 0-5.844 5.844c0 1.912.924 3.613 2.348 4.68a11.2 11.2 0 0 0-3.601 1.979 11.2 11.2 0 0 0-3.847 6.348A2.61 2.61 0 0 0 3.608 23h8.865a.86.86 0 1 0 0-1.719H3.608a.87.87 0 0 1-.688-.327.9.9 0 0 1-.182-.752c.892-4.284 4.67-7.413 9.034-7.519a6 6 0 0 0 .457 0 9.4 9.4 0 0 1 5.285 1.77.86.86 0 1 0 1.003-1.396m-6.308-2.094a11 11 0 0 0-.417 0 4.13 4.13 0 0 1-3.917-4.12A4.13 4.13 0 0 1 12 2.72a4.13 4.13 0 0 1 4.125 4.125 4.13 4.13 0 0 1-3.916 4.12Z"/><path fill="#000" d="m20.563 19.348 2.185-2.186a.86.86 0 0 0-1.215-1.215l-2.185 2.185-2.186-2.185a.86.86 0 1 0-1.215 1.215l2.185 2.186-2.185 2.185a.86.86 0 0 0 1.215 1.215l2.186-2.185 2.185 2.185a.857.857 0 0 0 1.215 0 .86.86 0 0 0 0-1.215z"/></svg>