<svg xmlns="http://www.w3.org/2000/svg" width="24" height="24" fill="none"><path fill="#000" d="M22.64 15.011a.86.86 0 0 0-1.198.199l-4.236 5.905a.49.49 0 0 1-.706.037l-2.738-2.666a.86.86 0 0 0-1.215.014.857.857 0 0 0 .014 1.213l2.743 2.672.008.007a2.22 2.22 0 0 0 1.67.603 2.22 2.22 0 0 0 1.604-.857l4.253-5.93a.857.857 0 0 0-.198-1.197Z"/><path fill="#000" d="M11.773 12.662a6 6 0 0 0 .455 0 9.46 9.46 0 0 1 5.995 2.328.86.86 0 0 0 1.213-.082.857.857 0 0 0-.081-1.21 11.2 11.2 0 0 0-3.857-2.195 5.83 5.83 0 0 0 2.346-4.67C17.844 3.617 15.222 1 12 1S6.156 3.617 6.156 6.833c0 1.909.923 3.606 2.348 4.671a11.2 11.2 0 0 0-3.601 1.976 11.2 11.2 0 0 0-3.847 6.337A2.6 2.6 0 0 0 1.587 22c.497.61 1.233.96 2.02.96h7.577a.859.859 0 1 0 0-1.716H3.608a.87.87 0 0 1-.688-.326.9.9 0 0 1-.182-.752c.892-4.276 4.67-7.4 9.035-7.504M7.875 6.833a4.126 4.126 0 0 1 8.25 0c0 2.2-1.739 4.003-3.917 4.112a12 12 0 0 0-.416 0 4.126 4.126 0 0 1-3.917-4.112"/></svg>