<svg xmlns="http://www.w3.org/2000/svg" width="24" height="24" fill="none"><path fill="#000" d="M16.794 12.04a11 11 0 0 0-1.293-.52 5.84 5.84 0 0 0 2.343-4.676A5.85 5.85 0 0 0 12 1a5.85 5.85 0 0 0-5.844 5.844c0 1.912.924 3.613 2.348 4.68a11.2 11.2 0 0 0-3.601 1.979 11.2 11.2 0 0 0-3.847 6.348A2.61 2.61 0 0 0 3.608 23H14.19a.86.86 0 1 0 0-1.719H3.608a.87.87 0 0 1-.688-.327.9.9 0 0 1-.182-.752c.892-4.284 4.67-7.413 9.034-7.519a6 6 0 0 0 .458 0 9.4 9.4 0 0 1 3.826.908.86.86 0 0 0 .738-1.552Zm-4.584-1.076a11 11 0 0 0-.418 0 4.13 4.13 0 0 1-3.917-4.12A4.13 4.13 0 0 1 12 2.719a4.13 4.13 0 0 1 4.125 4.125 4.13 4.13 0 0 1-3.915 4.12"/><path fill="#000" d="M22.14 18.059h-2.363v-2.364a.86.86 0 1 0-1.718 0v2.364h-2.364a.86.86 0 1 0 0 1.718h2.364v2.364a.86.86 0 1 0 1.718 0v-2.364h2.364a.86.86 0 1 0 0-1.718Z"/></svg>