<svg xmlns="http://www.w3.org/2000/svg" xml:space="preserve" viewBox="0 0 24 24"><path d="M23.7 6.5c-.3-.4-.8-.5-1.2-.2l-5.4 3.9-.2-.2V7c0-1.6-1.3-2.9-2.9-2.9h-3.3c-.5 0-.9.4-.9.9s.4.9.9.9H14c.6 0 1.1.5 1.1 1.1v3.3c0 .2.1.4.2.6l1 1c.3.3.8.3 1.1.1L22 8.7V17c0 .5.4.9.9.9s.9-.4.9-.9V7c.1-.2 0-.4-.1-.5m-.1 15.9L1.6.4C1.3 0 .7 0 .4.4c-.4.3-.4.9 0 1.2l2.5 2.5C1.3 4.2.1 5.5.1 7v10c0 1.6 1.3 2.9 2.9 2.9h11c1.2 0 2.3-.8 2.7-1.9l5.7 5.7c.3.3.9.3 1.2 0 .4-.4.4-1 0-1.3M15.1 17c0 .6-.5 1.1-1.1 1.1H3c-.6 0-1.1-.5-1.1-1.1V7c0-.6.5-1.1 1.1-1.1h1.6l10.5 10.5z" style="fill-rule:evenodd;clip-rule:evenodd"/></svg>