<svg xmlns="http://www.w3.org/2000/svg" xml:space="preserve" viewBox="0 0 24 24"><path d="M19.9 13c-.4-.5-.3-.7 0-1.1 0 0 3.2-4.4 3.5-5.9.2-.5 0-.9-.8-.9H20c-.7 0-1 .3-1.1.7 0 0-1.3 3.2-3.2 5.3-.6.6-.9.8-1.2.8-.2 0-.4-.2-.4-.7V5.9c-.1-.6-.3-.9-.8-.9H9.2c-.5 0-.7.3-.7.6 0 .6.9.8 1 2.5v3.8c0 .8-.2 1-.5 1-.8 0-3-3.2-4.3-6.9-.2-.7-.5-1-1.2-1H.9c-.7 0-.9.3-.9.7 0 .7.9 4.1 4.1 8.6 2.2 3.1 5.2 4.7 8 4.7 1.7 0 1.9-.4 1.9-1 0-2.9-.2-3.2.7-3.2.4 0 1.1.2 2.6 1.7 1.8 1.7 2.1 2.5 3.1 2.5H23c.7 0 1.1-.4.9-1.1-.5-1.5-3.8-4.7-4-4.9"/></svg>