<svg xmlns="http://www.w3.org/2000/svg" width="24" height="24" fill="none"><path fill="#000" fill-rule="evenodd" d="M11.379 4.211a.88.88 0 0 1 .496.789v14a.875.875 0 0 1-1.422.683l-4.76-3.808H2A.875.875 0 0 1 1.125 15V9c0-.483.392-.875.875-.875h3.693l4.76-3.808a.88.88 0 0 1 .926-.106m-1.254 2.61L6.547 9.683A.88.88 0 0 1 6 9.875H2.875v4.25H6c.199 0 .391.068.547.192l3.578 2.863zm8.326-2.51a.875.875 0 0 1 1.238 0 10.875 10.875 0 0 1 0 15.378.875.875 0 0 1-1.238-1.238 9.125 9.125 0 0 0 0-12.902.875.875 0 0 1 0-1.238m-3.53 3.53a.875.875 0 0 1 1.238 0 5.875 5.875 0 0 1 0 8.308.875.875 0 0 1-1.238-1.238 4.125 4.125 0 0 0 0-5.832.875.875 0 0 1 0-1.238" clip-rule="evenodd"/></svg>