<svg xmlns="http://www.w3.org/2000/svg" xml:space="preserve" viewBox="0 0 24 24"><path d="m14 12.7-1.2-1.2V8.9c0-.5-.4-.9-.9-.9s-.9.4-.9.8v3q0 .3.3.6l1.5 1.5c.3.3.9.3 1.2 0s.3-.9 0-1.2m0 0-1.2-1.2V8.9c0-.5-.4-.9-.9-.9s-.9.4-.9.8v3q0 .3.3.6l1.5 1.5c.3.3.9.3 1.2 0s.3-.9 0-1.2m0 0-1.2-1.2V8.9c0-.5-.4-.9-.9-.9s-.9.4-.9.8v3q0 .3.3.6l1.5 1.5c.3.3.9.3 1.2 0s.3-.9 0-1.2m0 0-1.2-1.2V8.9c0-.5-.4-.9-.9-.9s-.9.4-.9.8v3q0 .3.3.6l1.5 1.5c.3.3.9.3 1.2 0s.3-.9 0-1.2m3.3-6.5L17 2.7c-.1-.8-.4-1.5-1-2-.5-.4-1.2-.7-1.9-.7H9.7c-.8 0-1.3.3-1.8.7l-.1.1c-.4.4-.9 1.1-.9 1.9l-.4 3.4A8 8 0 0 0 4 11.9c0 2.2.9 4.3 2.5 5.7l.3 3.5v.1c.2.6.4 1.2.8 1.7.1.1.1.2.2.2.5.4 1.2.7 1.9.7h4.1c.4 0 .8-.1 1.1-.2.4-.1.7-.3 1-.6.4-.4.9-1.1.9-1.9l.4-3.4c1.5-1.4 2.5-3.5 2.5-5.8 0-2.1-.8-4.2-2.4-5.7M8.7 2.8c0-.2 0-.3.1-.4 0-.1.1-.2.2-.3.3-.3.5-.3.7-.4h4.4q.45 0 .9.3c.1.1.2.3.2.6v.1l.2 2.1c-2.2-1.1-4.7-1.1-6.9 0zM15.1 21c0 .2 0 .3-.1.4 0 .1-.1.2-.2.3s-.2.2-.3.2c-.2.1-.4.1-.5.1H9.7c-.2 0-.5-.1-.7-.2-.2-.3-.3-.5-.4-.8l-.2-2c1.1.5 2.3.8 3.5.8s2.3-.3 3.4-.8zm1-4.6c-.2.1-.4.2-.5.4-1.1.8-2.4 1.3-3.7 1.2-3.4 0-6.1-2.8-6.1-6.1 0-3.4 2.7-6.1 6-6.1h.1c3.4 0 6.1 2.7 6.1 6v.1c0 1.7-.7 3.3-1.9 4.5m-3.3-4.9V8.9c0-.5-.4-.9-.9-.9s-.9.4-.9.8v3q0 .3.3.6l1.5 1.5c.3.3.9.3 1.2 0s.3-.9 0-1.2zm1.2 1.2-1.2-1.2V8.9c0-.5-.4-.9-.9-.9s-.9.4-.9.8v3q0 .3.3.6l1.5 1.5c.3.3.9.3 1.2 0s.3-.9 0-1.2m0 0-1.2-1.2V8.9c0-.5-.4-.9-.9-.9s-.9.4-.9.8v3q0 .3.3.6l1.5 1.5c.3.3.9.3 1.2 0s.3-.9 0-1.2" style="fill-rule:evenodd;clip-rule:evenodd"/></svg>