<svg xmlns="http://www.w3.org/2000/svg" width="24" height="24" fill="none"><path fill="#000" d="M17.1 5.168 16.035.615a.796.796 0 0 0-.78-.615h-6.51a.796.796 0 0 0-.78.615L6.902 5.168C2.468 9 2.468 15 6.9 18.833l1.065 4.552c.082.36.405.615.78.615h6.51a.796.796 0 0 0 .78-.615l1.064-4.553C21.534 15 21.534 9 17.1 5.168m-7.717-3.57h5.235l.615 2.61a8.54 8.54 0 0 0-6.465 0zm5.235 20.805H9.383l-.615-2.61c.06.022.128.044.188.067 2.01.78 4.282.735 6.277-.067zm.743-4.448C10.965 20.528 5.048 17.115 5.168 12c-.12-5.115 5.798-8.527 10.193-5.955 4.575 2.46 4.575 9.45 0 11.91"/><path fill="#000" d="m13.14 14.62-2.133-2.133a.7.7 0 0 1-.206-.5V8.4h1.42v3.26l1.953 1.927-1.033 1.033Z"/></svg>