<svg xmlns="http://www.w3.org/2000/svg" xml:space="preserve" viewBox="0 0 24 24"><path d="M12.8 9.6c-7.2 3.7-2.4 13.7 6.6 11.1.8.3 1.6.9 2.4 1.3-.2-.7-.4-1.4-.7-2.1 2.8-2 3.4-4.8 2.4-7.1-1.6-3.7-6.7-5.2-10.7-3.2m2.5 3.7c-.2.7-1.2.9-1.6.4-.5-.5-.3-1.4.4-1.6.7-.4 1.6.4 1.2 1.2m4.8.1c-.2.6-1.1.7-1.6.3-.2-.2-.3-.5-.3-.7.1-.5.4-.9.9-1 .8-.1 1.4.7 1 1.4"/><path d="M17.4 8.2c-.4-2.1-1.9-4-3.8-5C6.9-.5-1.4 4.7.2 11c.4 1.8 1.7 3.4 3.3 4.4-.3.9-.6 1.7-.9 2.6 1-.5 2-1 2.9-1.6 1.2.4 2.4.6 3.7.5-1.6-4.4 2.4-9.1 8.2-8.7m-6.1-2.5c.8-.3 1.8.3 1.7 1.2 0 1-1.3 1.6-2 .9-.8-.5-.5-1.8.3-2.1M6.9 7.1c-.1.9-1.3 1.3-1.9.7-.8-.5-.6-1.9.3-2.1.9-.4 1.9.5 1.6 1.4"/></svg>