<svg xmlns="http://www.w3.org/2000/svg" xml:space="preserve" viewBox="0 0 24 24"><path d="M17.3 14.2c-2.1-1-2.3-1.1-2.6-.7-.2.3-.7.9-.9 1.1s-.3.2-.6.1-1.2-.4-2.3-1.4c-.9-.8-1.4-1.7-1.6-2-.3-.5.3-.6.8-1.6.1-.2 0-.4 0-.5-.1-.1-.7-1.5-.9-2.1s-.5-.5-.7-.5c-.6 0-1 0-1.3.3-1.5 1.7-1.2 3.5.2 5.3 2.6 3.4 4 4 6.5 4.9.7.2 1.3.2 1.8.1.6-.1 1.7-.7 1.9-1.4s.2-1.2.2-1.4c0 0-.2-.1-.5-.2"/><path d="M20.2 3.8C12.8-3.3.6 1.8.6 11.9c0 2 .5 4 1.5 5.7L.5 23.5l6.1-1.6c7.6 4.1 16.9-1.3 16.9-10 0-3-1.2-5.9-3.3-8.1m1.4 8.1c0 7.3-8 11.9-14.4 8.1l-.3-.2-3.6.9 1-3.5-.3-.3c-4-6.3.6-14.5 8.1-14.5 2.5 0 4.9 1 6.7 2.8 1.8 1.7 2.8 4.2 2.8 6.7"/></svg>