<svg xmlns="http://www.w3.org/2000/svg" xml:space="preserve" viewBox="0 0 24 24"><path d="M22.6 10.7c.2 0 .5-.1.7-.3.4-.4.4-1 0-1.3-3-3-7-4.7-11.2-4.7-.5 0-1 0-1.6.1-.5 0-.9.5-.8 1 0 .5.5.9 1 .8.5 0 1-.1 1.4-.1 3.7 0 7.3 1.5 9.9 4.1.1.3.3.4.6.4M19 14.3c.2 0 .5-.1.7-.3.4-.4.4-1 0-1.3-1.4-1.4-3-2.3-4.9-2.8-.5-.1-1 .2-1.1.7s.2 1 .7 1.1c1.5.4 2.9 1.2 4 2.3q.15.3.6.3m-8.4 5.9c0 .8.6 1.4 1.4 1.4s1.4-.6 1.4-1.4-.6-1.4-1.4-1.4-1.4.6-1.4 1.4m6.4 1.3c.2 0 .4-.1.6-.2.4-.3.5-.9.2-1.3l-7.3-9.8-5.6-7.4c-.3-.4-.8-.5-1.3-.2-.4.3-.5.9-.2 1.3L5 6.1c-1.6.8-3 1.8-4.3 3-.4.4-.4 1 0 1.3.2.2.4.3.7.3.2 0 .5-.1.7-.3 1.2-1.2 2.6-2.1 4.1-2.8l2 2.7c-1.4.5-2.7 1.4-3.8 2.5-.4.4-.4 1 0 1.3.2.2.4.3.7.3s.5-.1.7-.3c1-1 2.3-1.8 3.7-2.2l2.1 2.9c-1.4 0-2.6.6-3.6 1.6-.4.4-.4 1 0 1.3.2.2.4.3.7.3.2 0 .5-.1.7-.3.6-.7 1.6-1.1 2.6-1.1.4 0 .7.1 1 .1l3.3 4.4c.2.3.5.4.7.4" style="fill-rule:evenodd;clip-rule:evenodd"/></svg>