<svg xmlns="http://www.w3.org/2000/svg" xml:space="preserve" id="Layer_1" x="0" y="0" version="1.1" viewBox="0 0 24 24"><style>.st0{fill-rule:evenodd;clip-rule:evenodd}</style><path d="M12 10.9c-2.4 0-4.7.8-6.5 2.3-.4.3-.9.2-1.2-.1-.3-.4-.2-.9.1-1.2 4.4-3.7 10.8-3.7 15.2 0 .4.3.4.9.1 1.2-.3.4-.8.4-1.2.1-1.8-1.5-4.1-2.3-6.5-2.3" class="st0"/><path d="M12 5.9c-3.7 0-7.2 1.3-10 3.8-.4.3-.9.2-1.2-.1s-.3-.9 0-1.3a16.9 16.9 0 0 1 22.3 0c.4.3.4.9.1 1.2-.2.4-.8.5-1.2.2-2.8-2.5-6.3-3.8-10-3.8m0 10q-1.65 0-3 .9c-.4.3-.9.2-1.2-.2s-.2-.9.2-1.2c2.4-1.7 5.6-1.7 8 0 .4.3.5.8.2 1.2s-.8.5-1.2.2q-1.35-.9-3-.9M10.6 20c0-.8.6-1.4 1.4-1.4s1.4.6 1.4 1.4-.6 1.4-1.4 1.4-1.4-.6-1.4-1.4" class="st0"/></svg>