<svg xmlns="http://www.w3.org/2000/svg" xml:space="preserve" viewBox="0 0 24 24"><path d="M14 20.9c-.8 0-1.5-.3-2-.8-.3-.3-.3-.9 0-1.2s.9-.3 1.2 0c.2.2.5.3.8.3s.6-.1.8-.3.3-.5.3-.8-.1-.6-.3-.8-.5-.3-.8-.3H2c-.5 0-.9-.4-.9-.9s.4-.9.9-.9h12c.8 0 1.5.3 2 .8s.8 1.3.8 2c0 .8-.3 1.5-.8 2-.5.6-1.2.9-2 .9m5.5-8H2c-.5 0-.9-.4-.9-.9s.4-.9.9-.9h17.5c.4 0 .8-.2 1.1-.5.6-.6.6-1.7 0-2.3s-1.7-.6-2.3 0c-.3.3-.9.3-1.2 0s-.3-.9 0-1.2c1.3-1.3 3.5-1.3 4.8 0s1.3 3.5 0 4.8c-.7.6-1.5 1-2.4 1m-8.5-4H2c-.5 0-.9-.4-.9-.9s.4-.9.9-.9h9c.3 0 .6-.1.8-.3.4-.4.4-1.2 0-1.6-.2-.2-.5-.3-.8-.3s-.6.1-.8.3c-.3.3-.9.3-1.2 0-.4-.3-.4-.9 0-1.2.5-.5 1.3-.8 2-.8.8 0 1.5.3 2 .8 1.1 1.1 1.1 2.9 0 4.1-.5.5-1.2.8-2 .8"/></svg>