<svg xmlns="http://www.w3.org/2000/svg" xml:space="preserve" viewBox="0 0 24 24"><path d="M12.1 17.4c0-.9-1.2-1.3-1.8-.6-1.2 1.4-3.3 4-3.5 4.3-.3.9 1.3 1.5 2.2 1.9 1.1.4 1.8.6 2.3.5.3-.1.5-.2.6-.5.2-.3.2-5.4.2-5.6m-.6-16.3q-.15-.45-.6-.6c-1-.3-4.8.8-5.5 1.6-.2.2-.2.5-.2.8l4.8 7.7c1 1.6 2.2 1.1 2.1-.7 0-1.1-.5-8.4-.6-8.8m-2 14c.9-.3.8-1.6.1-1.9-2-.8-4.8-2-5.1-2-.8 0-1 1.2-1.1 2q-.15 1.2 0 2.1c.1.7.2 1.4.9 1.4.3 0 5.2-1.6 5.2-1.6M20.2 12c.4-.3.3-.7.3-.8-.1-1-1.8-3.5-2.6-3.9-.3-.1-.6-.1-.8 0-.3.2-3.1 4.3-3.3 4.4-.5.7.2 1.8 1 1.6.4 0 5.1-1.1 5.4-1.3m-5 3.4c-.8-.3-1.6.8-1.1 1.5.1.2 2.7 4.5 2.9 4.7s.5.2.8.1c.9-.3 2.7-2.8 2.9-3.7 0-.3 0-.6-.3-.8-.3-.1-5.2-1.8-5.2-1.8"/></svg>