<svg xmlns="http://www.w3.org/2000/svg" xml:space="preserve" viewBox="0 0 24 24"><path d="M21 9.1h-5.3c-.5 0-.9.4-.9.9s.4.9.9.9h3.5L18 12.4c-.3.4-.3.9.1 1.2s.9.3 1.2-.1l2.4-2.9c.1-.2.2-.4.2-.6 0-.5-.4-.9-.9-.9m-7.7-7.9c-.4-.2-.8-.1-1 .2l-2.4 3c-.3.3-.3.9.1 1.2s.9.3 1.2-.1l.5-.6-.2 1.8c0 .5.3.9.8 1 .5 0 .9-.3 1-.8l.6-4.8c0-.4-.2-.8-.6-.9m10.3 21.2L8.7 7.5l-.1-.2-6.9-7C1.3 0 .7 0 .4.4c-.4.3-.4.9 0 1.2L6.8 8l-4.5 5.4c-.1.2-.2.4-.2.6 0 .5.4.9.9.9h8l-.9 7c0 .3.1.6.3.8.4.3.9.3 1.2-.1l4.4-5.3 6.3 6.3c.3.3.9.3 1.2 0 .5-.3.5-.9.1-1.2M4.9 13.1l3.2-3.8 3.8 3.8zm7.3 6.1.6-5 2 2z" style="fill-rule:evenodd;clip-rule:evenodd"/></svg>