<svg xmlns="http://www.w3.org/2000/svg" xml:space="preserve" id="Layer_1" x="0" y="0" version="1.1" viewBox="0 0 24 24"><style>.st0{fill-rule:evenodd;clip-rule:evenodd}</style><path d="M16 16s0 .1 0 0c0 .1.1 0 0 0 .1 0 0 0 0 0" class="st0"/><path d="m21.6 20.4-3.8-3.8c1.2-1.5 2-3.5 2-5.6 0-4.9-4-8.9-8.9-8.9S2 6.1 2 11s4 8.9 8.9 8.9c2.1 0 4.1-.8 5.6-2l3.8 3.8c.3.3.9.3 1.2 0 .5-.4.5-1 .1-1.3M16.1 16l-.1.1c-1.3 1.2-3 2-5 2-3.9 0-7.1-3.2-7.1-7.1S7.1 3.9 11 3.9s7.1 3.2 7.1 7.1c0 1.9-.8 3.7-2 5" class="st0"/><path d="M14.9 11c0 .5-.4.9-.9.9h-2.1V14c0 .5-.4.9-.9.9s-.9-.4-.9-.9v-2.1H8c-.5 0-.9-.4-.9-.9s.4-.9.9-.9h2.1V8c0-.5.4-.9.9-.9s.9.4.9.9v2.1H14c.5 0 .9.4.9.9" class="st0"/></svg>