<svg xmlns="http://www.w3.org/2000/svg" width="164" height="80" fill="#6c727f"><path d="M39.574 33.236c-.796-.793-2.107-1.197-3.874-1.236-2.707 0-4.502 1.2-5.182 2.264a3.93 3.93 0 0 0-.339 1.061 5.12 5.12 0 0 0 .037 2.019c.652 3.068 5.949 3.953 6.707 5.851.134.336.102.774.028 1.072-.159.647-.619.964-1.407.964-.832 0-1.442-.463-1.442-1.301l-.002-1.491h-4.095L30 43.634C30 46.165 31.577 48 35.46 48c2.782 0 4.967-.958 5.321-3.44.173-1.212.063-2.06-.018-2.456-.617-3.077-6.29-4.113-6.698-5.78a1.84 1.84 0 0 1-.015-.761c.143-.637.585-.961 1.304-.961.855 0 1.337.498 1.337 1.301v.964h3.82v-1.092c0-1.064-.315-1.917-.937-2.539zm89.45 14.473c.176 0 .34-.018.51-.027.894-.044 3.145-.412 4.135-1.857a3.79 3.79 0 0 0 .643-1.833l.052-.983v-4.034h-5.369v2.268h1.518v2.105c.002.153-.003.372-.036.556-.017.107-.211 1.043-1.466 1.043-1.263 0-1.458-.937-1.477-1.043-.024-.136-.036-.32-.033-.556v-6.796c0-.274.019-.521.059-.693.071-.313.352-1.042 1.438-1.042 1.099 0 1.367.727 1.43 1.041a3.75 3.75 0 0 1 .048.554v.881h3.858v-.59-.018l-.035-.915c-.301-3.075-3.04-3.715-5.274-3.715-2.886 0-4.969 1.084-5.285 3.713a10.35 10.35 0 0 0-.062.987l-.001 6.253c.001.282.009.489.053.984.247 2.72 2.627 3.717 5.294 3.717zM49.383 34.167l1.954 13.253h4.097L52.68 32.453h-6.721L43.188 47.42h4.119l2.004-13.253h.07zm21.676.256l.091 12.997h3.818l-.331-14.967h-6.159L66.68 43.571h-.088l-1.794-11.118h-6.162l-.332 14.967h3.831l.088-12.997h.069l2.412 12.997h3.866l2.424-12.997h.066zM83.92 47.925c2.011 0 4.857-.507 5.27-3.406.171-1.208.062-2.042-.018-2.431-.616-3.048-6.238-4.063-6.644-5.723-.059-.247-.065-.503-.018-.753.144-.631.581-.952 1.304-.952.815 0 1.323.472 1.323 1.288v.953h3.784v-1.08c0-1.052-.312-1.898-.929-2.515-.827-.826-2.207-1.239-4.102-1.239-2.119 0-4.752.569-5.196 3.306-.12.734-.11 1.316.037 2 .639 3.02 5.894 3.932 6.64 5.793.129.329.099.764.026 1.062-.158.64-.614.952-1.392.952-.872 0-1.437-.489-1.437-1.289l-.003-1.473h-4.046l-.002 1.182c0 2.899 2.066 4.324 5.405 4.324zm19.245-3.78a12.23 12.23 0 0 0 .038-.986v-10.71h-3.857v11.05a3.59 3.59 0 0 1-.035.56c-.051.242-.296 1.041-1.385 1.041s-1.337-.798-1.385-1.043c-.025-.127-.037-.31-.033-.557V32.45h-3.871v10.713l.037.983c.229 2.466 1.998 3.719 5.252 3.719 3.241 0 5.008-1.253 5.239-3.719zm11.329 3.122h5.386V32.453h-3.782l.198 11.388h-.078l-3.342-11.388h-5.612v14.814h3.754l-.2-11.855h.06l3.616 11.855z"/></svg>