<svg xmlns="http://www.w3.org/2000/svg" width="164" height="80" fill="none" xmlns:v="https://vecta.io/nano"><path fill-rule="evenodd" d="M105.679 35.716v12.656c0 .183.207.284.397.284h3.885a.43.43 0 0 0 .46-.456v-8.854l-.056-2.212.145-2.179c.353-1.723 2.083-1.679 3.628-1.679.599 0 1.634.056 2.077.211.643.228.901.567 1.091 1.245.258.934.151 3.279.151 4.502v9.249c.123.083.191.172.398.172h3.885c.213 0 .274-.089.397-.172v-9.249c0-1.228-.112-3.563.14-4.519.151-.584.504-1.056 1.098-1.239.694-.217 1.875-.206 2.709-.206 1.59 0 2.771.35 2.989 1.74.202 1.256.096 7.537.096 9.327v3.58c-.006.439.028.734.459.734h3.885c.268 0 .397-.133.397-.395V36.394c0-2.657-.302-4.18-1.758-5.464-1.948-1.723-6.801-1.895-9.584-1.256-.548.128-1.326.361-1.825.573-.671.289-.268.244-1.181.244l-1.119-.478c-1.797-.623-3.477-.661-5.397-.661-2.917 0-6.057.65-6.953 3.313-.285.861-.42 1.929-.42 3.046l.006.006zm-44.527 6.753c0-1.106.358-1.562 1.355-1.945 1.562-.606 3.947-.517 5.564-.495.705.011 2.183.228 2.855.228 0 .945-.067 3.051-.571 3.746-.565.784-2.278 1.067-3.258 1.078-1.444.017-2.754.111-4.025-.206-1.22-.306-1.92-1.095-1.92-2.407zm-2.284-8.004c.291 0 .515-.145.75-.222l.784-.239 1.607-.445c1.831-.439 2.53-.511 4.462-.511 1.142 0 2.542.222 3.258.622.985.556 1.086 1.679 1.086 2.779-1.002 0-1.965-.172-3.314-.172-3.622 0-9.231.111-10.452 3.924-.633 1.973-.308 4.708 1.002 6.253.252.295.078.172.448.461 2.575 1.99 4.842 2.018 8.369 2.018 2.737 0 6.124-.573 7.658-2.896 1.467-2.218 1.26-5.164 1.26-7.832 0-1.345-.207-2.913-.549-3.935-.202-.606-.37-1.089-.677-1.601-.526-.884-1.355-1.734-2.245-2.257-3.516-2.068-8.492-1.506-12.226-.584-1.786.445-1.679.417-1.679 1.734 0 .539.056 1.162-.022 1.679-.09.572-.095 1.217.481 1.217v.006zm26.121 4.997c0-1.901.011-3.907 1.125-5.008.868-.856 1.657-1.062 2.889-1.217l1.355-.072c1.528 0 2.883.161 4.036 1.045a1.37 1.37 0 0 1 .308.317c1.288 1.662 1.03 3.496 1.03 5.792 0 2.234-.666 3.846-2.62 4.491-1.17.383-2.094.334-3.325.334-1.623 0-3.129-.5-3.823-1.428-.907-1.206-.98-2.646-.98-4.247l.005-.006zm-4.686-.339c0 1.579.179 3.096.537 4.346.386 1.351 1.265 2.907 2.401 3.746C85.268 48.717 87.944 49 90.592 49c1.489 0 3.073-.15 4.249-.489.521-.15 1.243-.389 1.691-.645.42-.245 1.036-.667 1.388-1.001.134-.128.157-.178.263-.306.784-.973 1.024-1.217 1.545-2.612 1.131-3.012 1.075-9.304-1.265-11.895-1.181-1.306-1.965-1.734-3.74-2.245-2.704-.789-8.117-.712-10.592.706-2.782 1.595-3.835 4.791-3.835 8.626l.006-.017zM20 29.93c.112.473 3.14 4.013 3.628 4.63l3.208 3.963.23.283c.106.133.173.2.252.317-.073.306-3.465 4.374-3.65 4.602l-3.23 3.996c-.174.222-.364.35-.431.65.095.178.123.284.397.284h5.089c.409 0 .957-.95 1.383-1.462l1.892-2.435c.196-.239 1.814-2.251 1.87-2.457.224.061 1.103 1.39 1.26 1.59l2.418 3.274c.381.506.946 1.49 1.355 1.49.907 0 4.725.078 5.318-.056.196-.406-.101-.645-.616-1.262-.873-1.045-1.92-2.473-2.805-3.568l-3.723-4.758c.14-.267 3.728-4.624 4.047-5.008l1.377-1.695c.224-.278 1.78-2.101 1.78-2.262 0-.261-.078-.395-.515-.395h-4.803c-.481 0-.532.233-.817.606l-4.445 5.803-2.435-3.318-1.215-1.629-.918-1.245c-.123-.161-.235-.222-.521-.222h-4.915c-.263 0-.314.122-.459.283H20zm120.258.167V48.2c0 .206.157.456.342.456h4.003c.19 0 .397-.1.397-.284V30.041c0-.272-.196-.395-.459-.395h-3.717c-.342 0-.571.117-.571.456l.005-.006zm-93.852-.167v18.442c0 .133.151.284.285.284h4.115c.134 0 .286-.15.286-.284V29.93c0-.222-.28-.283-.515-.283h-3.655c-.23 0-.515.061-.515.283z" fill="#6c727f"/></svg>