<svg xmlns="http://www.w3.org/2000/svg" width="164" height="80" fill="#6c727f"><path d="M54.191 37.598c-.043-4.429 3.678-6.557 3.845-6.658-2.094-3.01-5.347-3.424-6.506-3.47-2.768-.279-5.403 1.604-6.81 1.604s-3.575-1.566-5.871-1.52c-3.021.042-5.806 1.727-7.364 4.387-3.133 5.345-.798 13.282 2.262 17.627 1.498 2.124 3.274 4.517 5.617 4.429 2.257-.089 3.107-1.435 5.828-1.435s3.489 1.435 5.871 1.393c2.425-.046 3.961-2.17 5.446-4.302 1.708-2.47 2.416-4.855 2.459-4.982-.056-.021-4.725-1.782-4.776-7.072zM49.715 24.59c1.244-1.482 2.081-3.538 1.854-5.59-1.789.072-3.957 1.174-5.24 2.656-1.15 1.309-2.158 3.403-1.884 5.413 1.987.152 4.029-1.001 5.27-2.478zm20.169 17.361l-2.06 6.143h-2.648l6.742-19.522h3.09l6.767 19.522h-2.738l-2.12-6.143h-7.034zm6.506-1.972l-1.94-5.619c-.442-1.275-.734-2.432-1.03-3.563h-.056l-1 3.534-1.94 5.645 5.965.004zm7.394-1.33l-.12-4.577h2.326l.12 2.407h.056c1.06-1.71 2.738-2.723 5.064-2.723 3.446 0 6.034 2.867 6.034 7.127 0 5.041-3.12 7.528-6.476 7.528-1.884 0-3.532-.811-4.386-2.2h-.056v7.616h-2.562V38.649zm2.558 3.736a5.23 5.23 0 0 0 .12 1.043 3.99 3.99 0 0 0 3.888 2.985c2.738 0 4.33-2.2 4.33-5.417 0-2.812-1.502-5.21-4.24-5.21-1.764 0-3.412 1.245-3.918 3.158-.09.317-.176.697-.176 1.043l-.004 2.398zm13.599-3.736l-.12-4.577h2.326l.12 2.407h.055c1.06-1.71 2.738-2.723 5.064-2.723 3.446 0 6.034 2.867 6.034 7.127 0 5.041-3.12 7.528-6.476 7.528-1.884 0-3.532-.811-4.386-2.2h-.055v7.616h-2.562V38.649zm2.562 3.736c0 .38.055.722.12 1.043a3.99 3.99 0 0 0 3.888 2.985c2.738 0 4.33-2.2 4.33-5.417 0-2.812-1.502-5.21-4.24-5.21-1.764 0-3.412 1.245-3.918 3.158-.09.317-.176.697-.176 1.043l-.004 2.398zm13.599-14.857h2.592v20.561h-2.592V27.528zm7.801 14.017c.056 3.445 2.296 4.868 4.884 4.868 1.854 0 2.974-.317 3.944-.722l.442 1.824c-.91.405-2.472.87-4.738.87-4.386 0-7.008-2.837-7.008-7.068s2.532-7.562 6.682-7.562c4.652 0 5.888 4.024 5.888 6.603 0 .523-.056.925-.09 1.186h-10.004zm7.596-1.824c.03-1.621-.678-4.142-3.592-4.142-2.622 0-3.767 2.377-3.973 4.142h7.565z"/></svg>