<svg xmlns="http://www.w3.org/2000/svg" width="164" height="80" fill="#6c727f"><path d="M49.674 48.35c-4.463 0-8.081-3.738-8.081-8.35s3.617-8.346 8.081-8.346a7.85 7.85 0 0 1 4.283 1.267l-4.283 7.08 8.063-4.809c-.876-1.442-2.132-2.684-3.652-3.627-1.933-1.196-4.622-1.936-7.596-1.936-4.242 0-7.963 1.592-10.038 3.977C34.915 35.369 34 37.587 34 40.001s.915 4.635 2.451 6.399c2.081 2.387 5.747 3.97 9.918 3.97s7.836-1.584 9.918-3.97a7.91 7.91 0 0 0 .329-.402l-.314-1.217c-1.463 2.157-3.886 3.57-6.628 3.57zm26.732 1.518l-3.384-13.04c-.544-2.107-2.401-3.656-4.613-3.656a4.63 4.63 0 0 0-1.633.297l-7.285 2.736h7.493l1.28 4.939c-1.242-1.104-2.86-1.776-4.631-1.776-3.517 0-6.365 2.435-6.365 5.438s2.848 5.442 6.365 5.442c2.532 0 4.771-1.28 6.152-3.248l.743 2.867h5.878zm-10.322-2.025c-1.622 0-2.938-1.357-2.938-3.036s1.315-3.034 2.938-3.034 2.939 1.358 2.939 3.034-1.316 3.036-2.939 3.036zm24.119-14.669a2.83 2.83 0 0 0-1.238.283l-4.678 2.252c-.232-1.438-1.441-2.535-2.9-2.535a2.87 2.87 0 0 0-1.242.283l-5.711 2.749h4.015v13.662h5.878V37.726c0-.838.656-1.52 1.47-1.52s1.47.682 1.47 1.52v12.142h5.875V36.206c0-1.675-1.316-3.032-2.939-3.032zm36.859 0a2.89 2.89 0 0 0-1.248.283l-4.672 2.252c-.231-1.438-1.44-2.535-2.9-2.535a2.88 2.88 0 0 0-1.243.283l-5.708 2.749h4.014v13.662h5.876V37.726c0-.838.658-1.52 1.471-1.52s1.468.682 1.468 1.52v12.142H130V36.206c0-1.675-1.318-3.032-2.938-3.032zm-14.821 8.598c0 4.749-3.726 8.597-8.322 8.597s-8.328-3.849-8.328-8.597 3.728-8.598 8.328-8.598 8.322 3.851 8.322 8.598zm-7.977-5.989c-.262-1.012-1.269-1.612-2.248-1.34s-1.562 1.312-1.3 2.323l2.855 10.994c.264 1.013 1.269 1.613 2.248 1.345.979-.274 1.561-1.314 1.298-2.325l-2.853-10.997z"/></svg>