<svg xmlns="http://www.w3.org/2000/svg" width="164" height="80" fill="none"><path fill-rule="evenodd" d="M10 46.333l3.517-11.849h6.057l1.53 5.063 4.394-5.087h6.429l-3.346 11.862-4.858.017 1.775-6.12-5.638 6.12h-2.389l-1.74-6.547-1.956 6.547L10 46.333zm42.788-11.875l14.924.026-.896 3.826h-5.124l-2.105 8.023-4.723.006 1.963-7.995h-5.044l1.004-3.886zm40.028.022v2.755h.008l-.581 2.292h5.116s1.243-.214 1.314-1.336c.059-.994-.875-.924-.875-.924l-4.981-.018v-2.766l7.707-.004s3.298.247 2.978 3.075c-.331 2.825-3.363 3.727-3.363 3.727s-.185.181-.041.287 1.276.316 1.419 1.373-.372 1.83-.372 2.151c0 .315.033.95.439 1.231h-4.87s-.869-.132-.795-1.021l.113-1.652s-.072-.922-1.378-.812l-3.561-.035-1.014 3.532h-4.468l3.401-11.853 3.804-.001zm33.827 0h4.57l-2.214 8.597h7.522l-.873 3.266h-12.129l3.124-11.863zm24.492-.01l2.742 11.869h-4.755l-.503-2.057-.017-.04h-5.761l-.021.018-1.391 2.073-4.027.006 8.132-11.869 1.575 3.499-2.358 3.459.068.025h3.056l.055-.006-.821-3.478-1.575-3.499h5.601zM42.582 37.107c1.45 0 2.879.711 3.104 1.742.689 3.299-2.864 4.712-2.447 4.504-2.044 1.004-5.149.682-5.514-1.398-.346-2 1.213-3.968 2.525-4.438.898-.321 1.639-.457 2.331-.411l.01-.031.017-3.076a17.66 17.66 0 0 0-2.831.296c-3.581.68-8.095 3.903-7.3 7.982.67 3.448 5.392 5.299 10.686 4.285 4.965-.944 8.215-4.731 7.517-8.089C50.01 35.224 46.123 34 42.609 34v2.66l-.027.447zm34.711 0c1.448 0 2.882.711 3.094 1.742.702 3.299-2.855 4.712-2.431 4.504-2.047 1.004-5.155.682-5.517-1.398-.351-2 1.209-3.968 2.524-4.438.895-.321 1.646-.457 2.329-.411l.01-.031.02-3.076c-.952.023-1.901.122-2.837.296-3.578.68-8.099 3.903-7.304 7.982.669 3.448 5.403 5.299 10.688 4.285 4.97-.944 8.225-4.731 7.524-8.089C84.721 35.224 80.836 34 77.322 34v2.66l-.029.447zm37.737-.031c1.448.08 2.867.742 3.089 1.773.692 3.299-2.861 4.712-2.434 4.504-2.048 1.004-5.155.682-5.519-1.398-.349-2 1.206-3.968 2.524-4.438 1.079-.388 1.5-.496 2.34-.442l.02-3.076a17.95 17.95 0 0 0-2.837.296c-3.572.68-8.089 3.903-7.298 7.982.669 3.448 5.399 5.299 10.689 4.285 4.964-.944 8.22-4.731 7.513-8.089-.669-3.249-4.555-4.474-8.067-4.474v2.66l-.02.416z" fill="#9ca3af"/></svg>