<svg xmlns="http://www.w3.org/2000/svg" width="164" height="80" fill="none"><path d="M67.626 49c-3.622 0-6.985-1.111-9.23-3.17-1.696-1.556-2.511-3.67-2.511-5.846 0-2.149.85-4.277 2.511-5.825C60.48 32.216 64.161 31 67.626 31c3.835 0 6.904.988 9.25 3.164 1.669 1.549 2.476 3.668 2.476 5.82 0 2.086-.856 4.308-2.476 5.845-2.185 2.073-5.618 3.17-9.25 3.17v-2.374c1.923 0 3.706-.679 4.952-1.946 1.237-1.259 1.813-2.805 1.813-4.696 0-1.811-.622-3.504-1.813-4.706-1.229-1.237-3.055-1.934-4.952-1.934-1.903 0-3.73.689-4.96 1.934-1.185 1.201-1.809 2.899-1.809 4.706 0 1.801.631 3.498 1.809 4.696 1.231 1.252 3.052 1.946 4.96 1.946V49zM41.149 31.009c-1.938 0-4.139.371-6.01 1.225-1.726.788-3.139 2.061-3.139 4.173-.001 1.902 1.181 3.015 1.149 2.985.503.473 1.312 1.279 3.428 1.752.946.212 2.968.536 4.981.751l4.767.628c.637.166 1.706.391 1.706 1.618 0 1.221-1.126 1.594-1.322 1.675s-1.547.713-3.976.713c-1.794 0-3.95-.551-4.736-.839-.906-.33-1.856-.766-2.743-1.873-.221-.275-.568-1.029-.568-1.777h-2.199v6.299h2.444v-.851c0-.097.118-.495.529-.306.511.237 2.009.847 3.575 1.181 1.285.275 2.113.472 3.71.472 2.606 0 4.005-.434 4.973-.716.912-.267 2.038-.746 2.953-1.492.496-.403 1.582-1.437 1.582-3.315 0-1.802-.946-2.92-1.278-3.26-.453-.464-1.007-.823-1.584-1.1a11.47 11.47 0 0 0-1.945-.695c-1.26-.316-4.108-.706-5.47-.852l-4.896-.675c-.3-.095-.912-.393-.912-1.119 0-.516.28-.954.833-1.308.877-.562 2.65-.911 4.498-.911 2.184-.008 4.034.502 5.211 1.04.4.183.869.445 1.24.756.42.35 1.009 1.077 1.222 2.091h1.974v-5.483h-2.204v.637c0 .206-.208.473-.601.252-.986-.529-3.775-1.671-7.194-1.675zm48.3.996l10.751 9.92-.11-6.679c-.011-.876-.169-1.241-1.095-1.241h-2.022v-1.998h9.193v1.998h-1.972c-.945 0-1.004.309-1.016 1.241l.167 12.762h-3.148l-12.384-11.3.003 8.019c.011.872.051 1.282.929 1.282h2.208v1.997h-9.028V46.01h2.11c.788 0 .757-.768.757-1.328v-9.36c0-.604-.083-1.316-1.321-1.316h-1.713v-2.001h7.69zm27.222 14.001c.086 0 .47-.011.544-.035a.68.68 0 0 0 .423-.384c.028-.068.042-.367.042-.432l.002-3.157c0-.076-.006-.109-.132-.278-.139-.185-5.632-6.549-5.883-6.829-.312-.348-.86-.886-1.693-.886h-1.911v-1.999h10.781v1.996h-1.3c-.3 0-.5.291-.243.616l3.661 4.482c.034.047.063.059.109.015s3.718-4.457 3.747-4.492c.175-.214.056-.619-.32-.619h-1.333v-1.999H132v1.999h-1.974c-.716 0-1.007.135-1.546.758l-5.949 6.939c-.079.092-.072.22-.072.296v3.157c0 .064.014.364.042.432.067.162.211.317.423.384.075.023.453.035.539.035h2.019v1.998h-10.725v-1.999l1.914.002z" fill="#9ca3af"/></svg>