<svg xmlns="http://www.w3.org/2000/svg" width="58" height="40" fill="none" xmlns:v="https://vecta.io/nano"><path fill-rule="evenodd" d="M10.397 14.167L4.971 26.245h6.496l.805-1.926h1.841l.805 1.926h7.151v-1.47l.637 1.47h3.699l.637-1.501v1.501h14.872l1.808-1.876 1.693 1.876 7.638.016-5.444-6.021 5.444-6.073h-7.52l-1.76 1.841-1.64-1.841H25.956l-1.389 3.117-1.422-3.117h-6.483v1.42l-.721-1.42h-5.543zm22.208 1.715h8.54l2.612 2.838 2.696-2.838h2.612l-3.969 4.356 3.969 4.306h-2.73l-2.612-2.871-2.71 2.871h-8.408v-8.662zm2.107 3.377v-1.582-.002h5.329l2.325 2.53-2.428 2.544h-5.226v-1.727h4.659v-1.763h-4.659zm-23.058-3.377h3.167l3.599 8.19v-8.19h3.469l2.78 5.872 2.562-5.872h3.452v8.667h-2.1l-.017-6.791-3.062 6.791h-1.879l-3.079-6.791v6.791h-4.321l-.819-1.943h-4.425l-.817 1.941H7.85l3.805-8.665zm.081 4.928l1.458-3.461 1.456 3.461h-2.914z" fill="#fff"/></svg>