<svg xmlns="http://www.w3.org/2000/svg" width="21" height="17" fill="none" xmlns:v="https://vecta.io/nano"><path d="M16.164 8.552c0-.569-.046-1.139-.137-1.696H8.25v3.218h4.455c-.183 1.034-.779 1.964-1.649 2.544v2.091h2.657c1.557-1.452 2.451-3.602 2.451-6.158z" fill="#4285f4"/><path d="M8.247 16.732c2.222 0 4.1-.744 5.463-2.022l-2.657-2.091c-.744.511-1.695.802-2.806.802-2.153 0-3.974-1.476-4.627-3.451H.883v2.161c1.397 2.823 4.249 4.601 7.364 4.601z" fill="#34a853"/><path d="M3.622 9.969c-.344-1.034-.344-2.161 0-3.207V4.613H.885a8.4 8.4 0 0 0 0 7.506l2.738-2.149z" fill="#fbbc04"/><path d="M8.247 3.312c1.18-.023 2.313.43 3.161 1.255l2.359-2.393c-1.5-1.418-3.47-2.196-5.52-2.173C5.132.001 2.281 1.79.883 4.613L3.62 6.774c.653-1.987 2.474-3.462 4.627-3.462z" fill="#ea4335"/></svg>