<svg xmlns="http://www.w3.org/2000/svg" width="58" height="40" fill="none" xmlns:v="https://vecta.io/nano"><path fill-rule="evenodd" d="M27.88 23.856v-4.448h2.283c.935 0 1.725-.315 2.368-.937l.154-.158c1.176-1.287 1.098-3.292-.154-4.483a3.25 3.25 0 0 0-2.368-.954h-3.664v10.98h1.382zm.001-5.796v-3.835h2.317c.498 0 .97.193 1.322.543a1.96 1.96 0 0 1 .043 2.723 1.79 1.79 0 0 1-1.365.569h-2.317zm11.249-1.13c-.592-.552-1.399-.832-2.42-.832-1.313 0-2.3.49-2.952 1.462l1.218.779c.446-.666 1.056-.998 1.828-.998.489 0 .961.184 1.33.517a1.66 1.66 0 0 1 .566 1.252v.324c-.532-.298-1.201-.455-2.025-.455-.961 0-1.733.228-2.308.692s-.867 1.077-.867 1.856c-.017.709.283 1.383.815 1.839.541.49 1.227.735 2.034.735.953 0 1.708-.429 2.283-1.287h.06v1.042h1.321v-4.632c0-.972-.292-1.742-.884-2.294zm-3.749 5.543c-.283-.21-.455-.552-.455-.919 0-.412.189-.753.558-1.024.378-.271.85-.412 1.408-.412.772-.009 1.373.166 1.802.517 0 .595-.232 1.112-.687 1.55-.412.42-.97.657-1.553.657-.386.009-.764-.122-1.073-.368zm7.601 4.684l4.617-10.814h-1.502l-2.137 5.394h-.026l-2.188-5.394h-1.502l3.029 7.031-1.716 3.782h1.424z" fill="#181d25"/><path d="M23.109 18.445a7.95 7.95 0 0 0-.103-1.278H17.18v2.425h3.338c-.137.779-.584 1.48-1.236 1.918v1.576h1.991c1.167-1.094 1.836-2.714 1.836-4.641z" fill="#4285f4"/><path d="M17.18 24.609c1.665 0 3.072-.56 4.093-1.524l-1.991-1.576c-.558.385-1.27.604-2.102.604-1.613 0-2.978-1.112-3.467-2.601h-2.051v1.629c1.047 2.128 3.184 3.467 5.518 3.467z" fill="#34a853"/><path d="M13.714 19.513c-.258-.779-.258-1.629 0-2.417v-1.62h-2.051c-.884 1.778-.884 3.879 0 5.656l2.051-1.62z" fill="#fbbc04"/><path d="M17.18 14.496a3.29 3.29 0 0 1 2.368.946l1.768-1.804c-1.124-1.068-2.6-1.655-4.136-1.637-2.334 0-4.471 1.348-5.518 3.476l2.051 1.629c.489-1.497 1.854-2.609 3.467-2.609z" fill="#ea4335"/></svg>