<svg xmlns="http://www.w3.org/2000/svg" width="58" height="40" fill="none" fill-rule="evenodd" xmlns:v="https://vecta.io/nano"><path d="M28.934 27.318a9.53 9.53 0 0 1-6.269 2.349c-5.338 0-9.665-4.402-9.665-9.833S17.327 10 22.665 10a9.53 9.53 0 0 1 6.269 2.349A9.53 9.53 0 0 1 35.203 10c5.338 0 9.665 4.403 9.665 9.833s-4.327 9.833-9.665 9.833a9.53 9.53 0 0 1-6.269-2.349z" fill="#ed0006"/><path d="M28.936 27.318c2.078-1.804 3.396-4.487 3.396-7.484s-1.318-5.681-3.396-7.484A9.53 9.53 0 0 1 35.205 10c5.338 0 9.665 4.403 9.665 9.833s-4.327 9.833-9.665 9.833a9.53 9.53 0 0 1-6.269-2.349z" fill="#f9a000"/><path d="M28.935 27.318c2.078-1.804 3.396-4.487 3.396-7.484s-1.318-5.681-3.396-7.485c-2.078 1.804-3.396 4.488-3.396 7.485s1.318 5.681 3.396 7.484z" fill="#ff5e00"/></svg>