<svg xmlns="http://www.w3.org/2000/svg" width="16" height="19" fill="none" xmlns:v="https://vecta.io/nano"><path d="M4.544 18.238l.327-2.078-.729-.017H.663L3.081.808c.007-.047.031-.09.067-.12S3.23.64 3.277.641h5.868c1.948 0 3.292.405 3.994 1.205.329.375.539.768.64 1.199.106.453.108.994.004 1.654l-.008.048v.423l.329.186a2.31 2.31 0 0 1 .666.508c.282.321.463.729.54 1.212.079.497.053 1.089-.077 1.759-.15.771-.393 1.442-.721 1.991-.289.492-.678.918-1.142 1.251-.435.309-.953.544-1.538.694-.567.148-1.213.222-1.922.222h-.457c-.327 0-.644.118-.893.328s-.414.508-.465.831l-.034.187-.578 3.663-.026.134c-.007.043-.019.064-.036.078s-.038.022-.06.022H4.544z" fill="#253b80"/><path d="M14.418 4.796l-.06.344c-.774 3.973-3.421 5.345-6.802 5.345H5.834c-.413 0-.762.3-.826.708l-.881 5.59-.25 1.585a.44.44 0 0 0 .1.355.44.44 0 0 0 .335.154h3.053c.362 0 .669-.263.726-.619l.03-.155.575-3.648.037-.2c.056-.358.364-.62.726-.62h.457c2.958 0 5.274-1.201 5.951-4.677.283-1.452.136-2.664-.612-3.517a2.92 2.92 0 0 0-.836-.644z" fill="#179bd7"/><path d="M13.607 4.473c-.247-.071-.498-.127-.753-.167a9.56 9.56 0 0 0-1.518-.111H6.738c-.175 0-.344.062-.477.176s-.221.271-.248.444l-.978 6.197-.028.181c.03-.197.131-.377.282-.507s.345-.201.544-.201h1.722c3.381 0 6.029-1.373 6.802-5.345l.06-.344c-.204-.107-.417-.197-.636-.268l-.173-.054z" fill="#222d65"/><path d="M6.014 4.816a.73.73 0 0 1 .725-.62h4.599a9.56 9.56 0 0 1 1.518.111c.314.049.624.123.926.221a4.19 4.19 0 0 1 .636.268c.23-1.468-.002-2.468-.796-3.373C12.748.427 11.168 0 9.147 0H3.279a.84.84 0 0 0-.829.709L.006 16.201c-.011.072-.007.145.013.216s.054.135.102.191.106.1.172.13.138.046.211.047h3.623l.91-5.771.978-6.197z" fill="#253b80"/></svg>