<svg xmlns="http://www.w3.org/2000/svg" width="58" height="40" fill="none" fill-rule="evenodd" xmlns:v="https://vecta.io/nano"><path d="M12.925 14H9.733c-.218 0-.404.16-.438.376L8.003 22.61c-.026.163.099.309.263.309h1.524c.218 0 .404-.16.438-.377l.348-2.221c.034-.217.22-.377.438-.377h1.011c2.103 0 3.316-1.024 3.634-3.052.143-.887.006-1.585-.407-2.073-.454-.536-1.258-.82-2.327-.82zm.368 3.007c-.175 1.152-1.05 1.152-1.896 1.152h-.482l.338-2.152c.02-.13.132-.226.263-.226h.221c.577 0 1.12 0 1.401.33.167.197.219.49.155.895zm9.175-.037h-1.529c-.13 0-.243.096-.263.226l-.068.43-.107-.156c-.331-.483-1.069-.645-1.805-.645-1.689 0-3.132 1.287-3.413 3.092-.146.9.062 1.761.57 2.362.466.552 1.133.782 1.926.782 1.361 0 2.116-.88 2.116-.88l-.068.427c-.026.163.099.31.262.31h1.377c.219 0 .404-.16.438-.377l.826-5.263c.026-.162-.099-.309-.262-.309zm-2.131 2.993c-.148.878-.841 1.468-1.725 1.468-.444 0-.799-.143-1.027-.415s-.312-.653-.24-1.08c.138-.871.843-1.48 1.713-1.48.434 0 .787.145 1.019.419s.325.663.259 1.088zm8.737-2.993h1.536c.215 0 .341.243.218.42l-5.11 7.418c-.083.12-.219.192-.365.192H23.82c-.216 0-.342-.245-.217-.422l1.591-2.259-1.692-4.994c-.059-.174.069-.354.253-.354h1.509c.196 0 .369.13.426.318l.898 3.016 2.119-3.139c.083-.122.221-.196.367-.196z" fill="#253b80"/><path d="M45.729 22.61l1.31-8.384c.02-.13.132-.226.262-.226h1.475c.163 0 .288.147.262.309l-1.292 8.233c-.034.217-.219.377-.438.377h-1.317c-.163 0-.288-.146-.262-.309zM35.695 14h-3.193c-.218 0-.404.16-.438.376l-1.291 8.233c-.026.163.099.309.262.309h1.638a.31.31 0 0 0 .306-.264l.366-2.334c.034-.218.22-.377.438-.377h1.01c2.103 0 3.317-1.024 3.634-3.052.143-.887.006-1.585-.407-2.073-.453-.536-1.258-.82-2.326-.82zm.368 3.007c-.174 1.152-1.049 1.152-1.896 1.152h-.481l.339-2.152c.02-.13.131-.226.262-.226h.221c.576 0 1.12 0 1.401.331.168.197.219.49.155.895zm9.174-.037h-1.528c-.131 0-.243.096-.262.226l-.068.43-.107-.156c-.331-.483-1.068-.645-1.805-.645-1.69 0-3.132 1.287-3.413 3.092-.146.9.061 1.761.569 2.362.467.552 1.133.782 1.926.782 1.361 0 2.116-.88 2.116-.88l-.068.427c-.026.163.099.31.263.31h1.377c.218 0 .404-.16.438-.377l.827-5.263c.025-.162-.1-.309-.264-.309zm-2.131 2.993c-.147.878-.841 1.468-1.725 1.468-.443 0-.799-.143-1.026-.415s-.311-.653-.24-1.08c.139-.871.843-1.48 1.713-1.48.434 0 .787.145 1.02.419s.326.662.259 1.088z" fill="#179bd7"/></svg>