<svg xmlns="http://www.w3.org/2000/svg" viewBox="0 0 429 145" fill="#4e5562"><path d="M203.03 71.496c2.763-14.038 13.466-19.464 18.608-19.522 7.309.058 14.277 9.709 11.267 22.169-2.965 12.389-10.931 19.144-19.291 18.86-8.319-.441-13.299-7.318-10.584-21.507zm6.223.395c1.637-8.568 7.977-11.88 11.022-11.916 4.33.035 8.458 5.926 6.674 13.531-1.756 7.562-6.475 11.685-11.426 11.512-4.928-.269-7.878-4.467-6.27-13.127zm-46.636-16.305l-.9.028-1.878 10.092-7.512-4.136.683-3.805c.128-1.332-.557-2.115-1.878-2.151-1.914.036-1.604-2.377 0-2.316l5.1.109 1.388.057 7.852-.331c2.977-.196 11.012.626 9.902 8.768-.763 6.237-7.173 8.768-7.511 8.768-.285 0-.41.483.17.496 5.27 2.098 5.768 7.042 5.292 9.761-1.579 9.709-10.169 11.939-16.218 11.581l-1.805-.154-4.17-.342-.107.006-6.38.325c-2.026.041-1.155-2.192.171-2.482l.234-.037c1.053-.166 1.883-.298 2.156-1.452l1.366-8.107c1.269-.91 7.181-3.562 9.389-4.467l-2.39 11.746c-.194 1.522.492 2.245 1.707 2.316 1.958-.072 5.941-.915 7.341-8.768 1.465-7.828-2.02-8.01-3.073-7.941-3.118-.069-24.031 8.374-28.68 19.026h-19.291c-.894.025-.831-.576-.171-1.324.583-.822 16.332-17.589 35.85-20.515l-13.998-14.559c-.356-.461-.137-1.246 1.024-.662l24.754 13.235a2.57 2.57 0 0 1 .231.095c.195.087.427.191.793.236l.177-.038c1.648-.354 3.873-.833 4.774-7.903.709-5.418-2.25-5.266-4.392-5.156zm72.508 15.91c2.677-14.038 13.384-19.464 18.437-19.522 7.395.058 14.363 9.709 11.438 22.169-3.05 12.389-11.017 19.144-19.291 18.86-8.405-.441-13.384-7.318-10.584-21.507zm6.097.395c1.637-8.568 7.977-11.88 11.022-11.916 4.33.035 8.457 5.926 6.674 13.531-1.756 7.562-6.475 11.685-11.426 11.512-4.928-.269-7.878-4.467-6.27-13.127z" fill-rule="evenodd"/><path d="M292.314 92.177c1.574.328 5.273.973 7.853.827 2.968-.077 10.923-1.985 13.999-10.588 2.538-7.464-2.441-12.289-3.585-13.235-1.098-.984-7.133-5.868-7.17-8.768.037-2.556 2.088-5.302 5.292-5.294 3.269-.008 4.328 4.213 4.951 8.107.185 1.412 1.681 1.897 1.878.662l1.536-7.941c.071-.777.009-1.078-.341-1.323-1.642-1.084-3.01-1.988-7.17-1.985-4.305.119-10.218 3.075-12.121 6.783-3.232 6.414-.151 11.914 1.024 13.235 1.315 1.332 5.975 5.625 5.975 5.625 1.631 1.916 3.93 5.418.854 10.257a5.51 5.51 0 0 1-2.159 1.794 5.7 5.7 0 0 1-2.792.522c-1.559-.099-4.049-.339-4.268-9.926-.028-2.115-2.396-2.476-3.073 0l-1.536 8.438a5 5 0 0 0-.342-.827l-6.999-22.665 2.732-3.143c6.014-6.957 8.814-7.318 10.242-7.279 1.747.094 1.312-2.211.174-2.151-1.101-.061-3.653.061-4.441 0-.956.061-4.877-.061-6.146 0-1.346-.061-1.659 2.231.171 2.151 1.781-.039 1.408 2.01.682 2.813L276.95 70.504c-.267.287-.828.166-.683-.331l2.219-12.243c.376-1.495 1.87-2.402 3.244-2.482 1.363-.039 1.178-2.211 0-2.151-2.874-.061-5.358.119-6.829.165-1.516-.047-4.256-.226-6.487-.165-1.627-.061-1.69 2.291.171 2.316 1.377-.025 1.812.819 1.707 2.151l-5.804 30.607c-.313 1.238-1.246 1.299-2.561 1.489-1.178.29-2.049 2.523 0 2.482l6.487-.331c1.235.072 5.591.19 6.487.331.974-.019 1.534-1.767.171-2.151-1.499-.46-2.433-1.125-2.219-2.647l2.731-13.566h1.537l4.268 14.062c.21 1.266.398 1.869-.854 1.985-1.423.185-1.673 2.176-.171 2.151 1.363.025 4.473-.097 5.975-.168 1.36.072 3.602.245 5.463.168.217.019.393-.008.512 0z"/><path d="M187.836 74.474h-2.219l-2.561 13.067c-.168 1.522.765 2.187 2.219 2.647 1.409.383.851 2.131 0 2.151-.692-.096-2.925-.181-4.687-.248l-1.971-.083-6.487.331c-2 .041-1.129-2.192.171-2.482l.231-.036c1.078-.167 1.909-.296 2.159-1.453l5.804-30.606c.151-1.332-.532-2.115-1.878-2.151-1.892.036-1.581-2.377.171-2.316 1.557-.045 3.459.041 4.938.108l1.379.057 7.853-.331c3.001-.196 11.153.587 10.413 8.768-.629 8.225-9.466 10.459-9.731 10.423-.358.036-.48.518 0 .496 1.634.022 3.065.626 3.415 2.815l1.707 11.581c.31 1.492.805 2.396 2.219 2.647 1.326.232 1.451 2.341 0 2.316h-9.56c-.503.025-.754-.276-.853-.827l-2.732-16.875zm1.947-18.862l-.581.002-3.073 16.048c4.88.064 7.839-3.527 8.194-10.257.338-5.849-2.46-5.816-4.54-5.792z"/></svg>