<svg xmlns="http://www.w3.org/2000/svg" viewBox="0 0 221 231" fill="#cad0d9"><path d="M155.605 148.613c-4.982 0-7.937-2.561-8.163-6.248h4.763c0 1.229.679 2.865 3.626 2.967 2.043 0 3.173-1.229 3.173-2.153-.226-1.433-2.042-1.535-3.851-1.848-2.043-.297-3.626-.712-4.764-1.221-1.583-.822-2.495-2.568-2.495-4.408 0-3.281 2.729-5.841 7.485-5.841 4.538 0 7.485 2.357 7.703 5.943h-4.53c0-.917-.226-2.459-2.947-2.459-1.817 0-2.947.305-3.173 1.636 0 1.848 3.851 1.746 6.798 2.459 2.721.72 4.538 2.458 4.538 4.925 0 4.51-3.626 6.248-8.163 6.248zm-86.809-30.258l15.64-9.121 8.389 14.454H71.743"/><path d="M103.973 129.826v18.243h-4.577v-18.243h4.577z"/><path d="M61.536 139.217c0 2.866 2.495 5.223 5.208 5.223 2.955 0 5.216-2.357 5.216-5.223 0-2.763-2.261-5.222-5.216-5.222-2.713 0-5.208 2.459-5.208 5.222zm4.982 9.427c-4.982 0-9.286-4.204-9.286-9.427s4.304-9.324 9.286-9.324c2.043 0 3.859.516 5.442 1.636v-1.433h4.538v18.133h-4.537v-1.127c-1.357 1.026-3.4 1.542-5.442 1.542zm60.537-24.961l-21.761-38.114 15.64-9.223 27.203 47.337m-65.744 15.534c0 2.866 2.269 5.223 5.216 5.223 2.713 0 5.216-2.357 5.216-5.223 0-2.763-2.503-5.222-5.216-5.222-2.947 0-5.216 2.459-5.216 5.222zm4.99 9.427c-5.216 0-9.294-4.204-9.294-9.427s4.078-9.324 9.294-9.324c2.035 0 3.852.516 5.442 1.636v-7.681h4.53v24.381h-4.53v-1.127c-1.591 1.026-3.407 1.542-5.442 1.542zm-.223-46.579l15.866-9.012 17.458 30.629H103.93v4.51H99.4v-4.51m61.428 4.652c-1.138 0-2.268-1.026-2.268-2.255s1.13-2.255 2.268-2.255c1.357 0 2.27 1.026 2.27 2.255s-.913 2.255-2.27 2.255zm0-4.196c-1.138 0-1.816.916-1.816 1.941s.678 1.95 1.816 1.95c1.131 0 1.809-.924 1.809-1.95s-.678-1.941-1.809-1.941z"/><path d="M161.297 127.316l-.453-1.025h-.452v1.025h-.343v-2.458h1.021c.227 0 .679.313.679.72a.73.73 0 0 1-.452.713l.452 1.025m-.905-2.145h-.452v.814h.452c.453 0 .453-.101.453-.407 0-.211 0-.407-.453-.407zm-29.955 14.046c0 2.866 2.269 5.223 5.216 5.223 2.721 0 5.208-2.357 5.208-5.223 0-2.763-2.487-5.222-5.208-5.222-2.947 0-5.216 2.459-5.216 5.222zm4.982 9.427c-5.208 0-9.286-4.204-9.286-9.427s4.078-9.325 9.286-9.325c2.043 0 3.859.517 5.442 1.637v-1.433h4.312v18.133h-4.311v-1.127c-1.584 1.026-3.4 1.542-5.443 1.542zm-25.823-9.427c0 2.866 2.495 5.223 5.216 5.223 2.948 0 5.216-2.357 5.216-5.223 0-2.763-2.269-5.222-5.216-5.222-2.721 0-5.216 2.459-5.216 5.222zm10.432-15.369h4.53v24.381h-4.53v-1.127c-1.364 1.026-3.181 1.542-5.216 1.542-5.216 0-9.52-4.204-9.52-9.427s4.304-9.325 9.52-9.325c2.035 0 3.852.517 5.216 1.637v-7.681z"/></svg>