<svg xmlns="http://www.w3.org/2000/svg" viewBox="0 0 221 286" fill="#4e5562"><path d="M54.493 119.85l-2.205-.112-.909-.18-.182-.337c0-.315.227-.45.682-.45h22.802c10.685 0 18.187 3.214 22.552 9.664 2.501 3.73 3.75 8.158 3.75 13.282 0 2.674-.409 5.258-1.25 7.753-.954 2.629-2.273 4.945-3.978 7.012-1.865 2.18-4.138 3.866-6.752 5.102-2.797 1.258-5.934 1.91-9.457 1.91H50.47c-.477 0-.705-.158-.705-.427 0-.292.341-.449.977-.449l5.57-.336c.864-.114 1.478-.361 1.774-.698l.568-.787c.205-.538.319-1.347.341-2.449v-35.644c0-1.393-.796-2.247-2.341-2.584l-2.161-.27zm12.277.607l-.159.899v39.576c0 .449.091.763.273.876l.91.135h3.001l6.956-.247c1.864-.202 3.455-.495 4.706-.899 1.244-.449 2.409-1.085 3.455-1.887.909-.742 1.841-1.799 2.865-3.147 1.704-2.202 2.932-5.011 3.682-8.45.454-2.246.682-4.426.682-6.516 0-1.843-.273-3.821-.841-5.956-.796-3.079-2.001-5.776-3.706-8.068-3.296-4.449-8.707-6.652-16.186-6.652h-4.615c-.522-.046-.863.066-1.022.336zm38.692 42.7c-.045-.271.182-.383.683-.383l1.591-.045c.864-.112 1.387-.404 1.591-.854l.296-1.618V147.2c0-.494-.182-.876-.523-1.101l-1.182-.113-1.591.428-.865-.046c-.113-.27.228-.517 1.023-.742 1.887-.494 3.548-1.123 4.956-1.91.864-.494 1.478-.764 1.75-.876l.683-.067c.227.044.341.494.341 1.303v16.45c0 .786.182 1.348.523 1.685.409.405 1.364.607 2.842.607.523 0 .795.113.841.359 0 .203-.159.27-.432.27h-12.118c-.272.002-.409-.111-.409-.29zm53.652-16.182c-1.114 1.147-1.864 2.495-2.274 4.113v9.552c0 .853.296 1.46.91 1.842l1.387.246 1.455.158c.341.045.478.113.478.292l-.068.158-.387.113h-12.162c-.364 0-.568-.113-.568-.292l.34-.271 2.047-.157c.795-.135 1.296-.404 1.568-.809l.342-1.011v-13.484l-.228-.989-.386-.224c-.114-.112-.295-.179-.569-.225-.34-.022-.75.046-1.181.225l-1.159.315-.66-.158c-.114-.157-.068-.269.091-.336l.977-.405c2.227-.652 4.024-1.326 5.275-2.022l1.545-.832.682.044.273.563v4.943c1.706-2.741 3.069-4.426 4.002-4.989.568-.336 1.113-.607 1.523-.719l.795-.067c.5-.045 1.069.112 1.705.517.864.494 1.319 1.236 1.364 2.179.046.788-.183 1.395-.683 1.866-.454.382-.909.495-1.318.382-.386-.067-.682-.225-.886-.449l-.637-.786c-.5-.72-.977-.945-1.545-.742-.662.178-1.343.674-2.048 1.459zm-47.513-18.473a2.84 2.84 0 0 0-2.091.855 2.57 2.57 0 0 0-.865 2.112c-.045.787.25 1.461.865 2.023a2.84 2.84 0 0 0 2.091.854 2.87 2.87 0 0 0 2.068-.854c.568-.562.886-1.236.886-2.023a2.9 2.9 0 0 0-.886-2.112c-.568-.562-1.273-.855-2.068-.855zm12.049 17.934c.818-1.079 1.842-1.978 3.069-2.696 1.092-.63 2.182-1.034 3.319-1.237l4.206-.247c1.522.067 2.933.36 4.206.921 3.069 1.348 5.001 3.821 5.728 7.416.75 3.641.115 6.721-1.887 9.215-1.704 2.112-3.955 3.461-6.797 4.045-2.977.651-5.751.449-8.252-.562-3.252-1.304-5.228-3.888-5.866-7.663-.568-3.573.182-6.608 2.274-9.192zm13.321-1.011c-1.387-1.527-3.137-2.202-5.252-2.023-2.045.203-3.614 1.326-4.637 3.461-.932 1.933-1.273 4.294-.932 7.08.249 2.764 1.137 4.966 2.568 6.652 1.524 1.775 3.252 2.517 5.184 2.18 2.023-.382 3.502-1.462 4.479-3.259.954-1.842 1.295-4.224 1.068-7.258-.272-3.034-1.067-5.283-2.478-6.833zm-31.668.989v.225l-.5-.315v.112l.045.203h-.068v-.428h.023l.454.338v-.338h.091l-.045.203z"/><path d="M106.144 146.257h-.272v.157h.227v.022h-.227v.157h.272v.046h-.34v-.428h.34v.046zm1.251-.046h.023l-.227.428h-.069l-.182-.338-.204.338h-.023c-.114-.203-.205-.338-.228-.428h.114l.137.338.204-.338h.068l.16.338.182-.338h.045zm.636.225l.046.203h-.114v-.157l-.227-.271h.113l.182.225.182-.225h.091l-.273.225zm.637-.134c.045-.045.159-.09.273-.09s.182.045.273.09c.022.022.068.067.068.134l-.068.158c-.091.045-.159.045-.273.045s-.227 0-.273-.045l-.114-.158c0-.067.046-.112.114-.134zm.455 0l-.182-.045-.181.045c-.046.022-.091.067-.091.134 0 .046.045.09.091.114l.181.089c.068 0 .159-.045.182-.089.045-.023.091-.068.091-.114 0-.067-.046-.112-.091-.134zm.682-.045l-.023.157h.068c.113 0 .182-.045.182-.09 0-.022-.023-.067-.138-.067h-.089zm.113-.046c.115 0 .204.046.204.113l-.09.09-.114.022.273.203h-.115l-.272-.203h-.022l.023.203h-.115v-.428h.228zm1.137 0l-.295.203.295.225h-.113l-.251-.203v-.022l-.046.022.046.203h-.114v-.428h.114l-.046.203h.046l.296-.203h.068z"/></svg>