<svg xmlns="http://www.w3.org/2000/svg" viewBox="0 0 221 232" fill="#cad0d9"><path d="M101.017 118.457c0 2.799-2.324 5.067-5.19 5.067s-5.192-2.269-5.192-5.067V92.811c0-2.799 2.324-5.067 5.192-5.067s5.19 2.268 5.19 5.067v25.646zM59.695 97.991c-2.867 0-5.191-2.269-5.191-5.068s2.324-5.068 5.191-5.068h22.367c2.866 0 5.191 2.269 5.191 5.068s-2.324 5.068-5.19 5.068H59.695zm20.876 13.103c2.866 0 5.19-2.269 5.19-5.068s-2.324-5.068-5.19-5.068H59.81c-2.867 0-5.19 2.268-5.19 5.068v12.431c0 2.799 2.324 5.067 5.19 5.067s5.191-2.269 5.191-5.067v-7.392l15.57.029zm77.652 12.472c4.569 0 8.273-3.673 8.273-8.133 0-1.673-.521-3.227-1.413-4.516l-13.401-21.312c-.925-1.391-2.531-2.31-4.355-2.31-1.883 0-3.532.978-4.442 2.443l-14.484 22.783H115.01V92.924c0-2.799-2.324-5.068-5.19-5.068s-5.191 2.269-5.191 5.068v25.533c0 2.799 2.325 5.067 5.191 5.067h19.098c2.351.027 4.702-1.261 6.423-3.893l11.986-18.757 8.028 12.486-11.24.028c-2.866 0-5.191 2.268-5.191 5.067s2.325 5.068 5.191 5.068l14.108.043zm-95.564 12.766c.189-.369.465-.682.802-.909.327-.226.711-.346 1.103-.344 1.377 0 2.115.818 2.214 2.453h-4.412a2.57 2.57 0 0 1 .294-1.2zm3.771 4.107c-.174.255-.414.471-.722.646s-.654.264-1.041.264c-.755 0-1.328-.235-1.718-.704s-.585-1.136-.585-2.006h5.791c0-.977-.126-1.828-.379-2.555s-.634-1.286-1.145-1.678-1.139-.588-1.886-.588c-.843 0-1.549.2-2.118.601s-.992.946-1.269 1.64-.414 1.478-.414 2.359c0 .799.142 1.513.425 2.139s.692 1.116 1.225 1.471 1.164.53 1.891.53c.897 0 1.615-.19 2.152-.568a3.09 3.09 0 0 0 1.006-1.136c.234-.454.368-.83.402-1.127h-1.335c-.014.219-.108.456-.283.712zm13.27.348l2.123-6.73h1.468l-.651 1.905-.638 1.858-1.559 4.346c-.355.95-.627 1.636-.815 2.061s-.378.746-.567.966-.406.359-.648.422-.6.095-1.077.095c-.081 0-.267-.043-.558-.128v-1.277a2.27 2.27 0 0 0 .802.144c.237 0 .417-.04.54-.121s.241-.244.353-.487.284-.679.515-1.304l-2.94-8.479h1.516l2.105 6.73h.03v-.001zm13.2-4.455c.196-.377.463-.68.801-.909a1.92 1.92 0 0 1 1.104-.344c1.377 0 2.115.818 2.214 2.453h-4.412c0-.422.098-.823.294-1.2zm3.771 4.107a2.13 2.13 0 0 1-.722.646c-.307.176-.654.264-1.041.264-.755 0-1.328-.235-1.717-.704s-.585-1.136-.585-2.006h5.791c0-.977-.126-1.828-.38-2.555s-.634-1.286-1.144-1.678-1.139-.588-1.886-.588c-.843 0-1.55.2-2.119.601s-.992.946-1.268 1.64-.413 1.478-.413 2.359c0 .799.141 1.513.425 2.139a3.4 3.4 0 0 0 1.226 1.471c.533.352 1.163.53 1.891.53.897 0 1.615-.19 2.152-.568.421-.285.767-.676 1.006-1.136.235-.454.369-.83.403-1.127h-1.336c-.015.219-.11.456-.283.712zm14.866-4.523l-1.543 6.404h-1.38l-2.291-8.263h1.458l1.514 6.491h.029l1.533-6.491h1.483l1.547 6.491h.03l1.61-6.491h1.332l-2.305 8.263h-1.377l-1.606-6.404h-.034zm14.963.416c.189-.369.464-.682.801-.909a1.93 1.93 0 0 1 1.104-.344c1.377 0 2.115.818 2.213 2.453h-4.413a2.57 2.57 0 0 1 .295-1.2zm3.771 4.107c-.175.255-.414.471-.722.646s-.655.264-1.041.264c-.756 0-1.327-.235-1.718-.704s-.585-1.136-.585-2.006h5.793c0-.977-.128-1.828-.379-2.555s-.636-1.286-1.145-1.678-1.138-.588-1.886-.588c-.842 0-1.55.2-2.119.601s-.991.946-1.267 1.64-.414 1.478-.414 2.359c0 .799.141 1.513.424 2.139s.692 1.116 1.227 1.471 1.163.53 1.89.53c.898 0 1.615-.19 2.153-.568a3.09 3.09 0 0 0 1.006-1.136c.234-.454.368-.83.403-1.127h-1.336c-.015.219-.11.456-.284.712zm14.913.001c-.233.298-.537.533-.917.702-.373.17-.775.257-1.181.257-.957 0-1.435-.478-1.435-1.433 0-.319.089-.572.265-.761s.384-.322.621-.399.507-.137.806-.181c.758-.102 1.282-.192 1.575-.266s.497-.16.615-.258v1.359a1.56 1.56 0 0 1-.349.98zm-2.832-5.007c.24-.305.692-.456 1.352-.456 1.24 0 1.859.448 1.859 1.344 0 .607-.231.932-.694.975l-2.19.286c-.962.123-1.605.445-1.929.968a3.04 3.04 0 0 0-.486 1.625c0 .465.106.879.316 1.241s.505.644.882.843.805.3 1.285.3c.688 0 1.25-.127 1.691-.38s.834-.58 1.169-.968c.032.395.142.704.331.927s.549.335 1.082.335c.164-.001.328-.027.485-.078.064-.021.146-.045.244-.075v-1.012c-.202.04-.348.061-.439.061-.292 0-.439-.163-.439-.489v-4.755c0-.632-.182-1.121-.544-1.465a2.65 2.65 0 0 0-1.212-.679c-.447-.108-.839-.163-1.18-.163-1.023 0-1.817.222-2.381.664s-.861 1.138-.89 2.09h1.231c.064-.455.216-.834.457-1.139zm15.413 2.082v4.805h-1.337v-8.263h1.26v1.37h.033c.589-1.072 1.332-1.609 2.227-1.609.129 0 .243.017.347.05v1.432h-.499c-.602 0-1.09.215-1.466.645s-.565.953-.565 1.57z"/></svg>