<svg xmlns="http://www.w3.org/2000/svg" viewBox="0 0 221 286" fill="#cad0d9"><path d="M63.419 141.949h2.203v3.965h-7.834v-3.965h2.192v-2.323h-6.964v2.323h2.216v11.679h-2.216v2.312h6.964v-2.312h-2.194v-5.419h7.834v5.419h-2.201v2.312H70.4v-2.312h-2.222v-11.679h2.224v-2.323H63.42m84.005 14.002h-6.864v-5.442h5.905v-2.303h-5.907v-3.934h6.918v2.232h2.432v-4.555h-14.228v2.323h2.321v11.679h-2.321v2.312h14.262v-5.436h-2.516m-59.507 0h-2.516v3.124H78.54v-5.442h5.906v-2.303H78.54v-3.934h6.919v2.232h2.432v-4.555H73.663v2.323h2.321v11.679h-2.322v2.312H87.92m53.303-17.119h4.989l-1.276-1.433h-5.115m23.998 9.223c-1.741-.467-2.97-.361-4.741-.918-1.6-.505-1.916-1.432-1.916-2.045s.706-2.217 3.219-2.217 4.162 1.567 4.255 2.947l.01-.007v.007h2.416v-4.756h-2.338v1.036l.073.323c-.016-.047-.083-.178-.329-.408-.745-.641-2.158-1.325-4.282-1.325-2.574 0-5.607 1.504-5.607 4.411 0 2.833 2.173 3.822 4.016 4.28l4.326.854c1.537.393 2.533 1.265 2.533 2.559 0 1.224-.8 2.83-4.052 2.83s-4.543-1.655-4.92-4.022l-.027.011h-2.299v5.774h2.403v-1.08l-.007-.008-.087-.286c.085.153.209.282.36.372l.024.032c1.216.879 2.812 1.462 4.858 1.462 2.282 0 6.278-1.103 6.278-5.012-.007-2.797-1.583-4.114-4.166-4.814zm-38.446 7.017v2.312h7.064v-2.312h-2.316v-11.679h2.316v-2.323h-6.314l-4.182 9.534-.087.468-.083-.475-4.182-9.528h-6.307v2.323h2.31v11.678h-2.314v2.312h7.059v-2.31h-2.207v-10.74l.016-.709.205.565 4.815 10.854h1.37l4.831-10.858.177-.571.027.644v10.815M77.12 132.757v.534h2.382l-.68-.534H77.12zm64.171.01h-1.24c-.345.063-.6.337-.628.524h1.866v-.526l.002.002zm-64.171 2.081h64.161v-1.13h-41.265c-1.055.474-2.393.452-3.436 0H84.051c-1.196.487-2.535.489-3.732.005l-3.199-.008v1.13.003zm18.067-2.091h-9.69c-.033.063-.477.424-.656.534h10.963c-.226-.153-.433-.332-.616-.534h-.001z"/><path d="M78.22 128.563a3.69 3.69 0 0 0-.188 1.104c.018.509.138 1.009.354 1.471s.521.875.899 1.216c.773.709 1.809 1.105 2.887 1.105a4.28 4.28 0 0 0 2.887-1.104 3.8 3.8 0 0 0 1.254-2.687 3.66 3.66 0 0 0-.257-1.31l1.403-.294c.217-.055.208-.148.038-.196-.636-.178-1.281-.322-1.933-.43a4.05 4.05 0 0 0-1.478-1.227 4.33 4.33 0 0 0-1.913-.443 4.29 4.29 0 0 0-1.499.274c-.007-.003-.013-.012-.017-.015-.094-.161-.148-.339-.157-.522a1.12 1.12 0 0 1 .107-.533c.421-.647 1.356-.9 2.124-.961.258-.012.878.016.945.085.15.113.408.154.683.063.263.094.33.168.63.256 2.639.847 5.561 1.295 8.514.784.462.412.716 1.134 1.04 1.633.087.125.192-.094 1.646-.141l1.691-.004c-1.133.123-2.108.722-2.686 1.589-.91.273-1.611.534-1.874.684-.323.184-.383.286 0 .38.448.11.903.19 1.361.24-.03.173-.057.35-.057.531 0 .918.387 1.799 1.076 2.448s1.624 1.014 2.598 1.014 1.909-.365 2.599-1.014a3.36 3.36 0 0 0 1.076-2.448 3.28 3.28 0 0 0-.457-1.64l1.466-.518c.4.136.672.361.958.675.234.248.762.15 1.075.078.508-.126.587-.507.583-.942 0-.198.01-.392.11-.549.595-1.276 2.972-1.444 4.192-1.727 0 0-.638.722-1.09.882-.091 1.864-.849 3.485-.941 5.262.575.022.55.628.688.973-.16.327-.436 0-.688.11-.873-.455.207-1.19-.506-1.753.366-1.492.966-2.943.916-4.524-.228.022-.317.26-.412.433-.161 1.496-.619 2.86-1.033 4.244.184.087.505.173.484.434-.554.325.021.847-.209 1.218h-5.673l-.629.533h8.7l.083-.301c-1.283-1.256-.8-3.139-.205-4.568l1.493-1.905c1.241-.455 1.999-1.884 3.309-2.339 0 .607-.805.868-1.241 1.213-.457 1.017-1.906 1.126-2.113 2.253.55.606 1.374.995 2.066 1.558.713.413.456 1.278 1.033 1.711.093.131 0 .325-.163.434-.605.136-.587.521-.222.841.233.204.5.471.47.571h-4.015c0 .173.163.239.339.534h22.176c.167-.295-.195-.644-.35-.934-1.566-.557-1.558-1.953-1.649-3.491.016-.063-.09-.209-.074-.526-.233-.207-1.263-2.676-.794-4.608l.341-.636c.322-.435-.02-.667.208-1.121l4.674-.851c.083-.04.061-.219-.027-.301l-1.419.248c-1.128-.447-2.783-1.436-3.872-2.778.338-2.176.17-3.94-.059-5.117l1.24-1.04c.471.267.573.142.638-.003-.075-.081-.775-.361-.66-.646.442.11.54-.019.608-.251l-.31-.104h-.01l.05-.157c.09-.173.507-.009.667-.053.278-.161-.033-.401.06-.617-.65-.518-1.823-.534-2.533-1.016-.22-.386-.309-.549-.539-.706-.237-.157-1.267-.247-1.458-.189s-.55.382-.55.382c-.738.146-1.183-.079-1.691-.369.045.176.131.338.251.474a1.15 1.15 0 0 0 .439.308c-.513.197-.74.606-.823 1.117-.707.135-.733.798-.642 1.099-.578.325-.521.757-.316 1.193-.517.326-.439.797-.292 1.157-.433.251 0 .948.067 1.356 1.244-.242 2.799 2.347 5.031 2.665.42-1.847-.106-2.753-.59-3.665.364-.199.759-.474 1.142-.763.294 1.583.339 3.202.133 4.799-.017-.016-.033-.028-.043-.044-.14 0-.28-.088-.393-.13.023.062.279.447.228.518 0 0-.723.45-2.158-.118-.383.844-5.308 2.919-5.308 2.919.183 1.281.83 2.132 1.496 2.826 1.058.738 2.188 1.117 3.522 1.378l1.267 3.312c.089.364.304.364.304.364.129.163.55.886.597 1.232l.105 1.225c.045.279.433.069.506.307l-.18.823-14.753.003c.207-.973-.32-1.824-.046-2.69-.593-.974-2.203-1.645-1.93-2.923.783-1.017 3.216-2.009 2.666-3.238 2.211-1.057 3.377.706 5.471.576.73-.038 1.543-.113 2.211-.299-.826-.674-1.616-1.667-2.032-2.553-4.389 1.663-8.657 3.034-13.416 3.943l-.366-.11c-.362.052-5.603 1.161-6.993 1.671-.364-.206-.765-.351-1.182-.428h.122c.445 0 1.125-.223 1.606-.381 2.036-.701 2.786-3.432 3.699-5.168.8 2.7 2.656 2.92 3.732 2.584l.1.847s.94-.031 1.646-.298c-.072-.16-.167-.588-.233-1.152.428-.209.659-.361.854-.468.059.641.1 1.245-.103 1.57l2.423-.609c.466-1.973 1.732-4.715 3.97-6.718-3.004-1.126-5.255.16-5.826.675-2.828.85-2.941 4.527-2.856 5.792-.49.091-2.546.763-3.519-2.59.567-1.287 1.641-2.719 2.849-3.835.105-.083-.016-.215-.258-.082-2.428 1.57-3.316 4.333-4.62 6.665-1.023 1.449-2.404 2.234-4.475 2.151-2.586-.038-3.837-2.579-5.022-4.229-1.816-3.747-6.514-2.402-10.006-3.202-.195-.094-.583-1.177-1.14-1.137-.395.029-.023.412-.25.54-.438-.172-.806-.475-1.356-.389-.345.066-.438.411-.413.716.275 1.19 1.629 1.711 2.641 2.144.388.546.243 2.433-.08 3.081-.417.722-2.054.465-2.382 2.119-.063.336.017.628.163.903-.636.315-1.174.78-1.563 1.35-.677.148-1.347.33-2.006.546-.167.057-.167.148.05.195.496.096.995.173 1.496.232l-.004-.011zm51.738-9.264c.6.617 2.032 1.554 2.949 1.86l-2.654.463c.3-1.059-.722-1.466-.295-2.323zm.286-8.575c.1-.039.38.063.495.091.07.016.044.157.009.282-.174.035-.444-.055-.48-.141-.05-.094-.122-.191-.024-.232zm.022.643a1.38 1.38 0 0 0 .228.55c-.003.085-.495.513-1.061.965-.14-.654-.283-1.105-.317-1.284.225-.151.833-.314 1.15-.231zm-2.541-2.296c.1-.031.304.031.358.069s.01.198.007.251-.253.167-.253.167-.24-.173-.237-.227l-.011-.004a2.09 2.09 0 0 1 .136-.256zm.312 4.839c-.313-.596-.567-1.227-.5-2.15.303-.005.743.182 1.325-.066 0 0 .179.512.358 1.35-.433.34-.883.672-1.183.866zm-3.974 10.376c-.949-.449-.358-.072-.083-.267 1.504.653 2.262.502 3.389.374.161.194.383.376.383.635-1.378.369-2.449-.11-3.69-.741l.001-.001zm5.42 6.985c-.088-.688-.13-1.174-.467-1.502-.266-.685-1.039-2.587-1.589-4.301.333-.311.592-.149.813.703.212.688.467 1.256.66 1.83.256.578.45 1.347.646 1.752 0 0 .174.028.27.246.483 1.272.61 1.476.528 2.082.117.475.827.088.762.675H129.6l.663-.005c-.457-.455-.134-1.133-.78-1.48zm-29.376 1.138c-.417.293-.916.48-1.461.54-.053-.016-.1-.118-.103-.181l-.087-1.769c-.003-.019.03-.039.05-.047.078-.026.153-.056.227-.091.02-.011.072-.016.088 0l1.232 1.347c.044.05.084.16.05.204l.004-.003zm-1.906.565a3.19 3.19 0 0 1-1.378-.364c-.033-.044-.022-.16.017-.212l1.03-1.479c.01-.015.05-.015.073-.009.067.019.135.035.203.047.023 0 .067.031.067.052l.092 1.773c.003.063-.05.173-.105.189l.002.003h-.001zm-2.599-3.684c-.067-.019-.167-.104-.163-.157.092-.244.219-.475.375-.684a30.54 30.54 0 0 1 .766-.195l.833.989-.038.005a14.91 14.91 0 0 1-1.523.1l-.25-.063v.005zm2.344-2.025c.05.019.1.119.1.181l.008.138c-.5.091-.99.193-1.459.306-.03-.058-.045-.126-.02-.157.4-.256.866-.413 1.366-.466l.005-.002zm-.263 1.931l-.846-.999a30.79 30.79 0 0 1 1.236-.257l.057 1.169c-.167.038-.305.063-.447.087zm-.08.314c-.003.011 0 .022-.007.031-.04.054-.076.11-.108.168-.01.02-.05.05-.075.047l-.608-.157c.26-.025.525-.047.8-.091l-.002.002zm1.121-.214c-.01.016-.05.016-.073.008h-.008l.088-.019-.005.01-.002.001zm-.355-.243l-.058-1.157c.494-.089.99-.162 1.489-.22-.006.048-.02.095-.043.138l-.755 1.08a13.33 13.33 0 0 1-.633.159zm1.588-1.115c.033-.051.14-.109.196-.098a3.13 3.13 0 0 1 .584.554l-1.38.408.6-.864zm-1.666-.397l-.003-.11c-.003-.065.05-.182.103-.193a3.19 3.19 0 0 1 .9.157 22.45 22.45 0 0 0-1 .145v.001zm-.042-.306c.017 0 .03-.004.045-.004l.04.003h-.087l.002.001zm-4.362 1.953c-.163-.047-.125-.094-.027-.134.328-.122.696-.243 1.083-.361-.093.202-.168.412-.223.628-.281-.02-.56-.066-.833-.133zm1.408.447a10.56 10.56 0 0 0 .755.005l1.293.334c.017.005.03.041.03.063a1.24 1.24 0 0 0 .023.228c0 .022-.017.039-.037.047l-1.724.717c-.063.024-.188.022-.227-.019a2.72 2.72 0 0 1-.17-.901c0-.163.023-.318.05-.471l.007-.003zm.285 1.76c0-.053.092-.135.15-.16l1.733-.681c.017-.01.05.015.063.031.03.034.075.086.117.125.02.016.037.063.027.079l-1.033 1.485c-.037.053-.15.11-.203.094a2.89 2.89 0 0 1-.85-.973h-.004zm1.028 1.103c-.017-.011-.028-.02-.043-.028l.045.027-.002.001zm3.849-.362c-.05.028-.175-.032-.222-.079l-1.228-1.345c-.017-.012-.003-.047.01-.067.033-.047.062-.095.088-.145.012-.02.05-.05.075-.047l1.816.474c.057.016.15.074.17.126a2.9 2.9 0 0 1-.709 1.083zm.829-1.476c-.03.047-.166.063-.233.047l-1.808-.471c-.022-.004-.033-.04-.033-.062a1.45 1.45 0 0 0-.013-.197c-.005-.022.008-.069.028-.078l1.756-.628c.062-.022.183-.011.225.028a2.76 2.76 0 0 1 .133.806c0 .188-.021.376-.058.557l.003-.002zm-.233-1.766c0 .055-.092.142-.153.165l.116-.037-1.871.662c-.02.008-.05-.016-.063-.031a1.65 1.65 0 0 0-.133-.153c-.022-.015-.037-.059-.028-.078l.162-.231c.57-.141 1.183-.323 1.833-.534.05.079.1.157.14.239l-.003-.002zm4.882-2.527c-.813.553-.43 1.204-.933 1.334-.184-.025-1.207.151-1.366.22-.345-.303-.697-.559-1.227-.69 1.008-.39 2.606-.776 3.526-.864zm-3.307 1.374c-.175.078-.642.248-1.27.455-.156-.222-.34-.425-.546-.606.786-.039 1.427 0 1.816.151zm8.776-9.698c-1.229 1.165-1.071 2.904-.928 4.273-.283.195-.633.358-.859.477-.134-1.68.056-4.185 1.787-4.75zm-30.772.59c-.207-.26-.51-.659-.275-.93.173-.201.526-.044.733.044.175.086 1.553.784 1.928.882 2.782.653 6.298-.31 8.504 1.574.108.094.187.184.163.314-3.237-2.078-8.112.995-11.053-1.884zm2.619 3.356c.23.131.322.476.575.671.413.649 1.195.866 1.608 1.428a1.49 1.49 0 0 1-.416-.028c-.27-.05-.377-.126-.603-.22-.12-.184-.422-.245-.658-.126-.354.028-.71.001-1.056-.078.067-.521.6-1.019.55-1.647zm-3.239 5.604l.846.887c-.589-.006-1.178-.028-1.766-.068-.043-.056-.067-.109-.055-.141.108-.213.24-.411.392-.596.188-.032.387-.055.583-.079v-.003zm5.018.22a3.36 3.36 0 0 1 .267.447c-.441.06-.883.105-1.326.137l.661-.534c.167-.125.357-.099.398-.05zm-.583-.138l-.94.753c-.24.016-.483.022-.728.032l.383-1.027c.477.016.94.047 1.371.088-.02.055-.037.11-.083.154h-.003zm-.23 4.622c-.34.232-.718.404-1.116.507-.073-.009-.213-.116-.253-.273l-.367-1.872c-.007-.024.003-.054.028-.063a.97.97 0 0 0 .2-.088c.022-.016.05-.005.067.013l1.358 1.406c.133.148.128.318.083.37zm-2.876-3.312c.017.016.023.051.008.069-.042.048-.057.063-.09.121-.012.022-.04.025-.067.016l-1.513-.509c.468.025.936.038 1.404.037l.257.266h.001zm1.499-.07c-.046-.04-.096-.074-.15-.102a.04.04 0 0 1-.023-.058l.028-.073.527-.025-.317.252c-.017.015-.045.021-.065.006zm-.358-.448l-.39.013h-.007l-.208-1.052c.067-.003.125-.011.19-.015.275 0 .543.009.813.015l-.4 1.041.002-.002zm-.88-1.023l.203 1.036a18.56 18.56 0 0 1-.578 0l-.9-.926c.413-.047.836-.083 1.275-.11zm.225 1.271c-.005.007 0 .019-.01.022-.07.024-.137.054-.2.091-.023.016-.05.005-.067-.012l-.093-.097c.123-.004.25 0 .372-.005l-.002.001zm-2.866-.313c.005-.013.017-.027.022-.043a.3.3 0 0 1-.022.044v-.001zm-.155.474c.038-.059.217-.131.387-.079l1.904.64c.022.007.042.032.037.055a.97.97 0 0 0-.017.176c0 .025-.022.039-.045.047l-1.989.349c-.197.026-.333-.063-.361-.126-.008-.094-.028-.182-.028-.276a2.94 2.94 0 0 1 .112-.786zm.033 1.685c.007-.07.122-.212.293-.248l1.983-.342c.012-.002.025-.001.036.005s.02.015.024.027c.02.053.027.078.063.135.012.022.005.044-.017.062l-1.578 1.196c-.17.121-.35.095-.392.048a3.34 3.34 0 0 1-.412-.883zm.475.967a.48.48 0 0 1-.047-.062c.01.018.032.042.047.062zm.371.427c-.037-.053-.01-.251.13-.361l1.576-1.185c.017-.022.045-.027.067-.008.045.04.117.09.177.121.025.013.033.032.02.06l-.683 1.792c-.073.181-.227.252-.295.239a3.58 3.58 0 0 1-.99-.659l-.002.001zm1.155.735c-.021-.007-.042-.015-.062-.025l.062.025zm.477.141c-.063-.036-.15-.198-.097-.358l.69-1.799c.007-.023.03-.039.055-.034a.99.99 0 0 0 .188.016c.028 0 .045.022.05.047l.372 1.875c.03.181-.058.299-.125.336-.093.007-.187.027-.283.027a3.5 3.5 0 0 1-.846-.11h-.004zm3.282-.832c.017-.015.033-.031.043-.047-.017.016-.028.032-.043.047zm.122-.133c-.062.036-.258.023-.383-.098l-1.348-1.419c-.017-.015-.023-.047-.005-.067.034-.037.063-.078.087-.122.012-.024.04-.029.063-.016l1.933.647c.2.073.25.222.233.282-.15.288-.342.555-.572.793h-.008zm.583-.82c.035-.064.065-.129.092-.197-.028.066-.059.132-.092.196v.001zm.222-.591c-.027.059-.2.147-.378.094l-1.923-.65c-.022-.006-.042-.031-.038-.055.01-.06.017-.088.017-.152 0-.025.023-.039.047-.047l2.028-.299c.2-.023.326.066.346.131.003.063.017.125.017.188 0 .272-.043.534-.112.788l-.004.002zm-.008-1.605c0 .076-.117.211-.29.242l-2.016.298c-.012.002-.025 0-.036-.005s-.019-.015-.024-.026c-.021-.065-.049-.128-.083-.188-.017-.021-.01-.043.008-.063l.6-.484c.573-.04 1.141-.102 1.704-.18a3.34 3.34 0 0 1 .133.408l.004-.002zm1.038-.982c.13.039.175.121.01.163-.173.044-.383.079-.583.118-.075-.167-.175-.319-.272-.471.313.056.6.118.843.188l.002.002zm-3.294-.696l.083-.224c.073-.179.233-.24.307-.229.32.144.618.334.883.565-.424-.052-.849-.088-1.275-.11l.002-.002zm-.263-.675a.37.37 0 0 1 .092.369l-.113.299c-.308-.013-.613-.029-.921-.026-.08 0-.155.016-.237.016l-.078-.402c-.03-.185.062-.304.13-.334.1-.008.193-.028.292-.028a3.7 3.7 0 0 1 .835.106zm-1.783.032c.075.008.22.116.258.276l.05.256c-.17-.147-.327-.309-.47-.483l.163-.048-.002-.001h.001zm-.117.68c-.323.028-.645.062-.963.109-.067-.122-.07-.235-.033-.276.158-.11.33-.207.51-.292a5.4 5.4 0 0 0 .486.459zm-3.502.882c.26-.088.576-.17.926-.248-.092.161-.173.328-.242.499-.238-.027-.483-.052-.683-.088-.17-.028-.129-.119-.001-.163zm61.153-9.297c-.07.054-.093.13-.036.141.106.019.166.053.29.16.066.031.05-.066.033-.119-.067-.151-.207-.242-.283-.182h-.004z"/><path d="M136.253 132.767h-3.276c-.041.208.217.361.367.522h3.577l.999-.458c.177-.408-.179-.769-.166-1.099.06-.982-.522-1.962-.828-2.861.2-.2.45-.659.778-.537.766 1.124.908 2.559.778 3.987-.078.353-.716.675-.696 1.008.011.116.849.066 1.196-.212.061-.229.511-.512.656-.545.16-.432-.09-.417-.05-.678.08-.181-.026-2.127-.17-2.336-.053-.031-.071-.031-.075-.026-.16-.387.23-.978.387-1.344l1.143-.097c-.137-.958-.5-1.953-.73-2.936.14-.229.393-.408.625-.538 1.204-.749.143-1.956.103-2.888-.205-.484-.911-.86-.976-1.394.146.107.258.063.29.071.345-.223.328-.545.156-.949l.94-1.043c-.033-.492-.871-1.225-1.363-1.225-.29.151-.483.455-1.016.845-.017.02-.64-.204-.828-.016-.184.141-.12.597.216.843-.041.121-.08.168-.15.314-.036.072-.053.149-.005.191.11.095.15.241.072.465-.083.239.2.414.3.449.017.005.05.038.083.078.037.264-.913.738-.913.942-.075.617-.483.556-.879 2.582.05.492.043.926.006 1.314l-1.213 2.786c-.273.722 1.26 2.813 1.283 4.238-.333.471-.6.404-.621.545v.002zm2.487-2.171c-.078-.193-.143-.466-.103-.669.133-.121.383-.031.51-.05.155.675.193.769-.405.722l-.002-.003zm.012-9.979c.043-.031.083-.131.108-.168.505-.304.157-.084-.345-.334-.163-.078-.166-.226-.146-.435.03-.259-.084-.309-.127-.392-.017-.035.062-.162.127-.251.116-.167.221-.512.276-.597.837.032.65.38.672.443.066.169.416.534.588.648-.05.477-.447.196-.27.631-.047.826-1.088.722-1.533 1.4-.045-.671.583-.669.65-.945zm-.95 3.554c.227.193.467.437.64.477.12.283-.25.322-.383.456-.312.044-.428-.267-.61-.126-.042.031-.228-.005-.225-.039.136-.294.332-.556.576-.769l.002.001zm-1.974 4.207c-.117-.571.69-1.46 1.226-3.202.22-.072.337.403.65.22.483.011.276 1.196.726.442-.01-.333-.02-.706.26-.884.303-.065.5.095.52.346l-.467.684c.884.032-.283 1.369.884 1.124-.039.502-.325 1.91-.53 1.84-.16-.78-.29-.456-.29-.226.033.303.026.549.216.794-.063.063-.299.056-.366.071-.66-.887-.633-2.104-1.058-3.068-.072-.003-.162.079-.158.15-.05.58-.29 1.419-.797 1.695-.316.176.697.069-.133.436.317.198.025.466-.323.466-.174-.348-.307-.637-.358-.89l-.002.002zm.875 1.924c-.12-.132-.305-.513-.38-.678l.483-.188a1.29 1.29 0 0 1 .321.706c-.108.055-.258.149-.424.16zm-15.553-9.355c-.072-.926.333-1.711-.125-2.7.005-.408.308-.722.226-1.099l-.744.17c-.114.779-.25 1.036-.139 1.769.197.84.297 1.604.78 1.862l.002-.002zm-7.694 2.59c2.849-.753 4.815-1.397 7.176-2.331-.983-1.978-.767-2.549-.683-3.814 0 0-1.2.015-2.595-.333-1.652 1.005-3.582 4.601-3.898 6.478zm9.776.573c.074.085-.153-.141 0 0zm3.424-5.996c-1.199-.779-2.129-2.59-3.437-2.468-.127-1.334-.745-3.599 1.211-5.988.254-.11.667-.152.827-.327-.8-.078-1.853.388-2.616-.02 0 0 .353.581.763.669-.27.345-.793.591-.475 1.193-.653.365-.406.913-.205 1.208-.326.317-.525.887-.091 1.234-.534.538.128.995.283 1.177-.27.539-.01.955-.01.955-.01.387-.743.942-1.008 1.12-.317.911-.195 2.743-.147 3.956 1.783-.804 3.532-1.568 4.905-2.709zm-20.493 32.181c0-.957-.678-2.087-1.609-2.618-.228-.13-.484-.209-.75-.229.227.012.533-.003.822-.116.009-.004.019-.006.03-.007.943-.395 2.086-1.546 2.086-3.484.012-.662-.144-1.316-.453-1.902s-.76-1.084-1.313-1.449c-1.04-.71-2.273-.87-3.504-.87h-9.697v2.323h2.183v11.702h-2.183v2.314h6.886v-2.316h-2.154v-5.154h4.76c1.641.018 2.276 1.036 2.309 1.91l.12 5.557h4.758v-2.311h-2.224l-.067-3.35zm-4.381-4.049h-5.273v-4.301h4.99c.517 0 1.16-.016 1.662.224.613.294 1.187.926 1.187 1.959 0 1.193-1.16 2.118-2.566 2.118zm-10.868 15.458h-3.287v9.335h1.466v-4.041h1.626c2.366 0 3.441-1.146 3.441-2.612 0-1.478-1.016-2.682-3.246-2.682zm-.06 4.092h-1.758v-2.888h1.819c1.333 0 1.733.737 1.733 1.419 0 .934-.702 1.469-1.794 1.469zm9.005-4.147l-4.385 9.386h1.583l1.2-2.751h4.34l1.242 2.751h1.616l-4.565-9.386h-1.033.002zm-1.033 5.431l1.526-3.689 1.645 3.689h-3.171zm21.646-5.376h1.466v9.335h-1.466v-9.335zm7.562 2.189c0-.659.713-1.109 1.706-1.109.733 0 1.621.219 2.536.973v-1.523c-.731-.426-1.562-.651-2.408-.654-1.979 0-3.277.968-3.277 2.489 0 2.559 4.67 2.779 4.67 4.709 0 .518-.553 1.174-1.758 1.174-1.063 0-2.055-.48-2.849-1.35v1.696c.903.588 1.85.863 3.023.863 1.741 0 3.022-1.07 3.022-2.532.007-2.971-4.665-2.941-4.665-4.736zm-12.745 5.297c-.795-1.162-1.373-2.025-2.316-2.587 1.111-.396 1.736-1.206 1.736-2.284 0-1.614-1.313-2.614-3.416-2.614h-2.625v9.335h1.494v-4.054h.626c.764 0 1.388.219 2.761 2.134l1.311 1.919h1.755l-.772-1.087-.554-.762zm-4.166-3.407h-.958v-2.93h.96c1.449 0 2.029.533 2.046 1.409.012.785-.443 1.52-2.046 1.52l-.002.001z"/></svg>