<svg xmlns="http://www.w3.org/2000/svg" viewBox="0 0 208 245" fill="#cad0d9"><path d="M124.802 90.588c3.787-1.884 5.729-1.595 5.778.289.048 2.464-.341 5.748-.584 8.115-1.456 12.849-3.786 23.331-3.98 36.567 6.263-16.134 11.457-27.244 18.206-41.011 2.136-4.396 3.544-3.574 5.292-4.396 6.845-3.043 7.087-1.159 6.165 2.608-3.3 13.671-11.748 56.903-13.059 63.522-.388 1.932-2.524 1.159-3.01.387-2.525-3.333-5.244-3.383-4.953-5.652 1.554-11.013 7.089-38.885 8.497-45.455-7.331 14.877-14.905 33.571-18.788 44.101-.826 2.223-2.33 2.078-3.253.435-1.36-2.367-3.885-3.526-4.272-6.231-1.36-8.647 1.504-25.167 1.893-35.649-3.933 11.4-10.632 33.62-13.545 43.618-1.213 4.155-5.243 3.431-4.175-.531 4.466-16.858 14.031-46.566 18.157-57.241.971-2.559 3.543-2.414 5.631-3.476zm-24.177-2.077c-1.311-.29-5.098 1.739-7.428 2.077-.728.194-1.408.918-1.65 1.497-3.691 8.453-6.991 16.472-9.807 23.717l-12.72 2.512 10.244-25.602c1.651-4.153-2.718-4.54-4.419-.386L63.97 119.522c-3.35.822-6.992 1.739-10.681 2.85-2.719.724-2.816 1.449-1.651 3.092.679.869 1.942.773 2.573 1.449 1.602 1.642 2.574 3.623 5.437 3.912-2.621 6.763-5.146 13.671-7.379 20.289-1.457 4.202 2.67 5.072 4.224.628l7.963-21.593 12.865-2.802c-4.029 11.11-6.651 19.467-7.72 23.573-.193.773.195 1.159.34 1.545 1.311 1.933 2.67 2.029 4.418 4.493.437.677 2.039 1.014 2.622-.628a771.15 771.15 0 0 1 11.117-31.301c1.505-.387 4.225-1.015 5.875-3.43 2.913-4.348 3.739-3.477 4.516-4.782.873-1.69.242-3.188-2.864-2.85 0 0-1.166.097-3.399.338l8.739-22.075c.727-1.98.826-3.43-.34-3.719zm-3.415 54.893l1.376-1.903c1.839-2.708.049-4.3-1.845-2.706l-.83.797-.924-2.901 2.433-3.258c3.043-4.695-2.912-7.39-5.486-4.346-1.358 1.594-1.019 3.188-.631 4.588l.505 1.752-2.738 3.03c-2.961 3.382-2.138 7.737.971 8.695 1.875.578 3.643-.265 5.176-1.61l.213.548c.825 2.029 3.399 1.4 2.379-1.063l-.599-1.623zm-4.215-4.256l.793 2.41c-.338.281-.682.565-1.028.764-1.204.693-2.088-.049-.534-2.125l.769-1.049zm.972-5.915c-.089-.225-.141-.445-.188-.62-.871-3.237 2.858-2.373.972-.242l-.784.862z"/></svg>