<svg xmlns="http://www.w3.org/2000/svg" viewBox="0 0 441 172" fill="#cad0d9"><path d="M206.59 82.866l-18.636.659 17.695.976.941-1.635zm-2.229 3.888l-18.68.66 17.761.98.919-1.64zm-2.229 3.921l-18.657.65 17.739.979.918-1.629zm-2.183 3.901l-18.68.661 17.718.977.962-1.638zm22.835-31.337l-23.786.84 23.853 1.316-.067-2.157zm-.151-3.859l-21.368.744 21.436 1.221-.068-1.965zm-.152-3.722l-19.038.622 19.129 1.055-.091-1.677zm-.129-3.821l-16.687.554 16.753.982-.066-1.536zm-.108-3.089H207.73l14.536.766-.022-.766zm-24.546 49.728l-18.635.67h18.254l.381-.67zm63.154-49.603h-26.856l-.762 1.338 13.439.708c.158 0 .158.222-.067.222l-14.155.47-1.366 2.373 13.348.783c.179.022.135.267-.022.267l-14.178.463-1.32 2.272 13.326.735c.291.022.291.267 0 .267l-14.155.493-1.343 2.376 13.281.756c.291.022.27.289 0 .289l-14.155.501-1.367 2.347 13.303.734c.201.022.226.268-.044.268l-40.786 1.357 38.703 2.135c.246 0 .224.311-.046.311l-40.852 1.446 38.704 2.134c.179 0 .223.289-.046.289l-40.92 1.468 38.704 2.135c.157.022.312.311-.022.334l-40.855 1.443 38.703 2.134c.112.022.224.311-.044.311l-20.562.728.068 1.843 18.321 1.011c.133.022.201.289-.046.289l-18.208.643.089 2.061 15.904.877c.156.022.223.334-.046.334l-15.768.55.068 2.262 13.551.747c.156.022.201.311-.067.311l-13.416.476.089 2.488 11.199.618c.157.022.157.29-.067.29l-11.087.398.045 1.069h36.151c9.585 0 18.185-6.939 19.798-12.454s1.614-10.497-6.091-12.987c4.301-.979 11.781-5.795 13.26-12.454 1.341-6.05-.898-12.233-11.335-12.255zm-18.184 38.625h-11.109l6.271-11.031h8.243c8.511 0 4.389 11.031-3.405 11.031zm14.379-23.664c-.359 1.334-3.048 4.715-6.451 4.715h-8.242l5.284-9.251h4.212c5.374.178 5.553 3.203 5.197 4.536zm44.498 51.174c0-4.274-3.579-7.855-7.884-7.855-4.417 0-8.023 3.637-8.023 8.105-.005 1.051.201 2.093.604 3.065a7.96 7.96 0 0 0 1.744 2.598c.749.743 1.638 1.331 2.617 1.732a8.08 8.08 0 0 0 3.086.599c3.269 0 6.372-2.221 7.295-5.246h-4.081c-.811 1.277-1.872 1.859-3.327 1.859-1.845 0-3.493-1.249-4.025-3.026h11.796c.141-.859.198-1.276.198-1.831zm-12.105-1.07c.532-2.082 2.209-3.414 4.277-3.414s3.691 1.305 4.193 3.414h-8.47zm-40.888-6.044v1.246c-1.173-1.249-2.873-1.959-4.691-1.959-4.025 0-7.457 3.413-7.457 7.855 0 4.19 3.036 7.948 7.537 7.948 1.985 0 3.494-.455 4.919-2.064v1.97h3.412v-14.996h-3.72zm-4.167 11.912c-1.243 0-2.435-.491-3.314-1.364s-1.373-2.056-1.373-3.291a4.64 4.64 0 0 1 1.373-3.291c.879-.873 2.071-1.363 3.314-1.363s2.436.49 3.315 1.363a4.64 4.64 0 0 1 1.373 3.291c0 1.235-.494 2.419-1.373 3.291a4.71 4.71 0 0 1-3.315 1.364zm-97.494-12.654c-1.536 0-2.71.528-3.997 1.833v-1.471h-3.439v15.376h3.719v-7.245c0-1.969.167-5.107 2.907-5.107 2.571 0 2.851 2.942 2.851 4.83v7.522h3.717v-8.244c0-2.165-.167-3.192-.754-4.413-.867-1.832-2.907-3.081-5.004-3.081zm23.102 7.856c0-4.274-3.579-7.855-7.884-7.855-4.416 0-8.022 3.637-8.022 8.105-.005 1.051.201 2.093.604 3.064a7.96 7.96 0 0 0 1.744 2.598c.748.743 1.638 1.332 2.616 1.732a8.08 8.08 0 0 0 3.086.6c3.271 0 6.373-2.221 7.296-5.246h-4.081c-.811 1.277-1.873 1.859-3.327 1.859-1.844 0-3.494-1.249-4.025-3.026h11.796c.141-.859.197-1.276.197-1.831zm-12.104-1.07c.531-2.082 2.209-3.414 4.278-3.414s3.69 1.305 4.193 3.414h-8.471zm73.274 8.939h3.718v-20.511h-3.718v20.511zm30.917-15.725c-1.538 0-2.712.528-3.998 1.833v-1.471h-3.439v15.376h3.72v-7.245c0-1.969.167-5.107 2.906-5.107 2.571 0 2.852 2.942 2.852 4.83v7.522h3.717v-8.244c0-2.165-.167-3.192-.754-4.413-.867-1.832-2.907-3.081-5.004-3.081zm15.039 3.387c1.704 0 2.682.556 3.606 2.109h4.191c-1.145-3.302-4.08-5.496-7.659-5.496-4.528 0-8.163 3.581-8.163 7.995 0 4.44 3.663 8.104 8.163 8.104 1.148-.006 2.283-.249 3.331-.712a8.29 8.29 0 0 0 2.763-1.981c.783-.86 1.063-1.36 1.565-2.719h-4.191c-.868 1.332-1.985 2.025-3.383 2.025-2.601 0-4.528-1.998-4.528-4.663 0-2.691 1.844-4.662 4.305-4.662zm-92.916 6.356l-2.633-9.38h-2.992l-2.661 9.38-3.148-9.38h-3.28l5.171 15.375h2.381l3.02-9.963 2.934 9.963h2.5l4.958-15.375h-3.074l-3.176 9.38zm19.919-9.726c-1.817 0-3.517.71-4.691 1.958v-6.76h-3.718v20.51h3.41v-1.969c1.426 1.609 2.935 2.063 4.92 2.063 4.501 0 7.537-3.757 7.537-7.948.001-4.441-3.432-7.854-7.458-7.854zm-.524 12.637c-1.243 0-2.436-.491-3.315-1.364s-1.373-2.056-1.373-3.291a4.64 4.64 0 0 1 1.373-3.291c.879-.873 2.072-1.363 3.315-1.363s2.435.49 3.314 1.363a4.64 4.64 0 0 1 1.373 3.291c0 1.235-.494 2.419-1.373 3.291a4.71 4.71 0 0 1-3.314 1.364zm21.363-11.912v1.246c-1.174-1.249-2.873-1.959-4.691-1.959-4.025 0-7.458 3.413-7.458 7.855 0 4.19 3.036 7.948 7.536 7.948 1.985 0 3.494-.455 4.921-2.064v1.97h3.41v-14.996h-3.718zm-4.166 11.912c-1.243 0-2.435-.491-3.314-1.364s-1.373-2.056-1.373-3.291a4.64 4.64 0 0 1 1.373-3.291c.879-.873 2.071-1.363 3.314-1.363s2.436.49 3.315 1.363a4.64 4.64 0 0 1 1.373 3.291c0 1.235-.494 2.419-1.373 3.291a4.71 4.71 0 0 1-3.315 1.364z"/></svg>