<svg xmlns="http://www.w3.org/2000/svg" viewBox="0 0 208 194" fill="#4e5562"><path d="M107.945 63.544c-.393.061-.771 1.519-1.531 2.279-.555.548-1.248.514-1.617 1.191-.14.253-.094.685-.253 1.1-.31.83-1.402.904-1.402 1.808-.004.977.911 1.163 1.702 1.856.618.558.679.942 1.427 1.212.639.219 1.589-.497 2.445-.24.703.211 1.375.364 1.534 1.091.14.67-.009 1.709-.862 1.589-.287-.032-1.532-.455-3.062-.291-1.846.211-3.953.818-4.159 2.891-.113 1.159 1.309 2.526 2.683 2.248.95-.189.501-1.317 1.018-1.865.679-.702 4.522 2.452 8.095 2.452 1.504 0 2.622-.382 3.733-1.555.104-.09.231-.282.391-.293.151.011.416.162.503.227 2.877 2.33 5.052 7.003 15.627 7.058 1.487.008 3.182.723 4.565 1.995 1.234 1.15 1.955 2.937 2.656 4.751 1.058 2.722 2.955 5.37 5.831 8.316.157.158 2.524 2.012 2.713 2.151.03.019.204.438.144.672-.07 1.766-.325 6.904 3.476 7.136.93.047.686-.611.686-1.064-.002-.895-.164-1.784.304-2.699.641-1.26-1.358-1.841-1.3-4.564.042-2.031-1.651-1.685-2.511-3.232-.495-.897-.935-1.372-.903-2.469.193-6.171-1.303-10.225-2.05-11.22-.582-.752-1.063-1.051-.531-1.399 3.173-2.111 3.893-4.075 3.893-4.075 1.687-3.995 3.204-7.644 5.295-9.251.422-.331 1.503-1.144 2.166-1.464 1.951-.927 2.979-1.488 3.546-2.044.898-.881 1.606-2.718.746-3.832-1.069-1.374-2.919-.284-3.735.204-5.832 3.487-6.692 9.639-8.712 13.172-1.612 2.823-4.232 4.895-6.575 5.065-1.757.131-3.65-.227-5.536-1.06-4.586-2.025-7.095-4.64-7.686-5.103-1.232-.957-10.796-10.416-18.545-10.802 0 0-.961-1.94-1.203-1.972-.567-.072-1.147 1.159-1.563 1.302-.391.131-1.048-1.335-1.443-1.27zm-34.111 56.449c-.729-.017-1.349-.621-1.349-1.367l.002-24.348h-7.966v26.84c0 1.315 1.058 2.389 2.356 2.389H80.8c1.307 0 2.352-1.074 2.352-2.389v-26.84h-7.958l-.008 24.348c0 .746-.62 1.35-1.353 1.367zm26.67-25.715H88.448c-1.426 0-2.588 1.169-2.588 2.621v26.607h7.973V99.099c.006-.748.606-1.34 1.347-1.34s1.341.579 1.358 1.319v24.429h7.942V99.078c.009-.74.606-1.319 1.349-1.319a1.35 1.35 0 0 1 1.351 1.34v24.408h7.973V96.899c0-1.452-1.164-2.621-2.591-2.621h-12.058zm-46.643 4.873a1.37 1.37 0 0 0-1.349-1.391h-1.353v14.784h1.353a1.35 1.35 0 0 0 1.349-1.372v-12.02zm5.345 17.01h-8.047v7.346h-7.962V94.278h16.06c1.438 0 2.56 1.176 2.56 2.632v16.619c0 1.458-1.166 2.632-2.611 2.632zm83.27.809c-1.601 0-2.944 1.394-2.944 3.082 0 1.694 1.343 3.076 2.995 3.076 1.638 0 2.964-1.382 2.964-3.076s-1.326-3.082-2.965-3.082h-.05zm3.586 3.072c0 1.986-1.58 3.6-3.535 3.6-1.977 0-3.564-1.603-3.564-3.6 0-1.958 1.587-3.595 3.505-3.595a3.56 3.56 0 0 1 3.594 3.595z"/><path d="M142.158 119.814c.554 0 .845-.198.845-.594 0-.352-.282-.533-.82-.533h-.159v1.127h.134zm2.039 2.311h-.95l-1.223-1.639v1.639h-.776v-4.144h.816c1.109 0 1.698.423 1.698 1.23 0 .538-.347 1.016-.833 1.159l-.057.021 1.325 1.734zm-15.676-9.576V99.09a1.34 1.34 0 0 0-1.357-1.315 1.35 1.35 0 0 0-1.349 1.336v13.438h2.706zm0 10.958v-7.338h-2.706v7.338h-7.958V96.899c0-1.452 1.162-2.621 2.588-2.621h13.445c1.431 0 2.593 1.169 2.593 2.621v26.607l-7.962.001z"/></svg>