<svg xmlns="http://www.w3.org/2000/svg" viewBox="0 0 429 301" fill="#4e5562"><path d="M324.63 197.022l-36.364-96.937-.024-.064h-.718l-7.488 19.92-13.632 36.265-.032-.029c-4.725-4.036-11.391-6.56-19.786-7.499l-2.56-.256 2.54-.316c13.844-2.408 23.15-10.874 23.15-21.074 0-13.986-13.587-23.749-33.049-23.749h-40.493v.708h11.766v72.272l-28.576-76.178-.026-.064h-.718l-7.488 19.92-28.881 76.831-.178.02a32.69 32.69 0 0 1-1.465.141c-.723.057-1.448.086-2.173.088h-29.183l55.472-93.03.413-.699H97.292v28.778h.72c.128-14.017 8.559-28.079 27.187-28.079h22.474l-55.892 93.727h75.297v-27.571h-.72c-.098 12.217-7.252 23.822-22.806 26.442l-.495.082 11.846-31.527h33.185l11.958 31.878H188.25v.697h46.299v-.697h-11.847v-48.086h13.669c13.91 0 21.888 6.017 21.888 16.503v8.53c0 .94.066 2.314.139 3.463v.042l-7.347 19.543h-9.598v.697h19.868v-.697h-9.495l6.691-17.796.02.276.185 1.603.178 1.061c1.116 6.562 3.708 11.386 7.702 14.338l.574.403c3.034 2.043 6.805 3.077 11.213 3.077 5.839 0 9.732-1.409 12.946-4.726l-.421-.384c-2.962 2.646-5.447 3.719-8.561 3.719-5.306 0-8.083-6.232-8.083-12.377V174.26c.028-2.969-.452-5.921-1.419-8.728l-.132-.371v-.013h24.273l11.957 31.878h-11.795v.697h40.065v-.697l-12.589-.004zm-169.463-32.575l16.348-43.487 16.312 43.487h-32.66zm67.542-16.211v-44.245h10.434c13.938 0 21.296 8.022 21.296 23.191 0 16.133-4.224 21.054-18.068 21.054h-13.662zm49.727 16.211l-.071-.172c-1.078-2.544-2.649-4.865-4.627-6.838l-.683-.662-.073-.066 13.427-35.749 16.312 43.487h-24.285z"/></svg>