<svg xmlns="http://www.w3.org/2000/svg" width="58" height="40" fill="none" xmlns:v="https://vecta.io/nano"><path fill-rule="evenodd" d="M16.471 16.598c.628.053 1.256-.32 1.649-.793.386-.486.641-1.139.576-1.805-.556.027-1.243.373-1.636.859-.36.42-.667 1.099-.589 1.738zm7.47 8.578V14.793h3.827c1.976 0 3.356 1.385 3.356 3.41s-1.407 3.423-3.408 3.423h-2.192v3.55h-1.583zm-5.253-8.452c-.553-.032-1.058.169-1.466.332-.262.105-.485.194-.654.194-.19 0-.421-.094-.681-.199-.34-.138-.73-.295-1.138-.288-.936.013-1.806.553-2.283 1.412-.981 1.718-.255 4.263.693 5.661.464.693 1.021 1.452 1.753 1.425.322-.012.554-.113.794-.216.276-.119.563-.243 1.011-.243.433 0 .707.121.971.237.25.11.491.216.848.21.759-.013 1.236-.693 1.701-1.385.501-.743.721-1.469.755-1.579l.004-.013c-.186-.087-1.466-.684-1.479-2.284-.012-1.343 1.016-2.024 1.178-2.131l.02-.013c-.654-.986-1.675-1.092-2.028-1.119zm15.328 8.532c.994 0 1.917-.513 2.336-1.325h.033v1.245h1.465v-5.168c0-1.498-1.178-2.464-2.99-2.464-1.681 0-2.924.979-2.97 2.325h1.426c.118-.639.7-1.059 1.498-1.059.968 0 1.511.459 1.511 1.305v.573l-1.976.12c-1.838.113-2.833.879-2.833 2.211 0 1.345 1.027 2.238 2.499 2.238zm.424-1.232c-.844 0-1.38-.413-1.38-1.046 0-.653.517-1.032 1.505-1.092l1.76-.113v.586c0 .972-.811 1.665-1.884 1.665zm8.272 1.559C42.078 27.401 41.352 28 39.808 28c-.118 0-.51-.013-.602-.04v-1.245c.098.013.34.027.464.027.7 0 1.093-.3 1.335-1.079l.144-.459-2.682-7.559h1.655l1.865 6.134h.033l1.864-6.134h1.609l-2.78 7.939zm-17.187-9.431h1.825c1.374 0 2.159.746 2.159 2.058s-.785 2.065-2.165 2.065h-1.819v-4.123z" fill="#fff"/></svg>