<svg xmlns="http://www.w3.org/2000/svg" width="58" height="40" fill="none" xmlns:v="https://vecta.io/nano"><path d="M32.946 20.147c0 5.604-4.465 10.147-9.973 10.147S13 25.751 13 20.147 17.465 10 22.973 10s9.973 4.543 9.973 10.147z" fill="#ed0006"/><path d="M45.883 20.147c0 5.604-4.465 10.147-9.973 10.147s-9.973-4.543-9.973-10.147S30.403 10 35.91 10s9.973 4.543 9.973 10.147z" fill="#0099df"/><path fill-rule="evenodd" d="M29.441 27.869c2.144-1.861 3.504-4.63 3.504-7.723s-1.36-5.862-3.504-7.723c-2.144 1.861-3.504 4.63-3.504 7.723s1.36 5.862 3.504 7.723z" fill="#6c6bbd"/></svg>