<svg xmlns="http://www.w3.org/2000/svg" width="58" height="40" fill="none" xmlns:v="https://vecta.io/nano"><path fill-rule="evenodd" d="M20.438 25.749h-2.921l-2.19-8.404c-.104-.387-.325-.728-.649-.889-.81-.405-1.703-.727-2.677-.89v-.323h4.705a1.23 1.23 0 0 1 1.218 1.05l1.136 6.062 2.919-7.113h2.84l-4.381 10.507zm6.004 0h-2.759l2.271-10.507h2.759l-2.271 10.507zm5.841-7.596c.081-.566.568-.889 1.136-.889.893-.081 1.866.081 2.677.485l.487-2.262A6.95 6.95 0 0 0 34.069 15c-2.677 0-4.626 1.455-4.626 3.475 0 1.537 1.38 2.343 2.354 2.829 1.054.485 1.46.808 1.379 1.293 0 .727-.812 1.05-1.622 1.05-.974 0-1.948-.242-2.84-.647l-.487 2.264c.974.403 2.028.566 3.002.566 3.002.08 4.868-1.374 4.868-3.556 0-2.748-3.814-2.909-3.814-4.121zm13.468 7.596l-2.19-10.507h-2.353c-.487 0-.974.323-1.136.808l-4.056 9.699h2.84l.567-1.535h3.489l.325 1.535h2.515zm-4.138-7.677l.81 3.96h-2.271l1.461-3.96z" fill="#172b85"/></svg>