<?xml version="1.0" encoding="UTF-8"?>
<svg id="_레이어_2" data-name="레이어 2" xmlns="http://www.w3.org/2000/svg" viewBox="0 0 356.32 86.77">
  <defs>
    <style>
      .cls-1 {
        fill: #9a9995;
        font-family: ArialMT, Arial;
        font-size: 17.49px;
      }

      .cls-2 {
        fill: #4a4846;
      }

      .cls-3 {
        fill: #10245c;
      }
    </style>
  </defs>
  <g id="_레이어_1-2" data-name="레이어 1">
    <path class="cls-3" d="m139.41,5.97v11.1h-12.03V5.97h12.03Zm0,14.57v38.28h-12.03V20.54h12.03Z"/>
    <path class="cls-2" d="m267.05,6.49v8.33h-18.85v12.49h17v8.33h-17v14.34h19.54v8.33h-22.32c-2.54,0-4.72-.85-6.53-2.54-1.81-1.7-2.72-3.93-2.72-6.71V6.49h30.87Z"/>
    <path class="cls-2" d="m291.91,6.49c5.94,0,10.68,1.23,14.22,3.7,3.54,2.47,5.32,5.86,5.32,10.18,0,3.47-.68,6.34-2.02,8.61-1.35,2.27-3.49,3.91-6.42,4.91,2.7.31,4.78,1.23,6.24,2.78,1.46,1.54,2.2,3.51,2.2,5.9v9.37c0,1.54.25,2.78.75,3.7.5.93,1.14,1.81,1.91,2.66h-12.72c-.46-.54-.91-1.25-1.33-2.14-.42-.89-.64-1.83-.64-2.83v-7.52c0-2.47-.5-4.24-1.49-5.32-.99-1.08-2.6-1.62-4.83-1.62h-5.7v19.43h-12.03V6.49h16.54Zm-4.51,22.43h4.45c2.32,0,4.17-.52,5.53-1.56,1.36-1.04,2.05-2.64,2.05-4.8,0-2-.6-3.53-1.8-4.57-1.2-1.04-2.97-1.56-5.29-1.56h-4.93v12.49Z"/>
    <path class="cls-2" d="m337.13,6.49c6.63,0,11.49,1.77,14.57,5.32,3.08,3.55,4.63,7.67,4.63,12.37,0,4.16-1.6,7.94-4.8,11.33-3.2,3.39-8.08,5.09-14.63,5.09h-4.63v17.69h-12.03V6.49h16.88Zm-4.86,25.79h5.05c1.84,0,3.46-.79,4.87-2.37,1.4-1.58,2.11-3.76,2.11-6.53s-.7-4.9-2.11-6.36c-1.4-1.46-3.03-2.2-4.87-2.2h-5.05v17.46Z"/>
    <path class="cls-3" d="m77,17.94c.03.11.04.21.04.32v17.02c0,.44-.24.86-.62,1.08l-14.29,8.23v16.31c0,.44-.24.85-.62,1.08l-29.83,17.17c-.07.04-.14.06-.22.09-.03,0-.05.03-.08.03-.21.06-.43.06-.64,0-.03,0-.07-.03-.1-.04-.07-.03-.14-.05-.2-.08L.62,61.98c-.39-.22-.62-.63-.62-1.08V9.83c0-.11.02-.22.04-.33,0-.04.03-.07.04-.1.02-.06.05-.13.08-.19.02-.04.06-.07.09-.11.04-.05.07-.1.11-.14.04-.04.08-.06.12-.09.05-.04.09-.08.14-.11h0L15.53.17c.38-.22.86-.22,1.24,0l14.91,8.59h0s.09.07.14.11c.04.03.09.06.12.09.04.05.07.1.11.15.03.04.06.07.08.11.04.06.06.13.08.19.01.04.03.07.04.11.03.11.04.21.04.32v31.9l12.43-7.15v-16.31c0-.11.02-.22.04-.32.01-.04.03-.07.04-.11.02-.06.05-.13.08-.19.02-.04.06-.07.08-.11.04-.05.07-.1.11-.14.04-.04.08-.06.12-.09.05-.04.09-.08.14-.11h0l14.91-8.59c.38-.22.86-.22,1.24,0l14.91,8.59c.05.03.09.07.14.11.04.03.08.06.12.09.04.05.07.1.11.15.03.04.06.07.08.11.04.06.06.13.08.19.01.04.03.07.04.11h0Zm-2.44,16.63v-14.16l-5.22,3-7.21,4.15v14.16l12.43-7.15h0Zm-14.91,25.61v-14.17l-7.09,4.05-20.25,11.56v14.3l27.34-15.74ZM2.49,11.98v48.21l27.34,15.74v-14.3l-14.28-8.08h0s0,0,0,0c-.05-.03-.09-.07-.13-.1-.04-.03-.08-.06-.12-.09h0s-.07-.09-.1-.14c-.03-.04-.07-.08-.09-.12h0c-.03-.05-.05-.11-.07-.16-.02-.05-.05-.09-.06-.14h0c-.02-.06-.02-.12-.02-.18,0-.05-.02-.09-.02-.14V19.13l-7.21-4.15-5.22-3h0ZM16.16,2.68L3.73,9.83l12.42,7.15,12.42-7.15-12.42-7.15h0Zm6.46,44.63l7.21-4.15V11.98l-5.22,3-7.21,4.15v31.18l5.22-3.01ZM60.89,11.12l-12.42,7.15,12.42,7.15,12.42-7.15-12.42-7.15Zm-1.24,16.45l-7.21-4.15-5.22-3v14.16l7.21,4.15,5.22,3.01v-14.16Zm-28.58,31.9l18.22-10.4,9.11-5.2-12.41-7.15-14.29,8.23-13.03,7.5,12.4,7.02Z"/>
    <path class="cls-3" d="m117.9,6.49v42.78c0,2.62-1,4.78-3.01,6.48-2,1.69-4.32,2.54-6.94,2.54h-21.85v-8.33h19.77V6.49h12.03Z"/>
    <path class="cls-3" d="m179.71,22.31c1.93,1.9,2.89,4.42,2.89,7.54v27.88h-12.03v-26.02c0-1.39-.29-2.39-.87-3.01-.58-.62-1.52-.93-2.83-.93-1.54,0-3.06.73-4.57,2.2-1.5,1.46-2.25,3.08-2.25,4.86v22.9h-12.03V19.45h12.03v4.39c1.23-1.39,2.83-2.47,4.8-3.24,1.97-.77,4.14-1.16,6.53-1.16,3.62,0,6.4.95,8.33,2.86Z"/>
    <path class="cls-3" d="m201.56,19.45l6.24,19.31,7.4-19.31h12.03l-16.77,35.5c-1.62,3.39-4.05,5.74-7.28,7.05-3.24,1.31-6.59,1.97-10.06,1.97v-8.33c2.24,0,4.05-.39,5.43-1.16,1.39-.77,2.58-2,3.58-3.7l-12.37-31.34h11.79Z"/>
    <text class="cls-1" transform="translate(73.71 81.09)"><tspan x="0" y="0">Management Infomation Framework</tspan></text>
  </g>
</svg>